<svg xmlns="http://www.w3.org/2000/svg" xmlns:xlink="http://www.w3.org/1999/xlink" width="500" zoomAndPan="magnify" viewBox="0 0 375 374.999991" height="500" preserveAspectRatio="xMidYMid meet" version="1.0"><defs><g/><clipPath id="9c33f015fb"><path d="M 88 78 L 212 78 L 212 210 L 88 210 Z M 88 78 " clip-rule="nonzero"/></clipPath><clipPath id="af3152c119"><path d="M -6.1875 104.785156 L 284.546875 47.894531 L 323 244.417969 L 32.265625 301.308594 Z M -6.1875 104.785156 " clip-rule="nonzero"/></clipPath><clipPath id="f9773a4135"><path d="M -6.199219 104.738281 L 284.539062 47.851562 L 322.992188 244.375 L 32.257812 301.261719 Z M -6.199219 104.738281 " clip-rule="nonzero"/></clipPath><clipPath id="c095da446e"><path d="M -6.199219 104.738281 L 284.539062 47.851562 L 322.992188 244.375 L 32.257812 301.261719 Z M -6.199219 104.738281 " clip-rule="nonzero"/></clipPath><clipPath id="5acd73ca8d"><path d="M 65 94 L 119 94 L 119 250 L 65 250 Z M 65 94 " clip-rule="nonzero"/></clipPath><clipPath id="de287b75fe"><path d="M -6.1875 104.785156 L 284.546875 47.894531 L 323 244.417969 L 32.265625 301.308594 Z M -6.1875 104.785156 " clip-rule="nonzero"/></clipPath><clipPath id="efe93274a6"><path d="M -6.199219 104.738281 L 284.539062 47.851562 L 322.992188 244.375 L 32.257812 301.261719 Z M -6.199219 104.738281 " clip-rule="nonzero"/></clipPath><clipPath id="e2eaab6087"><path d="M -6.199219 104.738281 L 284.539062 47.851562 L 322.992188 244.375 L 32.257812 301.261719 Z M -6.199219 104.738281 " clip-rule="nonzero"/></clipPath><clipPath id="e888c0927e"><path d="M 30 156 L 118 156 L 118 275 L 30 275 Z M 30 156 " clip-rule="nonzero"/></clipPath><clipPath id="7d7571d1e2"><path d="M -6.1875 104.785156 L 284.546875 47.894531 L 323 244.417969 L 32.265625 301.308594 Z M -6.1875 104.785156 " clip-rule="nonzero"/></clipPath><clipPath id="c9ed144ad6"><path d="M -6.199219 104.738281 L 284.539062 47.851562 L 322.992188 244.375 L 32.257812 301.261719 Z M -6.199219 104.738281 " clip-rule="nonzero"/></clipPath><clipPath id="1ed6e796e3"><path d="M -6.199219 104.738281 L 284.539062 47.851562 L 322.992188 244.375 L 32.257812 301.261719 Z M -6.199219 104.738281 " clip-rule="nonzero"/></clipPath><clipPath id="ce0a1f0bcd"><path d="M 21 236 L 146 236 L 146 288 L 21 288 Z M 21 236 " clip-rule="nonzero"/></clipPath><clipPath id="5e3aec36a7"><path d="M -6.1875 104.785156 L 284.546875 47.894531 L 323 244.417969 L 32.265625 301.308594 Z M -6.1875 104.785156 " clip-rule="nonzero"/></clipPath><clipPath id="79ea76e64c"><path d="M -6.199219 104.738281 L 284.539062 47.851562 L 322.992188 244.375 L 32.257812 301.261719 Z M -6.199219 104.738281 " clip-rule="nonzero"/></clipPath><clipPath id="98b5e6a437"><path d="M -6.199219 104.738281 L 284.539062 47.851562 L 322.992188 244.375 L 32.257812 301.261719 Z M -6.199219 104.738281 " clip-rule="nonzero"/></clipPath><clipPath id="3bf0ff982c"><path d="M 19.972656 238.074219 L 133.566406 215.847656 L 146.023438 279.496094 L 32.429688 301.726562 Z M 19.972656 238.074219 " clip-rule="nonzero"/></clipPath><clipPath id="1cb1ac8d68"><path d="M 19.972656 238.074219 L 133.566406 215.847656 L 145.925781 278.996094 L 32.332031 301.222656 Z M 19.972656 238.074219 " clip-rule="nonzero"/></clipPath><clipPath id="c264f21dc6"><path d="M 103 117 L 291 117 L 291 187 L 103 187 Z M 103 117 " clip-rule="nonzero"/></clipPath><clipPath id="08adeda9c2"><path d="M -6.1875 104.785156 L 284.546875 47.894531 L 323 244.417969 L 32.265625 301.308594 Z M -6.1875 104.785156 " clip-rule="nonzero"/></clipPath><clipPath id="aa71b27ed0"><path d="M -6.199219 104.738281 L 284.539062 47.851562 L 322.992188 244.375 L 32.257812 301.261719 Z M -6.199219 104.738281 " clip-rule="nonzero"/></clipPath><clipPath id="d0c4a74c06"><path d="M -6.199219 104.738281 L 284.539062 47.851562 L 322.992188 244.375 L 32.257812 301.261719 Z M -6.199219 104.738281 " clip-rule="nonzero"/></clipPath></defs><g clip-path="url(#9c33f015fb)"><g clip-path="url(#af3152c119)"><g clip-path="url(#f9773a4135)"><g clip-path="url(#c095da446e)"><path fill="#34b456" d="M 88.601562 209.449219 C 102.5 149.710938 136.332031 124.351562 194.382812 109.375 C 224.917969 101.492188 210.964844 71.121094 182.300781 80.363281 C 121.605469 99.929688 94.171875 147.128906 88.601562 209.449219 " fill-opacity="1" fill-rule="evenodd"/></g></g></g></g><g clip-path="url(#5acd73ca8d)"><g clip-path="url(#de287b75fe)"><g clip-path="url(#efe93274a6)"><g clip-path="url(#e2eaab6087)"><path fill="#8fd23c" d="M 89.996094 249.308594 C 67.859375 198.566406 78.664062 161.980469 112.535156 119.785156 C 130.359375 97.570312 103.925781 83.152344 88.179688 105.316406 C 54.855469 152.25 60.441406 201.210938 89.996094 249.308594 " fill-opacity="1" fill-rule="evenodd"/></g></g></g></g><g clip-path="url(#e888c0927e)"><g clip-path="url(#7d7571d1e2)"><g clip-path="url(#c9ed144ad6)"><g clip-path="url(#1ed6e796e3)"><path fill="#c1e475" d="M 117.1875 274.917969 C 72.164062 253.460938 57.890625 222.136719 56.007812 173.308594 C 55.027344 147.644531 28.511719 153.46875 30.902344 177.890625 C 35.949219 229.621094 68.664062 259.65625 117.1875 274.917969 " fill-opacity="1" fill-rule="evenodd"/></g></g></g></g><g clip-path="url(#ce0a1f0bcd)"><g clip-path="url(#5e3aec36a7)"><g clip-path="url(#79ea76e64c)"><g clip-path="url(#98b5e6a437)"><g clip-path="url(#3bf0ff982c)"><g clip-path="url(#1cb1ac8d68)"><path fill="#ddef8f" d="M 145.113281 275.101562 C 101.851562 287.421875 73.5625 274.714844 43.261719 242.734375 C 27.316406 225.914062 12.839844 245.695312 28.984375 260.820312 C 63.160156 292.867188 103.179688 293.707031 145.113281 275.101562 " fill-opacity="1" fill-rule="evenodd"/></g></g></g></g></g></g><g clip-path="url(#c264f21dc6)"><g clip-path="url(#08adeda9c2)"><g clip-path="url(#aa71b27ed0)"><g clip-path="url(#d0c4a74c06)"><path fill="#2a7f4a" d="M 103.671875 186.742188 C 152.695312 139.675781 199.4375 136.644531 262.445312 157.910156 C 295.578125 169.082031 300.964844 132.421875 268.734375 123.636719 C 200.507812 105.03125 146.511719 132.238281 103.671875 186.742188 " fill-opacity="1" fill-rule="evenodd"/></g></g></g></g><g fill="#2a7f4a" fill-opacity="1"><g transform="translate(120.458346, 210.039761)"><g><path d="M 15.296875 0 C 15.203125 0.0195312 15.085938 0.03125 14.953125 0.03125 C 14.816406 0.0390625 14.691406 0.046875 14.578125 0.046875 C 14.304688 0.046875 14.109375 0 13.984375 -0.09375 C 13.859375 -0.1875 13.78125 -0.359375 13.75 -0.609375 L 12.53125 -10 L 9.109375 -2.765625 C 8.953125 -2.421875 8.785156 -2.1875 8.609375 -2.0625 C 8.429688 -1.9375 8.207031 -1.875 7.9375 -1.875 C 7.78125 -1.875 7.597656 -1.890625 7.390625 -1.921875 L 3.65625 -9.921875 C 3.351562 -8.109375 3.082031 -6.285156 2.84375 -4.453125 C 2.613281 -2.617188 2.488281 -1.132812 2.46875 0 C 2.289062 0.03125 2.09375 0.046875 1.875 0.046875 C 1.5625 0.046875 1.335938 -0.0078125 1.203125 -0.125 C 1.078125 -0.238281 1.015625 -0.441406 1.015625 -0.734375 C 1.015625 -1.734375 1.1875 -3.300781 1.53125 -5.4375 C 1.882812 -7.582031 2.265625 -9.59375 2.671875 -11.46875 L 2.3125 -12.40625 C 2.40625 -12.425781 2.507812 -12.4375 2.625 -12.4375 C 2.75 -12.445312 2.859375 -12.453125 2.953125 -12.453125 C 3.253906 -12.453125 3.472656 -12.429688 3.609375 -12.390625 C 3.753906 -12.347656 3.882812 -12.253906 4 -12.109375 C 4.113281 -11.972656 4.253906 -11.722656 4.421875 -11.359375 L 8.125 -3.53125 L 12.234375 -12.328125 C 12.585938 -12.328125 12.867188 -12.300781 13.078125 -12.25 C 13.296875 -12.207031 13.453125 -12.128906 13.546875 -12.015625 C 13.648438 -11.898438 13.722656 -11.726562 13.765625 -11.5 Z M 15.296875 0 "/></g></g></g><g fill="#2a7f4a" fill-opacity="1"><g transform="translate(144.111556, 210.039761)"><g><path d="M 9.953125 -1.296875 C 9.992188 -1.085938 10.015625 -0.882812 10.015625 -0.6875 C 10.015625 -0.445312 9.960938 -0.269531 9.859375 -0.15625 C 9.765625 -0.0507812 9.609375 0 9.390625 0 L 2.734375 0 C 2.492188 0 2.3125 -0.0234375 2.1875 -0.078125 C 2.070312 -0.140625 1.988281 -0.238281 1.9375 -0.375 C 1.882812 -0.507812 1.859375 -0.710938 1.859375 -0.984375 L 1.859375 -10.96875 L 0.234375 -10.96875 C 0.210938 -11.050781 0.195312 -11.144531 0.1875 -11.25 C 0.175781 -11.363281 0.171875 -11.484375 0.171875 -11.609375 C 0.171875 -11.859375 0.222656 -12.03125 0.328125 -12.125 C 0.441406 -12.21875 0.640625 -12.265625 0.921875 -12.265625 L 9.59375 -12.265625 C 9.632812 -12.054688 9.65625 -11.851562 9.65625 -11.65625 C 9.65625 -11.414062 9.601562 -11.238281 9.5 -11.125 C 9.40625 -11.019531 9.25 -10.96875 9.03125 -10.96875 L 3.28125 -10.96875 L 3.28125 -7.015625 L 8.015625 -7.015625 C 8.066406 -6.804688 8.09375 -6.601562 8.09375 -6.40625 C 8.09375 -6.164062 8.039062 -5.988281 7.9375 -5.875 C 7.84375 -5.769531 7.679688 -5.71875 7.453125 -5.71875 L 3.28125 -5.71875 L 3.28125 -1.296875 Z M 9.953125 -1.296875 "/></g></g></g><g fill="#2a7f4a" fill-opacity="1"><g transform="translate(162.231568, 210.039761)"><g><path d="M 5.40625 -12.265625 C 7.65625 -12.265625 9.320312 -11.726562 10.40625 -10.65625 C 11.488281 -9.59375 12.03125 -8.082031 12.03125 -6.125 C 12.03125 -4.1875 11.484375 -2.679688 10.390625 -1.609375 C 9.296875 -0.535156 7.65625 0 5.46875 0 L 2.734375 0 C 2.492188 0 2.3125 -0.0234375 2.1875 -0.078125 C 2.070312 -0.140625 1.988281 -0.238281 1.9375 -0.375 C 1.882812 -0.507812 1.859375 -0.710938 1.859375 -0.984375 L 1.859375 -11.015625 L 0.234375 -11.015625 C 0.191406 -11.171875 0.171875 -11.367188 0.171875 -11.609375 C 0.171875 -11.859375 0.222656 -12.03125 0.328125 -12.125 C 0.441406 -12.21875 0.640625 -12.265625 0.921875 -12.265625 Z M 5.421875 -1.3125 C 6.648438 -1.3125 7.640625 -1.492188 8.390625 -1.859375 C 9.140625 -2.234375 9.679688 -2.769531 10.015625 -3.46875 C 10.347656 -4.175781 10.515625 -5.0625 10.515625 -6.125 C 10.515625 -7.195312 10.335938 -8.085938 9.984375 -8.796875 C 9.628906 -9.515625 9.066406 -10.054688 8.296875 -10.421875 C 7.523438 -10.785156 6.515625 -10.96875 5.265625 -10.96875 L 3.28125 -10.96875 L 3.28125 -1.3125 Z M 5.421875 -1.3125 "/></g></g></g><g fill="#2a7f4a" fill-opacity="1"><g transform="translate(182.445688, 210.039761)"><g><path d="M 1.359375 -12.3125 C 1.492188 -12.34375 1.6875 -12.359375 1.9375 -12.359375 C 2.1875 -12.359375 2.367188 -12.34375 2.484375 -12.3125 C 2.609375 -12.28125 2.691406 -12.21875 2.734375 -12.125 C 2.773438 -12.039062 2.796875 -11.90625 2.796875 -11.71875 L 2.796875 0.015625 C 2.660156 0.046875 2.46875 0.0625 2.21875 0.0625 C 1.96875 0.0625 1.78125 0.046875 1.65625 0.015625 C 1.539062 -0.015625 1.460938 -0.0703125 1.421875 -0.15625 C 1.378906 -0.25 1.359375 -0.390625 1.359375 -0.578125 Z M 1.359375 -12.3125 "/></g></g></g><g fill="#2a7f4a" fill-opacity="1"><g transform="translate(193.94291, 210.039761)"><g><path d="M 6.953125 -12.5 C 7.472656 -12.5 7.960938 -12.445312 8.421875 -12.34375 C 8.890625 -12.238281 9.296875 -12.101562 9.640625 -11.9375 C 9.898438 -11.800781 10.082031 -11.664062 10.1875 -11.53125 C 10.300781 -11.40625 10.359375 -11.265625 10.359375 -11.109375 C 10.359375 -10.847656 10.195312 -10.570312 9.875 -10.28125 C 9.5625 -10.53125 9.144531 -10.75 8.625 -10.9375 C 8.101562 -11.125 7.546875 -11.21875 6.953125 -11.21875 C 6.046875 -11.21875 5.242188 -11.007812 4.546875 -10.59375 C 3.859375 -10.175781 3.320312 -9.582031 2.9375 -8.8125 C 2.5625 -8.039062 2.375 -7.148438 2.375 -6.140625 C 2.375 -5.148438 2.546875 -4.265625 2.890625 -3.484375 C 3.234375 -2.710938 3.734375 -2.109375 4.390625 -1.671875 C 5.046875 -1.242188 5.84375 -1.03125 6.78125 -1.03125 C 7.476562 -1.03125 8.128906 -1.148438 8.734375 -1.390625 C 9.335938 -1.640625 9.828125 -1.929688 10.203125 -2.265625 C 10.546875 -1.960938 10.71875 -1.671875 10.71875 -1.390625 C 10.71875 -1.253906 10.671875 -1.125 10.578125 -1 C 10.484375 -0.875 10.304688 -0.734375 10.046875 -0.578125 C 9.703125 -0.367188 9.238281 -0.179688 8.65625 -0.015625 C 8.070312 0.148438 7.445312 0.234375 6.78125 0.234375 C 5.445312 0.234375 4.335938 -0.03125 3.453125 -0.5625 C 2.566406 -1.101562 1.910156 -1.847656 1.484375 -2.796875 C 1.054688 -3.742188 0.84375 -4.84375 0.84375 -6.09375 C 0.84375 -7.332031 1.085938 -8.4375 1.578125 -9.40625 C 2.078125 -10.375 2.785156 -11.128906 3.703125 -11.671875 C 4.628906 -12.222656 5.710938 -12.5 6.953125 -12.5 Z M 6.953125 -12.5 "/></g></g></g><g fill="#2a7f4a" fill-opacity="1"><g transform="translate(212.760973, 210.039761)"><g><path d="M 11.90625 0 C 11.800781 0.0195312 11.679688 0.03125 11.546875 0.03125 C 11.410156 0.0390625 11.289062 0.046875 11.1875 0.046875 C 10.84375 0.046875 10.59375 0.00390625 10.4375 -0.078125 C 10.28125 -0.160156 10.144531 -0.332031 10.03125 -0.59375 L 8.8125 -3.515625 L 2.65625 -3.515625 C 2.175781 -2.316406 1.804688 -1.144531 1.546875 0 C 1.378906 0.03125 1.195312 0.046875 1 0.046875 C 0.738281 0.046875 0.546875 0.0078125 0.421875 -0.0625 C 0.304688 -0.144531 0.25 -0.269531 0.25 -0.4375 C 0.25 -0.601562 0.285156 -0.84375 0.359375 -1.15625 C 0.441406 -1.476562 0.535156 -1.800781 0.640625 -2.125 C 1.066406 -3.375 1.707031 -4.851562 2.5625 -6.5625 C 3.414062 -8.269531 4.300781 -9.894531 5.21875 -11.4375 L 4.8125 -12.484375 C 4.976562 -12.515625 5.175781 -12.53125 5.40625 -12.53125 C 5.6875 -12.53125 5.90625 -12.492188 6.0625 -12.421875 C 6.226562 -12.359375 6.375 -12.238281 6.5 -12.0625 C 6.625 -11.894531 6.769531 -11.632812 6.9375 -11.28125 Z M 8.28125 -4.734375 L 5.9375 -10.265625 C 4.863281 -8.410156 3.9375 -6.566406 3.15625 -4.734375 Z M 8.28125 -4.734375 "/></g></g></g><g fill="#2a7f4a" fill-opacity="1"><g transform="translate(232.260033, 210.039761)"><g><path d="M 11.140625 -0.140625 C 10.816406 0.0234375 10.472656 0.109375 10.109375 0.109375 C 9.898438 0.109375 9.726562 0.0546875 9.59375 -0.046875 C 9.457031 -0.160156 9.304688 -0.359375 9.140625 -0.640625 L 6.6875 -4.890625 C 6.320312 -4.859375 5.945312 -4.84375 5.5625 -4.84375 L 3.28125 -4.84375 L 3.28125 0.015625 C 3.144531 0.046875 2.953125 0.0625 2.703125 0.0625 C 2.453125 0.0625 2.265625 0.046875 2.140625 0.015625 C 2.023438 -0.015625 1.945312 -0.0703125 1.90625 -0.15625 C 1.875 -0.25 1.859375 -0.390625 1.859375 -0.578125 L 1.859375 -10.96875 L 0.234375 -10.96875 C 0.210938 -11.050781 0.195312 -11.144531 0.1875 -11.25 C 0.175781 -11.363281 0.171875 -11.484375 0.171875 -11.609375 C 0.171875 -11.859375 0.222656 -12.03125 0.328125 -12.125 C 0.441406 -12.21875 0.640625 -12.265625 0.921875 -12.265625 L 5.5625 -12.265625 C 7.207031 -12.265625 8.4375 -11.957031 9.25 -11.34375 C 10.0625 -10.726562 10.46875 -9.789062 10.46875 -8.53125 C 10.46875 -7.65625 10.269531 -6.941406 9.875 -6.390625 C 9.476562 -5.835938 8.890625 -5.425781 8.109375 -5.15625 Z M 5.53125 -6.171875 C 6.300781 -6.171875 6.929688 -6.234375 7.421875 -6.359375 C 7.910156 -6.492188 8.285156 -6.726562 8.546875 -7.0625 C 8.816406 -7.40625 8.953125 -7.890625 8.953125 -8.515625 C 8.953125 -9.390625 8.671875 -10.015625 8.109375 -10.390625 C 7.546875 -10.773438 6.6875 -10.96875 5.53125 -10.96875 L 3.28125 -10.96875 L 3.28125 -6.171875 Z M 5.53125 -6.171875 "/></g></g></g><g fill="#2a7f4a" fill-opacity="1"><g transform="translate(251.418594, 210.039761)"><g><path d="M 9.953125 -1.296875 C 9.992188 -1.085938 10.015625 -0.882812 10.015625 -0.6875 C 10.015625 -0.445312 9.960938 -0.269531 9.859375 -0.15625 C 9.765625 -0.0507812 9.609375 0 9.390625 0 L 2.734375 0 C 2.492188 0 2.3125 -0.0234375 2.1875 -0.078125 C 2.070312 -0.140625 1.988281 -0.238281 1.9375 -0.375 C 1.882812 -0.507812 1.859375 -0.710938 1.859375 -0.984375 L 1.859375 -10.96875 L 0.234375 -10.96875 C 0.210938 -11.050781 0.195312 -11.144531 0.1875 -11.25 C 0.175781 -11.363281 0.171875 -11.484375 0.171875 -11.609375 C 0.171875 -11.859375 0.222656 -12.03125 0.328125 -12.125 C 0.441406 -12.21875 0.640625 -12.265625 0.921875 -12.265625 L 9.59375 -12.265625 C 9.632812 -12.054688 9.65625 -11.851562 9.65625 -11.65625 C 9.65625 -11.414062 9.601562 -11.238281 9.5 -11.125 C 9.40625 -11.019531 9.25 -10.96875 9.03125 -10.96875 L 3.28125 -10.96875 L 3.28125 -7.015625 L 8.015625 -7.015625 C 8.066406 -6.804688 8.09375 -6.601562 8.09375 -6.40625 C 8.09375 -6.164062 8.039062 -5.988281 7.9375 -5.875 C 7.84375 -5.769531 7.679688 -5.71875 7.453125 -5.71875 L 3.28125 -5.71875 L 3.28125 -1.296875 Z M 9.953125 -1.296875 "/></g></g></g><g fill="#2a7f4a" fill-opacity="1"><g transform="translate(269.5386, 210.039761)"><g/></g></g><g fill="#2a7f4a" fill-opacity="1"><g transform="translate(281.137971, 210.039761)"><g><path d="M 5.546875 -12.265625 C 7.128906 -12.265625 8.332031 -11.941406 9.15625 -11.296875 C 9.976562 -10.648438 10.390625 -9.703125 10.390625 -8.453125 C 10.390625 -7.203125 9.976562 -6.242188 9.15625 -5.578125 C 8.332031 -4.910156 7.128906 -4.578125 5.546875 -4.578125 L 3.28125 -4.578125 L 3.28125 0.015625 C 3.144531 0.046875 2.953125 0.0625 2.703125 0.0625 C 2.453125 0.0625 2.265625 0.046875 2.140625 0.015625 C 2.023438 -0.015625 1.945312 -0.0703125 1.90625 -0.15625 C 1.875 -0.25 1.859375 -0.390625 1.859375 -0.578125 L 1.859375 -10.96875 L 0.234375 -10.96875 C 0.210938 -11.050781 0.195312 -11.144531 0.1875 -11.25 C 0.175781 -11.363281 0.171875 -11.484375 0.171875 -11.609375 C 0.171875 -11.859375 0.222656 -12.03125 0.328125 -12.125 C 0.441406 -12.21875 0.640625 -12.265625 0.921875 -12.265625 Z M 5.515625 -5.875 C 6.628906 -5.875 7.46875 -6.070312 8.03125 -6.46875 C 8.59375 -6.875 8.875 -7.53125 8.875 -8.4375 C 8.875 -10.125 7.753906 -10.96875 5.515625 -10.96875 L 3.28125 -10.96875 L 3.28125 -5.875 Z M 5.515625 -5.875 "/></g></g></g><g fill="#2a7f4a" fill-opacity="1"><g transform="translate(299.462302, 210.039761)"><g><path d="M 12.765625 -6.125 C 12.765625 -4.914062 12.519531 -3.820312 12.03125 -2.84375 C 11.539062 -1.875 10.835938 -1.113281 9.921875 -0.5625 C 9.015625 -0.0078125 7.976562 0.265625 6.8125 0.265625 C 5.625 0.265625 4.578125 -0.00390625 3.671875 -0.546875 C 2.765625 -1.097656 2.066406 -1.859375 1.578125 -2.828125 C 1.085938 -3.804688 0.84375 -4.90625 0.84375 -6.125 C 0.84375 -7.34375 1.085938 -8.4375 1.578125 -9.40625 C 2.078125 -10.375 2.78125 -11.132812 3.6875 -11.6875 C 4.601562 -12.25 5.644531 -12.53125 6.8125 -12.53125 C 8 -12.53125 9.046875 -12.253906 9.953125 -11.703125 C 10.859375 -11.160156 11.550781 -10.398438 12.03125 -9.421875 C 12.519531 -8.453125 12.765625 -7.351562 12.765625 -6.125 Z M 11.25 -6.125 C 11.25 -7.125 11.066406 -8.007812 10.703125 -8.78125 C 10.347656 -9.5625 9.832031 -10.164062 9.15625 -10.59375 C 8.488281 -11.03125 7.707031 -11.25 6.8125 -11.25 C 5.914062 -11.25 5.128906 -11.035156 4.453125 -10.609375 C 3.785156 -10.179688 3.269531 -9.578125 2.90625 -8.796875 C 2.550781 -8.015625 2.375 -7.125 2.375 -6.125 C 2.375 -5.125 2.550781 -4.238281 2.90625 -3.46875 C 3.269531 -2.695312 3.785156 -2.09375 4.453125 -1.65625 C 5.128906 -1.21875 5.914062 -1 6.8125 -1 C 7.707031 -1 8.488281 -1.210938 9.15625 -1.640625 C 9.832031 -2.078125 10.347656 -2.679688 10.703125 -3.453125 C 11.066406 -4.234375 11.25 -5.125 11.25 -6.125 Z M 11.25 -6.125 "/></g></g></g><g fill="#2a7f4a" fill-opacity="1"><g transform="translate(320.425541, 210.039761)"><g><path d="M 1.359375 -12.3125 C 1.492188 -12.34375 1.6875 -12.359375 1.9375 -12.359375 C 2.1875 -12.359375 2.367188 -12.34375 2.484375 -12.3125 C 2.609375 -12.28125 2.691406 -12.21875 2.734375 -12.125 C 2.773438 -12.039062 2.796875 -11.90625 2.796875 -11.71875 L 2.796875 0.015625 C 2.660156 0.046875 2.46875 0.0625 2.21875 0.0625 C 1.96875 0.0625 1.78125 0.046875 1.65625 0.015625 C 1.539062 -0.015625 1.460938 -0.0703125 1.421875 -0.15625 C 1.378906 -0.25 1.359375 -0.390625 1.359375 -0.578125 Z M 1.359375 -12.3125 "/></g></g></g><g fill="#2a7f4a" fill-opacity="1"><g transform="translate(331.922762, 210.039761)"><g><path d="M 10.671875 -12.359375 C 10.921875 -12.359375 11.101562 -12.34375 11.21875 -12.3125 C 11.34375 -12.28125 11.425781 -12.21875 11.46875 -12.125 C 11.507812 -12.039062 11.53125 -11.90625 11.53125 -11.71875 L 11.53125 -1.203125 C 11.53125 -0.773438 11.414062 -0.453125 11.1875 -0.234375 C 10.96875 -0.0234375 10.6875 0.078125 10.34375 0.078125 C 10.101562 0.078125 9.882812 0.0546875 9.6875 0.015625 C 8.519531 -1.835938 7.316406 -3.664062 6.078125 -5.46875 C 4.835938 -7.28125 3.742188 -8.796875 2.796875 -10.015625 L 2.796875 0.015625 C 2.660156 0.046875 2.46875 0.0625 2.21875 0.0625 C 1.96875 0.0625 1.78125 0.046875 1.65625 0.015625 C 1.539062 -0.015625 1.460938 -0.0703125 1.421875 -0.15625 C 1.378906 -0.25 1.359375 -0.390625 1.359375 -0.578125 L 1.359375 -11.484375 L 0.78125 -12.359375 C 0.894531 -12.398438 1.035156 -12.429688 1.203125 -12.453125 C 1.367188 -12.484375 1.535156 -12.5 1.703125 -12.5 C 1.953125 -12.5 2.140625 -12.484375 2.265625 -12.453125 C 2.398438 -12.429688 2.523438 -12.367188 2.640625 -12.265625 C 2.753906 -12.171875 2.898438 -12.015625 3.078125 -11.796875 C 4.015625 -10.691406 5.125 -9.21875 6.40625 -7.375 C 7.6875 -5.539062 8.914062 -3.707031 10.09375 -1.875 L 10.09375 -12.3125 C 10.226562 -12.34375 10.421875 -12.359375 10.671875 -12.359375 Z M 10.671875 -12.359375 "/></g></g></g><g fill="#2a7f4a" fill-opacity="1"><g transform="translate(352.153902, 210.039761)"><g><path d="M 9.875 -12.265625 C 9.925781 -12.054688 9.953125 -11.851562 9.953125 -11.65625 C 9.953125 -11.414062 9.898438 -11.238281 9.796875 -11.125 C 9.703125 -11.019531 9.539062 -10.96875 9.3125 -10.96875 L 5.859375 -10.96875 L 5.859375 0.015625 C 5.722656 0.046875 5.53125 0.0625 5.28125 0.0625 C 5.03125 0.0625 4.84375 0.046875 4.71875 0.015625 C 4.601562 -0.015625 4.523438 -0.0703125 4.484375 -0.15625 C 4.441406 -0.25 4.421875 -0.390625 4.421875 -0.578125 L 4.421875 -10.96875 L 0.40625 -10.96875 C 0.363281 -11.175781 0.34375 -11.378906 0.34375 -11.578125 C 0.34375 -11.816406 0.390625 -11.988281 0.484375 -12.09375 C 0.578125 -12.207031 0.738281 -12.265625 0.96875 -12.265625 Z M 9.875 -12.265625 "/></g></g></g><g fill="#000000" fill-opacity="1"><g transform="translate(127.320421, 224.801293)"><g><path d="M 49.082031 6.160156 L 49.082031 5.839844 C 49.082031 5.839844 49.019531 5.839844 49.019531 5.777344 C 48.953125 5.777344 48.953125 5.777344 48.953125 5.714844 L 48.828125 5.714844 C 48.765625 5.652344 48.765625 5.652344 48.699219 5.652344 L 48.445312 5.652344 C 48.382812 5.652344 48.257812 5.652344 48.191406 5.714844 C 48.066406 5.714844 48.066406 5.777344 48.066406 5.839844 L 47.621094 5.839844 C 47.429688 5.777344 47.238281 5.777344 46.984375 5.777344 C 41.96875 5.332031 36.382812 5.144531 30.796875 5.015625 C 30.414062 5.015625 29.96875 4.953125 29.589844 4.953125 C 28.574219 4.890625 27.558594 4.890625 26.539062 4.890625 L 23.113281 4.761719 L 19.621094 4.761719 C 18.539062 4.761719 17.523438 4.890625 16.507812 4.953125 L 15.492188 4.953125 C 15.046875 4.953125 14.605469 4.890625 14.097656 4.890625 C 13.398438 4.890625 12.761719 4.824219 12.0625 4.824219 C 10.605469 4.761719 9.144531 4.824219 7.683594 4.890625 C 6.160156 4.890625 4.636719 4.953125 3.175781 4.953125 L 1.078125 4.953125 C 0.699219 5.015625 0.382812 5.078125 0.0625 5.078125 C -0.316406 5.144531 -0.636719 5.144531 -1.144531 5.144531 L -1.207031 5.144531 C -1.398438 5.144531 -1.585938 5.144531 -1.714844 5.207031 C -1.714844 5.144531 -1.777344 5.144531 -1.90625 5.144531 C -2.09375 5.207031 -2.285156 5.207031 -2.476562 5.332031 L -2.667969 5.652344 L -2.667969 5.839844 C -2.667969 5.90625 -2.601562 5.96875 -2.601562 6.03125 C -2.476562 6.222656 -2.285156 6.347656 -2.09375 6.476562 C -1.90625 6.601562 -1.714844 6.730469 -1.523438 6.792969 C -1.144531 6.984375 -0.699219 7.113281 -0.253906 7.175781 C 0.128906 7.300781 0.570312 7.367188 0.953125 7.429688 C 1.777344 7.554688 2.667969 7.621094 3.554688 7.621094 C 4.445312 7.683594 5.332031 7.683594 6.160156 7.683594 L 10.921875 7.683594 C 11.367188 7.683594 13.144531 7.554688 13.015625 7.429688 L 17.96875 7.429688 C 18.984375 7.429688 19.875 7.367188 20.890625 7.300781 C 21.269531 7.300781 21.589844 7.367188 21.96875 7.429688 L 23.367188 7.429688 C 24.320312 7.429688 25.144531 7.429688 26.03125 7.367188 C 26.414062 7.300781 26.605469 7.238281 26.605469 7.175781 C 27.238281 7.175781 27.8125 7.113281 28.382812 7.113281 C 28.636719 7.113281 28.890625 7.175781 29.082031 7.175781 C 29.589844 7.175781 30.160156 7.113281 30.667969 7.175781 C 31.429688 7.175781 32.761719 7.113281 33.589844 7.046875 C 34.605469 7.046875 35.429688 7.113281 36.382812 7.113281 L 40.066406 6.984375 C 40.828125 6.984375 41.015625 6.792969 41.015625 6.667969 L 41.589844 6.667969 C 41.589844 6.667969 41.652344 6.730469 41.84375 6.730469 C 42.476562 6.730469 43.050781 6.730469 43.621094 6.792969 C 44.191406 6.792969 44.828125 6.730469 45.527344 6.730469 C 46.035156 6.730469 46.605469 6.730469 47.175781 6.667969 C 47.429688 6.667969 47.683594 6.601562 48.003906 6.601562 C 48.128906 6.539062 48.257812 6.539062 48.382812 6.539062 C 48.511719 6.476562 48.574219 6.476562 48.636719 6.476562 C 48.636719 6.476562 48.699219 6.476562 48.765625 6.414062 C 48.765625 6.414062 48.828125 6.414062 48.890625 6.347656 C 48.953125 6.347656 48.953125 6.347656 48.953125 6.285156 C 48.953125 6.285156 49.019531 6.285156 49.019531 6.222656 C 49.019531 6.222656 49.082031 6.222656 49.082031 6.160156 Z M 49.082031 6.160156 "/></g></g></g></svg>