<svg xmlns="http://www.w3.org/2000/svg" xmlns:xlink="http://www.w3.org/1999/xlink" id="Camada_1" x="0px" y="0px" viewBox="0 0 120 27.8" style="enable-background:new 0 0 120 27.8;" xml:space="preserve">
<style type="text/css">
	.st0{fill:url(#SVGID_1_);}
	.st1{fill:url(#SVGID_2_);}
	.st2{fill:url(#SVGID_3_);}
	.st3{fill:#00A995;}
	.st4{fill:#006699;}
	.st5{fill:#00386C;}
</style>
<g>
	
		<linearGradient id="SVGID_1_" gradientUnits="userSpaceOnUse" x1="11.4928" y1="11.2503" x2="28.7583" y2="11.2503" gradientTransform="matrix(1 0 0 -1 0 30.3962)">
		<stop offset="0" style="stop-color:#4FBFA5"></stop>
		<stop offset="1.607003e-02" style="stop-color:#3EBAA2"></stop>
		<stop offset="4.403860e-02" style="stop-color:#27B49D"></stop>
		<stop offset="7.654151e-02" style="stop-color:#16AF9A"></stop>
		<stop offset="0.1158" style="stop-color:#09AB97"></stop>
		<stop offset="0.1689" style="stop-color:#02A996"></stop>
		<stop offset="0.2959" style="stop-color:#00A995"></stop>
		<stop offset="1" style="stop-color:#007570"></stop>
	</linearGradient>
	<path class="st0" d="M25.8,21.6H11.5v-1.9c0-1.6,1.3-2.9,2.9-2.9h14.4v1.9C28.8,20.3,27.5,21.6,25.8,21.6z"></path>
	
		<linearGradient id="SVGID_2_" gradientUnits="userSpaceOnUse" x1="20.1256" y1="2.6058" x2="20.1256" y2="19.8712" gradientTransform="matrix(1 0 0 -1 0 30.3962)">
		<stop offset="0" style="stop-color:#007570"></stop>
		<stop offset="0.7041" style="stop-color:#00A995"></stop>
		<stop offset="0.8311" style="stop-color:#02A996"></stop>
		<stop offset="0.8842" style="stop-color:#09AB97"></stop>
		<stop offset="0.9235" style="stop-color:#16AF9A"></stop>
		<stop offset="0.956" style="stop-color:#27B49D"></stop>
		<stop offset="0.9839" style="stop-color:#3EBAA2"></stop>
		<stop offset="1" style="stop-color:#4FBFA5"></stop>
	</linearGradient>
	<path class="st1" d="M17.7,27.8V13.4c0-1.6,1.3-2.9,2.9-2.9h1.9v14.4c0,1.6-1.3,2.9-2.9,2.9H17.7z"></path>
	
		<linearGradient id="SVGID_3_" gradientUnits="userSpaceOnUse" x1="0" y1="17.2375" x2="40.8618" y2="17.2375" gradientTransform="matrix(1 0 0 -1 0 30.3962)">
		<stop offset="0" style="stop-color:#00386C"></stop>
		<stop offset="0.7041" style="stop-color:#007DB0"></stop>
		<stop offset="0.8558" style="stop-color:#007EB2"></stop>
		<stop offset="0.9193" style="stop-color:#0081B9"></stop>
		<stop offset="0.9661" style="stop-color:#0088C6"></stop>
		<stop offset="1" style="stop-color:#008FD5"></stop>
	</linearGradient>
	<path class="st2" d="M10.6,26.3c-1.7-1-3.3-2.1-4.8-3.4c-0.7-0.6-1.4-1.4-2.1-2.1c-0.6-0.8-1.2-1.6-1.8-2.5l-0.4-0.7L1.3,17   c-0.2-0.5-0.4-1-0.6-1.4c-0.3-1-0.5-2-0.6-3c-0.2-2.1,0.1-4.2,1-6.2l0.4-0.7l0.4-0.7l0,0l0-0.1L2,4.7l0.1-0.2l0.2-0.3   C2.5,4,2.7,3.8,2.9,3.6c0.7-0.8,1.6-1.5,2.5-2c0.9-0.5,1.9-0.9,3-1.2S10.5,0,11.6,0c0.3,0,0.5,0,0.8,0l0.8,0.1   c0.3,0,0.6,0.1,0.8,0.1c0.3,0.1,0.5,0.1,0.8,0.2c1,0.3,2,0.7,3,1.2c1.9,1,3.5,2.4,4.8,4.1l-1.9-0.1c0.7-0.7,1.5-1.3,2.4-1.8   c0.8-0.5,1.7-0.9,2.7-1.2c1.9-0.6,3.9-0.8,5.8-0.5c0.2,0,0.5,0.1,0.7,0.1c0.2,0,0.5,0.1,0.7,0.2l0.4,0.1l0,0l0,0l0.1,0l0.1,0   l0.2,0.1l0.3,0.1l0.2,0.1l0.2,0.1c0.2,0.1,0.5,0.2,0.7,0.3l0.6,0.4c0.4,0.3,0.8,0.6,1.2,0.9c1.5,1.3,2.7,2.9,3.3,4.8   c0.3,0.9,0.5,1.9,0.6,2.9l0,0.7V13v0.1v0l0,0.2l0,0.3c-0.1,0.5-0.2,1-0.3,1.4c-0.3,0.9-0.6,1.8-1.1,2.6s-1,1.6-1.6,2.3   c-1.2,1.4-2.7,2.5-4.2,3.5c-1.5,1-3.1,1.8-4.7,2.5c1.5-1,3-2,4.4-3.1c1.4-1.1,2.7-2.3,3.7-3.7c0.5-0.7,1-1.4,1.3-2.2   c0.4-0.8,0.6-1.6,0.8-2.4c0.1-0.4,0.1-0.8,0.2-1.2l0-0.3l0-0.2v0v0c0,0,0,0,0,0v0v-0.1l0-0.6c-0.1-0.8-0.3-1.6-0.6-2.3   c-0.3-0.7-0.7-1.4-1.2-2.1c-0.5-0.6-1.1-1.2-1.7-1.7c-0.3-0.2-0.6-0.5-1-0.7l-0.5-0.3L33.6,5l-0.1-0.1l-0.2-0.1L33,4.8l-0.2-0.1   l-0.1,0h0c0,0,0,0,0,0h0l0,0l-0.3-0.1c-0.2,0-0.4-0.1-0.6-0.1c-0.2,0-0.4-0.1-0.6-0.1c-1.6-0.2-3.2,0-4.7,0.5   c-0.8,0.3-1.5,0.6-2.2,1S23,6.9,22.5,7.4l-1,1l-0.9-1.1c-1.1-1.4-2.5-2.6-4-3.4c-0.8-0.4-1.6-0.8-2.4-1c-0.2-0.1-0.4-0.1-0.6-0.2   c-0.2,0-0.4-0.1-0.6-0.1l-0.7-0.1c-0.2,0-0.4,0-0.6,0c-1.7-0.1-3.5,0.4-5,1.2C5.8,4,5,4.5,4.4,5.1L4,5.5L3.6,6L3.2,6.6L2.9,7.1   C2.5,7.9,2.2,8.8,2,9.6c-0.2,0.9-0.2,1.8-0.2,2.7c0,0.9,0.2,1.8,0.4,2.7c0.1,0.5,0.2,0.9,0.4,1.3L2.8,17l0.3,0.6   c0.4,0.8,0.9,1.7,1.4,2.4c0.5,0.8,1.2,1.5,1.8,2.2C7.6,23.8,9.1,25.1,10.6,26.3z"></path>
</g>
<g>
	<path class="st3" d="M48.1,17.5V7h4.1c3.3,0,5.6,2.1,5.6,5.2c0,3.2-2.3,5.3-5.6,5.3H48.1z M55.6,12.2c0-1.8-1.1-3.3-3.3-3.3h-1.9   v6.6h1.9C54.4,15.5,55.6,14,55.6,12.2z"></path>
	<path class="st3" d="M59.4,17.5V9.9h2v1c0.6-0.7,1.5-1.2,2.4-1.2v2c-0.1,0-0.3,0-0.6,0c-0.7,0-1.5,0.4-1.9,0.9v5L59.4,17.5   L59.4,17.5z"></path>
	<path class="st3" d="M70.2,17.5v-1c-0.5,0.6-1.4,1.2-2.7,1.2c-1.7,0-2.5-0.9-2.5-2.4V9.9h2v4.6c0,1.1,0.6,1.4,1.4,1.4   c0.8,0,1.4-0.4,1.7-0.9V9.9h2v7.6H70.2z"></path>
	<path class="st3" d="M74,19.4l0.9-1.4c0.6,0.7,1.4,0.9,2.4,0.9c1,0,2.1-0.4,2.1-2v-0.7c-0.6,0.8-1.4,1.2-2.4,1.2   c-1.9,0-3.4-1.3-3.4-3.9c0-2.5,1.4-3.9,3.4-3.9c0.9,0,1.7,0.4,2.4,1.2v-1h2V17c0,2.9-2.2,3.6-4.1,3.6C76,20.6,75,20.3,74,19.4z    M79.4,14.8v-2.5c-0.3-0.5-1.1-0.8-1.7-0.8c-1.2,0-1.9,0.8-1.9,2.1s0.8,2.1,1.9,2.1C78.4,15.7,79.1,15.3,79.4,14.8z"></path>
	<path class="st4" d="M82.8,16l1.2-1.7c0.7,0.8,1.9,1.4,3.3,1.4c1.2,0,1.8-0.6,1.8-1.2c0-1.8-6-0.6-6-4.5c0-1.7,1.5-3.2,4-3.2   c1.7,0,3.1,0.5,4.1,1.5L89.9,10c-0.8-0.8-2-1.2-3.1-1.2c-0.9,0-1.5,0.4-1.5,1c0,1.6,6,0.5,6,4.5c0,1.9-1.4,3.4-4.2,3.4   C85.2,17.7,83.7,17,82.8,16z"></path>
	<path class="st4" d="M93.1,15.6v-3.9h-1.3V9.9h1.3V7.8h2v2.1h1.5v1.7h-1.5V15c0,0.5,0.2,0.8,0.7,0.8c0.3,0,0.6-0.1,0.7-0.2l0.4,1.5   c-0.3,0.3-0.8,0.5-1.7,0.5C93.8,17.7,93.1,16.9,93.1,15.6z"></path>
	<path class="st4" d="M97.5,13.7c0-2.2,1.5-4,4-4c2.5,0,4,1.8,4,4s-1.5,4-4,4C99,17.7,97.5,15.8,97.5,13.7z M103.5,13.7   c0-1.2-0.7-2.2-2-2.2c-1.2,0-1.9,1-1.9,2.2c0,1.2,0.7,2.2,1.9,2.2C102.8,15.9,103.5,14.9,103.5,13.7z"></path>
	<path class="st4" d="M107.1,17.5V9.9h2v1c0.6-0.7,1.5-1.2,2.4-1.2v2c-0.1,0-0.3,0-0.6,0c-0.7,0-1.5,0.4-1.9,0.9v5L107.1,17.5   L107.1,17.5z"></path>
	<path class="st4" d="M112.2,13.7c0-2.2,1.6-4,3.9-4c2.3,0,3.8,1.7,3.8,4.2v0.5h-5.7c0.1,0.9,0.9,1.7,2.2,1.7c0.6,0,1.5-0.3,2-0.7   l0.9,1.3c-0.8,0.7-2,1.1-3.1,1.1C114,17.7,112.2,16.1,112.2,13.7z M116.2,11.3c-1.2,0-1.8,0.9-1.9,1.6h3.7   C118,12.2,117.5,11.3,116.2,11.3z"></path>
</g>
<g>
	<path class="st5" d="M56,25v-2.6h-0.6V22H56v-1h0.4v1h0.8v0.4h-0.8V25c0,0.3,0.1,0.5,0.4,0.5c0.2,0,0.3-0.1,0.4-0.2l0.2,0.3   c-0.1,0.1-0.3,0.2-0.6,0.2C56.2,25.8,56,25.5,56,25z"></path>
	<path class="st5" d="M61.9,25.7v-0.4c-0.3,0.4-0.7,0.5-1.2,0.5c-0.6,0-1.3-0.4-1.3-1.2c0-0.8,0.6-1.2,1.3-1.2   c0.5,0,0.9,0.2,1.2,0.5v-0.8c0-0.6-0.4-0.8-1-0.8c-0.5,0-0.8,0.2-1.2,0.5l-0.2-0.3c0.4-0.4,0.8-0.6,1.4-0.6c0.8,0,1.3,0.4,1.3,1.2   v2.6L61.9,25.7L61.9,25.7z M61.9,25v-0.8c-0.3-0.3-0.7-0.5-1.1-0.5c-0.6,0-1,0.4-1,0.9c0,0.5,0.4,0.9,1,0.9   C61.2,25.5,61.6,25.3,61.9,25z"></path>
	<path class="st5" d="M65,26.7l0.2-0.3c0.3,0.4,0.7,0.5,1.2,0.5c0.7,0,1.2-0.3,1.2-1.2v-0.6c-0.3,0.4-0.7,0.7-1.3,0.7   c-1,0-1.6-0.7-1.6-1.9c0-1.2,0.7-1.9,1.6-1.9c0.5,0,1,0.3,1.3,0.7V22h0.4v3.7c0,1.1-0.8,1.5-1.7,1.5C65.9,27.2,65.5,27.1,65,26.7z    M67.7,24.8V23c-0.2-0.4-0.7-0.7-1.2-0.7c-0.8,0-1.3,0.7-1.3,1.6c0,0.9,0.5,1.6,1.3,1.6C67,25.4,67.5,25.1,67.7,24.8z"></path>
	<path class="st5" d="M70.9,25.7v-5.1h0.4v5.1H70.9z"></path>
	<path class="st5" d="M74,21.2c0-0.2,0.1-0.3,0.3-0.3s0.3,0.1,0.3,0.3s-0.1,0.3-0.3,0.3C74.1,21.5,74,21.3,74,21.2z M74.1,25.7V22   h0.4v3.7H74.1z"></path>
	<path class="st5" d="M79.7,25.7v-2.5c0-0.7-0.4-0.9-0.9-0.9c-0.5,0-1,0.3-1.2,0.6v2.8h-0.4v-3.7h0.4v0.6c0.3-0.3,0.8-0.6,1.3-0.6   c0.8,0,1.2,0.4,1.2,1.2v2.6L79.7,25.7L79.7,25.7z"></path>
	<path class="st5" d="M82.7,23.9c0-1.1,0.8-1.9,1.8-1.9c1.1,0,1.7,0.9,1.7,2V24h-3.1c0,0.8,0.6,1.5,1.4,1.5c0.5,0,0.9-0.2,1.2-0.5   l0.2,0.3c-0.4,0.4-0.8,0.6-1.4,0.6C83.4,25.8,82.7,25,82.7,23.9z M84.4,22.3c-0.9,0-1.3,0.8-1.3,1.4h2.7   C85.8,23.1,85.4,22.3,84.4,22.3z"></path>
	<path class="st5" d="M94.7,25.7v-2.5c0-0.7-0.4-0.9-0.9-0.9c-0.5,0-1,0.3-1.2,0.6v2.8h-0.4v-5.1h0.4v2c0.3-0.3,0.8-0.6,1.3-0.6   c0.8,0,1.2,0.4,1.2,1.2v2.6L94.7,25.7L94.7,25.7z"></path>
	<path class="st5" d="M97.7,23.9c0-1.1,0.8-1.9,1.8-1.9c1.1,0,1.7,0.9,1.7,2V24h-3.1c0,0.8,0.6,1.5,1.4,1.5c0.5,0,0.9-0.2,1.2-0.5   l0.2,0.3c-0.4,0.4-0.8,0.6-1.4,0.6C98.5,25.8,97.7,25,97.7,23.9z M99.5,22.3c-0.9,0-1.3,0.8-1.3,1.4h2.7   C100.8,23.1,100.4,22.3,99.5,22.3z"></path>
	<path class="st5" d="M103.8,25.7V22h0.4v0.6c0.3-0.4,0.7-0.7,1.2-0.7v0.4c-0.1,0-0.1,0-0.2,0c-0.4,0-0.9,0.3-1,0.7v2.7L103.8,25.7   L103.8,25.7z"></path>
	<path class="st5" d="M107.5,23.9c0-1.1,0.8-1.9,1.8-1.9c1.1,0,1.7,0.9,1.7,2V24h-3.1c0,0.8,0.6,1.5,1.4,1.5c0.5,0,0.9-0.2,1.2-0.5   l0.2,0.3c-0.4,0.4-0.8,0.6-1.4,0.6C108.3,25.8,107.5,25,107.5,23.9z M109.3,22.3c-0.9,0-1.3,0.8-1.3,1.4h2.7   C110.6,23.1,110.2,22.3,109.3,22.3z"></path>
</g>
</svg>