<svg xmlns="http://www.w3.org/2000/svg" width="181" height="42" viewBox="0 0 181 42" fill="none"><g clip-path="url(#clip0_1_2269)"><path fill-rule="evenodd" clip-rule="evenodd" d="M25.7531 23.5062C26.9629 17.9753 28.3457 18.1481 29.7284 23.5062C28.3457 23.3333 26.9629 23.3333 25.7531 23.5062ZM27.6543 0C16.074 0 6.56787 9.33333 6.56787 21.0864C6.56787 23.3333 6.91355 25.5802 7.60491 27.6543C11.4074 25.9259 15.5555 24.716 19.5308 24.0247C19.358 23.1605 19.358 22.2963 19.1852 21.2593C19.0123 18.321 16.074 11.9259 17.2839 8.46914C18.4938 5.18519 22.1234 5.35802 24.1975 6.22222C25.4074 6.74074 26.4444 7.08642 27.6543 7.08642C26.0987 8.12346 24.5432 8.81481 22.2963 8.98765C27.6543 9.33333 30.2469 5.7037 33.5308 5.87654C35.2592 5.87654 37.1605 6.5679 37.8518 8.64198C39.0617 11.9259 36.1234 18.4938 35.9506 21.4321C35.9506 22.2963 35.7778 23.1605 35.6049 24.1975C39.7531 24.8889 43.7284 26.0988 47.5308 27.8272C48.2222 25.7531 48.5679 23.5062 48.5679 21.2593C48.7407 9.33333 39.2345 0 27.6543 0Z" fill="#242424"></path><path fill-rule="evenodd" clip-rule="evenodd" d="M0 33.3578C3.11111 32.6664 6.22222 31.9751 9.33333 31.4566C12.963 37.8516 19.7037 42.1726 27.6543 42.1726C31.4568 42.1726 34.9136 41.1356 38.0247 39.4072L45.8025 41.6541C46.4938 41.8269 47.1852 41.6541 47.7037 41.1356C48.2222 40.6171 48.3951 39.9257 48.2222 39.2343V39.0615L45.9753 31.4566C49.0864 31.9751 52.1975 32.6664 55.3086 33.3578C38.5432 21.9504 16.7654 21.9504 0 33.3578Z" fill="#C80007"></path><path fill-rule="evenodd" clip-rule="evenodd" d="M109.926 13.8271V27.6543H107.333V13.8271H109.926ZM102.84 23.3333C102.148 23.1605 101.457 23.1605 100.765 23.1605C99.5556 23.1605 98.8642 23.5062 98.8642 24.3704C98.8642 25.2346 99.3827 25.7531 100.42 25.7531C101.284 25.7531 101.975 25.4074 102.84 24.8889V23.3333ZM96.4445 24.3704C96.4445 22.2963 97.8272 21.4321 100.765 21.4321C101.457 21.4321 102.148 21.4321 102.84 21.6049V20.9136C102.84 20.0494 102.148 19.5309 100.938 19.5309C99.9013 19.5309 98.6914 19.7037 97.3087 20.0494V17.9753C98.6914 17.6296 99.9013 17.4568 100.938 17.4568C103.877 17.4568 105.432 18.4938 105.432 20.7407V27.6543H103.877L103.012 26.7901C102.148 27.3086 101.111 27.6543 100.074 27.6543C97.6543 27.6543 96.4445 26.6173 96.4445 24.3704ZM90.9136 15.9012H92.8148L93.1605 17.4568H95.7531V19.5309H93.5062V24.1975C93.5062 25.0617 93.8519 25.5802 94.7161 25.5802H95.7531V27.6543H93.5062C91.7778 27.6543 90.9136 26.7901 90.9136 24.8889V15.9012ZM80.0247 27.6543V17.6296H81.9259L82.2716 19.1852C83.3087 18.1481 84.3457 17.6296 85.5556 17.6296C87.9753 17.6296 89.1852 18.8395 89.1852 21.4321V27.6543H86.5926V21.2592C86.5926 20.2222 86.0741 19.5309 84.8642 19.5309C84 19.5309 83.3087 19.8765 82.4445 20.5679V27.6543H80.0247ZM71.7284 21.6049H76.0494C76.0494 20.2222 75.358 19.5309 73.9753 19.5309C72.5926 19.5309 71.9012 20.2222 71.7284 21.6049ZM73.9753 17.4568C77.0864 17.4568 78.642 19.0123 78.642 22.1234C78.642 22.4691 78.642 22.9876 78.4692 23.3333H71.7284C71.7284 24.716 72.7654 25.4074 74.8395 25.4074C75.8766 25.4074 76.9136 25.2346 77.9506 25.0617V27.1358C77.0864 27.4815 76.0494 27.6543 74.6667 27.6543C71.0371 27.6543 69.1358 25.9259 69.1358 22.4691C69.3087 19.1852 70.8642 17.4568 73.9753 17.4568ZM56.1729 27.6543V13.8271H61.5309C66.0247 13.8271 68.2716 16.0741 68.2716 20.3951C68.2716 25.2346 66.0247 27.6543 61.5309 27.6543H56.1729ZM61.5309 25.4074C64.2963 25.4074 65.8519 23.679 65.8519 20.3951C65.8519 17.4568 64.4691 16.0741 61.5309 16.0741H58.7654V25.4074H61.5309Z" fill="#242424"></path><path fill-rule="evenodd" clip-rule="evenodd" d="M175.605 15.9012H177.506L177.852 17.4568H180.444V19.5309H178.198V24.1975C178.198 25.0617 178.543 25.5802 179.407 25.5802H180.444V27.6543H178.025C176.296 27.6543 175.432 26.7901 175.432 24.8889V15.9012H175.605ZM173.877 13.8271V27.6543H171.284V13.8271H173.877ZM169.383 17.4568V27.6543H167.309L166.963 26.4444C165.926 27.1358 164.716 27.6543 163.333 27.6543C161.259 27.6543 160.222 26.4444 160.222 24.0247V17.6296H162.815V24.0247C162.815 25.0617 163.333 25.7531 164.198 25.7531C165.062 25.7531 165.926 25.4074 166.79 24.716V17.6296H169.383V17.4568ZM150.889 27.1358V25.0617C151.926 25.5802 153.309 25.7531 154.691 25.7531C155.728 25.7531 156.42 25.4074 156.42 24.716C156.42 24.0247 156.074 23.679 155.383 23.679H153.482C151.407 23.679 150.37 22.642 150.37 20.5679C150.37 18.4938 151.926 17.4568 154.864 17.4568C156.074 17.4568 157.284 17.6296 158.494 17.9753V20.0494C157.457 19.5309 156.074 19.358 154.864 19.358C153.482 19.358 152.79 19.7037 152.79 20.3951C152.79 21.0864 153.136 21.4321 154 21.4321H155.556C157.802 21.4321 158.84 22.4691 158.84 24.3704C158.84 26.4444 157.457 27.4815 154.519 27.4815C153.309 27.6543 152.099 27.4815 150.889 27.1358ZM139.827 27.6543V17.6296H141.728L142.074 19.1852C143.111 18.1481 144.148 17.6296 145.358 17.6296C147.778 17.6296 148.988 18.8395 148.988 21.4321V27.6543H146.395V21.2592C146.395 20.2222 145.877 19.5309 144.667 19.5309C143.802 19.5309 143.111 19.8765 142.247 20.5679V27.6543H139.827ZM128.42 22.4691C128.42 19.0123 130.148 17.4568 133.432 17.4568C136.716 17.4568 138.444 19.1852 138.444 22.4691C138.444 25.9259 136.716 27.4815 133.432 27.4815C130.148 27.6543 128.42 25.9259 128.42 22.4691ZM131.012 22.4691C131.012 24.5432 131.877 25.5802 133.432 25.5802C134.988 25.5802 135.852 24.5432 135.852 22.4691C135.852 20.395 134.988 19.358 133.432 19.358C131.877 19.358 131.012 20.395 131.012 22.4691ZM127.21 26.963C126.173 27.4815 124.79 27.6543 123.235 27.6543C118.222 27.6543 115.802 25.2346 115.802 20.5679C115.802 16.0741 118.395 13.8271 123.235 13.8271C124.79 13.8271 126 14 127.21 14.5185V16.7654C126 16.2469 124.79 16.0741 123.407 16.0741C120.123 16.0741 118.395 17.6296 118.395 20.5679C118.395 23.8518 120.123 25.5802 123.407 25.5802C124.79 25.5802 126 25.4074 127.21 24.8889V26.963Z" fill="#C80007"></path><path fill-rule="evenodd" clip-rule="evenodd" d="M137.062 30.2471V30.5927H135.679V31.2841H136.889V31.8026H135.679V32.494H137.062V32.8397H135.161V30.2471H137.062ZM131.358 32.8397V30.2471H132.568C133.086 30.2471 133.432 30.4199 133.432 30.9384C133.432 31.2841 133.259 31.4569 132.741 31.8026L133.605 33.0125H132.914L132.049 31.8026V31.6298C132.568 31.6298 132.741 31.2841 132.741 31.1113C132.741 30.9384 132.568 30.7656 132.395 30.7656H131.704V32.8397H131.358ZM129.457 30.2471V30.5927H128.074V31.2841H129.284V31.8026H128.074V32.494H129.457V32.8397H127.556V30.2471H129.457ZM123.407 32.8397V30.2471H123.926V31.2841H125.309V30.2471H125.827V32.8397H125.309V31.8026H123.926V32.8397H123.407ZM118.222 32.8397V30.2471H118.741L120.123 32.1483V30.2471H120.642V32.8397H120.123L118.741 30.9384V32.8397H118.222ZM114.074 32.8397H113.556L114.593 30.2471H115.111L116.321 32.8397H115.802L115.457 32.1483H114.593L114.765 31.8026H115.284L114.938 30.7656L114.074 32.8397ZM111.827 32.6668C111.654 32.8397 111.482 32.8397 111.136 32.8397C110.272 32.8397 109.753 32.3211 109.753 31.4569C109.753 30.5927 110.272 30.0742 111.136 30.0742C111.482 30.0742 111.654 30.0742 111.827 30.2471V30.7656C111.654 30.5927 111.309 30.5927 111.136 30.5927C110.444 30.5927 110.272 30.9384 110.272 31.4569C110.272 32.1483 110.617 32.3211 111.136 32.3211C111.309 32.3211 111.309 32.3211 111.481 32.3211V31.6298H112V32.6668H111.827ZM105.259 31.4569C105.259 30.5927 105.778 30.0742 106.642 30.0742C107.506 30.0742 108.025 30.5927 108.025 31.4569C108.025 32.3211 107.506 32.8397 106.642 32.8397C105.778 32.8397 105.259 32.3211 105.259 31.4569ZM105.778 31.4569C105.778 32.1483 106.123 32.3211 106.642 32.3211C107.161 32.3211 107.506 31.9755 107.506 31.4569C107.506 30.9384 107.161 30.5927 106.642 30.5927C106.123 30.5927 105.778 30.9384 105.778 31.4569ZM102.667 30.2471V32.494H103.704V32.8397H102.148V30.2471H102.667ZM98.3457 32.6668V32.1483C98.6914 32.3211 98.8642 32.3211 99.2099 32.3211C99.5556 32.3211 99.7284 32.1483 99.7284 31.9755C99.7284 31.8026 99.5556 31.6298 99.3827 31.6298H99.037C98.5185 31.6298 98.1729 31.4569 98.1729 30.9384C98.1729 30.4199 98.5185 30.0742 99.3827 30.0742C99.7284 30.0742 99.9012 30.0742 100.247 30.2471V30.7656C99.9012 30.5927 99.7284 30.5927 99.3827 30.5927C98.8642 30.5927 98.6914 30.7656 98.6914 30.9384C98.6914 31.1113 98.8642 31.2841 99.037 31.2841H99.3827C99.9012 31.2841 100.247 31.4569 100.247 31.9755C100.247 32.494 99.9013 32.8397 99.2099 32.8397C98.8642 32.8397 98.5185 32.8397 98.3457 32.6668Z" fill="#C80007"></path></g><defs><clipPath id="clip0_1_2269"><rect width="180.444" height="42" fill="white"></rect></clipPath></defs></svg>