<svg xmlns="http://www.w3.org/2000/svg" width="177" height="45" viewBox="0 0 177 45" fill="none"><g clip-path="url(#clip0_1_2183)"><path d="M37.1127 15.4227H29.5775V7.88747C29.5775 4.01423 26.4085 0.845215 22.5352 0.845215C18.5916 0.845215 15.4226 4.01423 15.4226 7.95789V15.4227H7.88735C4.01411 15.4227 0.845093 18.5917 0.845093 22.5354C0.845093 26.4086 4.01411 29.5776 7.88735 29.5776H15.3521V37.0424C15.3521 40.9861 18.5211 44.1551 22.4648 44.1551C26.4085 44.1551 29.5775 40.9861 29.5775 37.0424V29.5776H37.0423C40.9859 29.5776 44.1549 26.4086 44.1549 22.4649C44.1549 18.5917 40.9859 15.4227 37.1127 15.4227Z" fill="#00A79D"></path><path d="M22.5352 45C18.169 45 14.6479 41.4789 14.6479 37.1127V30.4225H7.95775C3.52113 30.4225 0 26.831 0 22.5352C0 18.2394 3.52113 14.6479 7.88732 14.6479H14.5775V7.95775C14.5775 3.52113 18.169 0 22.5352 0C26.9014 0 30.4225 3.52113 30.4225 7.88732V14.5775H37.1127C41.4789 14.5775 45 18.0986 45 22.4648C45 26.831 41.4789 30.3521 37.1127 30.3521H30.4225V37.0423C30.4225 41.4789 26.831 45 22.5352 45ZM7.88732 16.1972C4.43662 16.1972 1.61972 19.0141 1.61972 22.4648C1.61972 25.9155 4.43662 28.7324 7.88732 28.7324H16.1972V37.0423C16.1972 40.493 19.0141 43.3099 22.4648 43.3099C25.9155 43.3099 28.7324 40.493 28.7324 37.0423V28.8028H37.0423C40.493 28.8028 43.3099 25.9859 43.3099 22.5352C43.3099 19.0845 40.493 16.2676 37.0423 16.2676H28.8028V7.88732C28.8028 4.43662 25.9859 1.61972 22.5352 1.61972C19.0845 1.61972 16.2676 4.43662 16.2676 7.88732V16.1972H7.88732Z" fill="black"></path><path d="M22.4648 15.4224C18.5211 15.4224 15.3521 18.5914 15.3521 22.535C15.3521 26.4787 18.5211 29.6477 22.4648 29.6477H29.5775V15.4224H22.4648Z" fill="white"></path><path d="M44.1549 22.535C44.1549 18.5914 40.9859 15.4224 37.0422 15.4224H29.5775V29.5773H37.0422C40.9859 29.5773 44.1549 26.4083 44.1549 22.535Z" fill="#FBB040"></path><path d="M24.1549 27.3239C20.2113 27.3239 17.0423 24.1549 17.0423 20.2113C17.0423 19.0845 17.3239 18.0986 17.7465 17.1831C16.2676 18.4507 15.3521 20.3521 15.3521 22.5352C15.3521 26.4789 18.5211 29.6479 22.4648 29.6479H29.5775V27.3944H24.1549V27.3239Z" fill="#E6E7E8"></path><path d="M31.338 27.3241H29.5775V29.5777H37.0422C39.8591 29.5777 42.3239 27.8875 43.4507 25.4932C42.1831 26.6199 40.5634 27.2537 38.8028 27.2537H31.338V27.3241Z" fill="#D99937"></path><path d="M41.831 22.5352C41.4789 22.5352 41.1268 22.2535 41.0564 21.9014C40.9859 21.4789 40.8451 21.0564 40.6338 20.7042C40.4226 20.3521 40.5634 19.9296 40.8451 19.7183C41.2676 19.4366 41.831 19.5775 42.0423 20C42.324 20.493 42.4648 21.0564 42.6057 21.6197C42.6761 22.0423 42.324 22.5352 41.831 22.5352Z" fill="#FECD8A"></path><path d="M39.8592 18.662C39.6479 18.9437 39.2254 19.0846 38.8732 18.9437C38.3099 18.662 37.7465 18.5212 37.1127 18.5212H31.9014C31.4789 18.5212 31.0563 18.1691 31.0563 17.6761C31.0563 17.2536 31.4084 16.8311 31.9014 16.8311H37.1127C37.9577 16.8311 38.8028 17.0423 39.5775 17.3944C40 17.6761 40.1408 18.2395 39.8592 18.662Z" fill="#FECD8A"></path><path d="M27.4648 18.5212H23.2394C22.8169 18.5212 22.3943 18.1691 22.3943 17.6761C22.3943 17.2536 22.7465 16.8311 23.2394 16.8311H27.4648C27.8873 16.8311 28.3098 17.1832 28.3098 17.6761C28.2394 18.1691 27.8873 18.5212 27.4648 18.5212Z" fill="#E6E7E8"></path><path d="M37.1127 14.5776H22.4648C18.0986 14.5776 14.5775 18.0988 14.5775 22.465C14.5775 26.8312 18.0986 30.3523 22.4648 30.3523H37.1127C41.4789 30.3523 45 26.8312 45 22.465C45 18.0988 41.4789 14.5776 37.1127 14.5776ZM16.1267 22.5354C16.1267 19.0847 18.9436 16.2678 22.3944 16.2678H28.7324V28.8734H22.3944C19.0141 28.803 16.1267 25.9861 16.1267 22.5354ZM37.1127 28.803H30.4225V16.1974H37.1127C40.5634 16.1974 43.3803 19.0143 43.3803 22.465C43.3803 25.9157 40.5634 28.803 37.1127 28.803Z" fill="black"></path><path d="M59.2958 16.0562C63.0282 16.0562 65.1409 17.8871 65.1409 21.1266C65.1409 24.5069 63.0282 26.4787 59.2958 26.4787H56.3381V30.6336H53.0282V16.0562H59.2958ZM56.3381 23.7322H59.0845C60.9155 23.7322 61.9719 22.8871 61.9719 21.197C61.9719 19.5773 60.9155 18.7322 59.0845 18.7322H56.3381V23.7322Z" fill="black"></path><path d="M77.1831 30.704V24.9294H70.5634V30.704H67.2535V16.0562H70.5634V22.1829H77.1831V16.0562H80.493V30.704H77.1831Z" fill="black"></path><path d="M86.6198 27.8871L85.493 30.704H82.1127L88.4508 16.0562H91.831L98.0986 30.704H94.5775L93.4508 27.8871H86.6198ZM90.0001 19.5069L87.6761 25.2111H92.324L90.0001 19.5069Z" fill="black"></path><path d="M106.268 26.5491H105.986H102.958V30.704H99.6479V16.0562H105.986C109.789 16.0562 111.972 17.8871 111.972 21.1266C111.972 23.3801 110.986 24.9998 109.225 25.8449L112.324 30.704H108.592L106.268 26.5491ZM105.986 23.7322C107.817 23.7322 108.873 22.8871 108.873 21.197C108.873 19.5773 107.817 18.7322 105.986 18.7322H102.958V23.6618H105.986V23.7322Z" fill="black"></path><path d="M127.676 30.704V20.8449L123.803 29.2252H121.62L117.747 20.8449V30.704H114.789V16.0562H118.521L122.817 24.9998L127.042 16.0562H130.704V30.704H127.676Z" fill="black"></path><path d="M136.761 27.8871L135.634 30.704H132.254L138.592 16.0562H141.972L148.239 30.704H144.718L143.592 27.8871H136.761ZM140.211 19.5069L137.887 25.2111H142.535L140.211 19.5069Z" fill="black"></path><path d="M161.901 18.3802L160 20.7041C159.014 19.5774 157.535 18.8027 156.197 18.8027C153.662 18.8027 151.761 20.7746 151.761 23.3098C151.761 25.845 153.732 27.8168 156.197 27.8168C157.535 27.8168 158.944 27.1126 160 26.1267L161.972 28.2394C160.423 29.8591 158.169 30.845 156.056 30.845C151.69 30.845 148.38 27.6056 148.38 23.3802C148.38 19.1549 151.761 15.9858 156.197 15.9858C158.239 15.9858 160.493 16.9013 161.901 18.3802Z" fill="black"></path><path d="M170.986 30.704H167.676V26.0562L162.254 16.0562H165.563L169.296 22.6054L172.958 16.0562H176.268L170.916 25.9857V30.704H170.986Z" fill="black"></path><path d="M56.3381 34.2253L56.0564 34.8591C55.6338 34.5774 55.1409 34.507 54.7888 34.507C54.3662 34.507 54.0845 34.6478 54.0845 34.9295C54.0845 35.845 56.4085 35.352 56.4085 36.9013C56.4085 37.676 55.7043 38.1689 54.7888 38.1689C54.0845 38.1689 53.4507 37.8872 53.0282 37.4647L53.3099 36.8309C53.7324 37.2534 54.2958 37.4647 54.7888 37.4647C55.2817 37.4647 55.5634 37.2534 55.5634 36.9717C55.5634 35.9858 53.2395 36.5492 53.2395 34.9999C53.2395 34.2957 53.8733 33.8027 54.7888 33.8027C55.4226 33.8027 55.9859 34.014 56.3381 34.2253Z" fill="black"></path><path d="M61.0564 37.4647V38.0985H58.4507V33.8027H59.155V37.3943H61.0564V37.4647Z" fill="black"></path><path d="M67.1127 35.9858C67.1127 37.183 66.1268 38.1689 64.8592 38.1689C63.5916 38.1689 62.6057 37.2534 62.6057 35.9858C62.6057 34.7886 63.5916 33.8027 64.8592 33.8027C66.1268 33.8027 67.1127 34.7182 67.1127 35.9858ZM63.3099 35.9858C63.3099 36.8309 64.0141 37.5351 64.8592 37.5351C65.7042 37.5351 66.4085 36.8309 66.4085 35.9858C66.4085 35.1408 65.7042 34.507 64.8592 34.507C64.0141 34.4365 63.3099 35.1408 63.3099 35.9858Z" fill="black"></path><path d="M72.5352 35.9859V37.5352C72.1127 37.8873 71.4789 38.0986 70.8451 38.0986C69.5775 38.0986 68.5916 37.1831 68.5916 35.9155C68.5916 34.7183 69.5775 33.7324 70.9155 33.7324C71.5493 33.7324 72.1127 33.9437 72.5352 34.2958L72.1127 34.8592C71.7606 34.5775 71.338 34.3662 70.8451 34.3662C70 34.3662 69.2958 35 69.2958 35.9155C69.2958 36.7606 70 37.4648 70.8451 37.4648C71.1972 37.4648 71.5493 37.324 71.831 37.1831V35.9859H72.5352Z" fill="black"></path><path d="M75.3521 37.1126L74.9296 38.0985H74.155L76.0564 33.8027H76.7606L78.662 38.0985H77.8874L77.4648 37.1126H75.3521ZM76.4085 34.5774L75.6338 36.4788H77.2536L76.4085 34.5774Z" fill="black"></path><path d="M83.4507 38.0985L81.1972 34.9999V38.0985H80.493V33.8027H81.1972L83.5211 36.9013V33.8027H84.2254V38.0985H83.4507Z" fill="black"></path><path d="M92.8873 35.9859V37.5352C92.4648 37.8873 91.831 38.0986 91.1972 38.0986C89.9296 38.0986 88.9437 37.1831 88.9437 35.9155C88.9437 34.7183 89.9296 33.7324 91.2676 33.7324C91.9014 33.7324 92.4648 33.9437 92.8873 34.2958L92.4648 34.8592C92.1127 34.5775 91.6901 34.3662 91.1972 34.3662C90.3521 34.3662 89.6479 35 89.6479 35.9155C89.6479 36.7606 90.3521 37.4648 91.1972 37.4648C91.5493 37.4648 91.9014 37.324 92.1831 37.1831V35.9859H92.8873Z" fill="black"></path><path d="M99.2958 35.9858C99.2958 37.183 98.3099 38.1689 97.0423 38.1689C95.7747 38.1689 94.7888 37.2534 94.7888 35.9858C94.7888 34.7886 95.7747 33.8027 97.0423 33.8027C98.3099 33.8027 99.2958 34.7182 99.2958 35.9858ZM95.493 35.9858C95.493 36.8309 96.1972 37.5351 97.0423 37.5351C97.8873 37.5351 98.5916 36.8309 98.5916 35.9858C98.5916 35.1408 97.8873 34.507 97.0423 34.507C96.1972 34.4365 95.493 35.1408 95.493 35.9858Z" fill="black"></path><path d="M101.972 34.507V35.6337H104.085V36.2675H101.972V37.4647H104.366V38.0985H101.268V33.8027H104.296V34.507H101.972Z" fill="black"></path><path d="M109.366 34.2254L109.085 34.8592C108.592 34.5775 108.169 34.4366 107.817 34.4366C107.394 34.4366 107.113 34.5775 107.113 34.8592C107.113 35.7747 109.437 35.2817 109.437 36.831C109.437 37.6057 108.732 38.0986 107.817 38.0986C107.113 38.0986 106.479 37.8169 106.056 37.3944L106.338 36.7606C106.761 37.1831 107.324 37.3944 107.817 37.3944C108.31 37.3944 108.592 37.1831 108.592 36.9014C108.592 35.9155 106.268 36.4789 106.268 34.9296C106.268 34.2254 106.901 33.7324 107.817 33.7324C108.451 33.8028 109.014 34.0141 109.366 34.2254Z" fill="black"></path><path d="M117.254 38.0985V36.3379H115V38.0985H114.296V33.8027H115V35.6337H117.254V33.8027H117.958V38.0985H117.254Z" fill="black"></path><path d="M121.056 34.507V35.6337H123.169V36.2675H121.056V37.4647H123.451V38.0985H120.352V33.8027H123.38V34.507H121.056Z" fill="black"></path><path d="M127.465 36.8309C127.394 36.8309 127.324 36.8309 127.254 36.8309H126.268V38.0985H125.563V33.8027H127.324C128.451 33.8027 129.014 34.3661 129.014 35.2816C129.014 35.9858 128.662 36.4788 128.099 36.6901L129.085 38.0985H128.239L127.465 36.8309ZM127.324 36.1971C127.958 36.1971 128.38 35.9154 128.38 35.352C128.38 34.7887 128.028 34.507 127.324 34.507H126.338V36.1971H127.324Z" fill="black"></path><path d="M131.901 34.507V35.6337H134.014V36.2675H131.901V37.4647H134.296V38.0985H131.197V33.8027H134.225V34.507H131.901Z" fill="black"></path></g><defs><clipPath id="clip0_1_2183"><rect width="176.268" height="45" fill="white"></rect></clipPath></defs></svg>