<svg xmlns="http://www.w3.org/2000/svg" width="157" height="58" viewBox="0 0 157 58" fill="none"><g clip-path="url(#clip0_1_2109)"><path d="M19.0531 3.82959C19.9629 10.8057 23.2046 16.2448 26.5318 21.6641C29.5732 26.6203 32.7525 31.5536 33.6984 37.3736C34.7921 44.1133 33.5539 50.3078 27.7733 54.8042C20.3176 60.6012 8.23084 58.2101 3.06769 50.0549C-0.627305 44.2217 -0.876923 38.0535 1.75392 31.7966C3.72458 27.1097 6.77912 23.0173 9.84022 18.9413C13.2889 14.3365 16.8689 9.79742 19.0531 3.82959ZM7.3309 41.8175C9.70556 41.8175 11.8339 41.8175 14.1527 41.8175C14.1527 44.0279 14.1527 46.0643 14.1527 48.1991C16.1562 48.1991 17.9561 48.1991 20.0581 48.1991C20.0581 45.9986 20.0581 43.9129 20.0581 41.6368C22.4722 41.6368 24.5874 41.6368 26.8077 41.6368C26.8306 39.6957 27.0343 37.955 26.6303 36.0171C24.4461 36.0171 22.3277 36.0171 19.9662 36.0171C19.9662 33.787 19.9662 31.7605 19.9662 29.6519C17.9035 29.468 16.0971 29.3793 14.0673 29.7209C14.0673 31.8065 14.0673 33.8428 14.0673 35.9022C11.6959 36.2832 9.45922 35.7412 7.3309 36.2569C7.3309 38.1126 7.3309 39.7943 7.3309 41.8175Z" fill="#40CF3B"></path><path d="M29.6323 57.6913C31.1661 55.448 32.9955 53.543 34.3323 51.2899C37.7284 45.5618 37.6923 39.6465 35.4852 33.5572C33.5999 28.3546 30.6472 23.6874 27.8193 18.9545C25.2935 14.7274 22.6955 10.5332 21.7332 5.64924C21.3588 3.7574 21.2931 1.8787 22.0058 0C22.8171 4.43728 25.4348 7.90237 28.2298 11.2755C32.8642 16.8722 38.0799 22.0485 41.407 28.5747C47.1121 39.7681 43.2463 51.349 31.9215 56.7716C31.1825 57.1296 30.3976 57.3891 29.6323 57.6913Z" fill="#2AA5F7"></path><path d="M7.33093 41.8175C7.33093 39.7943 7.33093 38.1159 7.33093 36.2569C9.45925 35.7413 11.696 36.2832 14.0673 35.9022C14.0673 33.8396 14.0673 31.8065 14.0673 29.7209C16.0971 29.3793 17.9036 29.468 19.9662 29.6519C19.9662 31.7605 19.9662 33.787 19.9662 36.0172C22.3277 36.0172 24.4495 36.0172 26.6303 36.0172C27.0343 37.955 26.8307 39.6957 26.8077 41.6368C24.5874 41.6368 22.4722 41.6368 20.0582 41.6368C20.0582 43.913 20.0582 45.9986 20.0582 48.1992C17.9561 48.1992 16.1562 48.1992 14.1527 48.1992C14.1527 46.0643 14.1527 44.0279 14.1527 41.8175C11.8339 41.8175 9.70559 41.8175 7.33093 41.8175Z" fill="#FEFEFE"></path><path d="M61.9578 25.001C63.0515 25.8287 63.7347 26.9487 64.0007 28.3643H60.5422C60.3123 27.8815 59.9642 27.4939 59.4912 27.2082C59.0215 26.9224 58.4533 26.7779 57.7898 26.7779C56.7585 26.7779 55.9309 27.1261 55.3068 27.8191C54.6828 28.5121 54.3707 29.4514 54.3707 30.6371C54.3707 31.9246 54.6992 32.91 55.3561 33.5964C56.013 34.2829 56.9457 34.6277 58.1544 34.6277C58.9295 34.6277 59.6127 34.4142 60.1973 33.9873C60.782 33.5603 61.1958 32.9527 61.4389 32.1644H57.3136V29.816H64.1715V33.0446C63.9153 33.8329 63.5081 34.5653 62.9497 35.2419C62.3881 35.9185 61.6721 36.4637 60.8017 36.8841C59.928 37.3045 58.9328 37.5147 57.8128 37.5147C56.4498 37.5147 55.2608 37.2257 54.2394 36.6444C53.2212 36.0663 52.4329 35.2518 51.8811 34.2073C51.3261 33.1629 51.0502 31.9739 51.0502 30.6338C51.0502 29.2971 51.3261 28.1048 51.8811 27.0604C52.4362 26.0159 53.2179 25.2047 54.2295 24.6233C55.2411 24.0452 56.4235 23.7529 57.7734 23.7529C59.4682 23.7595 60.8641 24.1733 61.9578 25.001Z" fill="black"></path><path d="M73.8311 27.2642C74.6653 27.7043 75.3222 28.3382 75.7985 29.1659C76.2747 29.9936 76.5145 30.9625 76.5145 32.0693C76.5145 33.1762 76.2747 34.1451 75.7985 34.9728C75.3222 35.8004 74.6653 36.4343 73.8311 36.8745C72.9968 37.3146 72.0509 37.5346 70.9933 37.5346C69.9357 37.5346 68.9865 37.3146 68.1457 36.8745C67.3049 36.4343 66.6447 35.8004 66.1685 34.9728C65.6922 34.1451 65.4525 33.1762 65.4525 32.0693C65.4525 30.9625 65.6922 29.9936 66.1685 29.1659C66.6447 28.3382 67.3049 27.7043 68.1457 27.2642C68.9865 26.8241 69.9357 26.604 70.9933 26.604C72.0509 26.604 72.9968 26.8241 73.8311 27.2642ZM69.4168 30.1118C68.9898 30.565 68.7763 31.2154 68.7763 32.0693C68.7763 32.9233 68.9898 33.5736 69.4168 34.017C69.8438 34.4637 70.3693 34.687 70.9933 34.687C71.6174 34.687 72.1396 34.4637 72.56 34.017C72.9804 33.5703 73.1906 32.9233 73.1906 32.0693C73.1906 31.2154 72.9804 30.565 72.56 30.1118C72.1396 29.6585 71.6174 29.4352 70.9933 29.4352C70.3693 29.4319 69.8438 29.6585 69.4168 30.1118Z" fill="black"></path><path d="M95.1208 27.8389C95.873 28.6469 96.2474 29.7702 96.2474 31.2121V37.3999H92.9991V31.5898C92.9991 30.9165 92.8184 30.3909 92.4539 30.0132C92.0893 29.6388 91.5966 29.4483 90.9726 29.4483C90.3223 29.4483 89.8099 29.6487 89.4355 30.0494C89.061 30.4501 88.8705 31.015 88.8705 31.7409V37.3967H85.6025V31.5898C85.6025 30.9165 85.4252 30.3909 85.0671 30.0132C84.7091 29.6388 84.2198 29.4483 83.5957 29.4483C82.9454 29.4483 82.4297 29.6454 82.0487 30.0395C81.6678 30.4336 81.4773 31.0019 81.4773 31.7409V37.3967H78.2092V26.7386H81.4773V28.5549C81.7564 27.9572 82.1867 27.4842 82.768 27.1426C83.3461 26.7978 84.026 26.627 84.8011 26.627C85.6156 26.627 86.3349 26.8142 86.959 27.1919C87.583 27.5663 88.0527 28.105 88.3713 28.8046C88.7392 28.1411 89.2482 27.6123 89.8887 27.2182C90.5325 26.824 91.2419 26.627 92.017 26.627C93.3374 26.6237 94.3687 27.0277 95.1208 27.8389Z" fill="black"></path><path d="M108.452 32.6604H101.062C101.102 33.4618 101.305 34.0399 101.673 34.388C102.041 34.7394 102.514 34.9135 103.086 34.9135C103.568 34.9135 103.969 34.792 104.288 34.5489C104.606 34.3059 104.817 33.9939 104.918 33.6129H108.377C108.236 34.365 107.93 35.035 107.461 35.6295C106.991 36.2207 106.39 36.6871 105.664 37.0254C104.938 37.3637 104.13 37.5312 103.237 37.5312C102.192 37.5312 101.266 37.3112 100.458 36.871C99.6501 36.4309 99.0162 35.797 98.5564 34.9693C98.0966 34.1417 97.8699 33.1728 97.8699 32.0659C97.8699 30.9459 98.0966 29.9737 98.5465 29.1526C98.9998 28.3315 99.6337 27.7009 100.448 27.2608C101.263 26.8206 102.192 26.6006 103.237 26.6006C104.294 26.6006 105.224 26.8174 106.025 27.2509C106.827 27.6845 107.447 28.2921 107.887 29.0738C108.328 29.8555 108.548 30.7587 108.548 31.7769C108.548 32.0495 108.518 32.3418 108.452 32.6604ZM104.682 29.711C104.294 29.3595 103.811 29.1854 103.24 29.1854C102.642 29.1854 102.143 29.3628 101.749 29.7208C101.355 30.0788 101.131 30.601 101.079 31.2875H105.244C105.257 30.5846 105.069 30.0591 104.682 29.711Z" fill="black"></path><path d="M116.401 27.159C116.985 27.5302 117.412 28.0327 117.682 28.6666V23.2637H120.95V37.3999H117.682V35.472C117.416 36.1091 116.989 36.6117 116.401 36.9795C115.816 37.3507 115.113 37.5346 114.299 37.5346C113.418 37.5346 112.633 37.3145 111.94 36.8744C111.247 36.4343 110.699 35.8004 110.298 34.9727C109.898 34.145 109.697 33.1761 109.697 32.0693C109.697 30.9493 109.898 29.9771 110.298 29.156C110.699 28.3349 111.247 27.7042 111.94 27.2641C112.633 26.824 113.422 26.604 114.299 26.604C115.113 26.604 115.813 26.7912 116.401 27.159ZM113.658 30.1577C113.231 30.6175 113.018 31.2547 113.018 32.0693C113.018 32.8838 113.231 33.521 113.658 33.9808C114.085 34.4406 114.647 34.6673 115.35 34.6673C116.036 34.6673 116.601 34.4308 117.041 33.9611C117.481 33.4914 117.701 32.8608 117.701 32.0693C117.701 31.2679 117.481 30.634 117.041 30.1676C116.601 29.7045 116.039 29.4713 115.35 29.4713C114.65 29.4713 114.085 29.7012 113.658 30.1577Z" fill="black"></path><path d="M123.429 22.5081C123.787 22.1829 124.257 22.022 124.842 22.022C125.426 22.022 125.899 22.1829 126.254 22.5081C126.612 22.8332 126.789 23.2438 126.789 23.7397C126.789 24.2225 126.612 24.6265 126.254 24.9517C125.896 25.2769 125.426 25.4378 124.842 25.4378C124.257 25.4378 123.784 25.2769 123.429 24.9517C123.071 24.6265 122.894 24.2225 122.894 23.7397C122.894 23.2438 123.071 22.8332 123.429 22.5081ZM126.468 26.7384V37.3965H123.2V26.7384H126.468Z" fill="black"></path><path d="M136.991 27.7436C137.92 28.5023 138.505 29.5434 138.748 30.8671H135.29C135.188 30.4073 134.978 30.0525 134.659 29.7963C134.34 29.5402 133.94 29.4154 133.457 29.4154C132.885 29.4154 132.412 29.642 132.045 30.0919C131.673 30.5452 131.49 31.2021 131.49 32.0692C131.49 32.9363 131.673 33.5932 132.045 34.0464C132.412 34.4997 132.885 34.723 133.457 34.723C133.94 34.723 134.34 34.5949 134.659 34.342C134.978 34.0858 135.188 33.7311 135.29 33.2713H138.748C138.505 34.5949 137.92 35.6361 136.991 36.3948C136.061 37.1535 134.909 37.5312 133.532 37.5312C132.488 37.5312 131.562 37.3112 130.754 36.871C129.946 36.4309 129.312 35.797 128.852 34.9693C128.392 34.1417 128.166 33.1728 128.166 32.0659C128.166 30.9459 128.392 29.9737 128.842 29.1526C129.296 28.3315 129.929 27.7009 130.744 27.2608C131.558 26.8206 132.488 26.6006 133.532 26.6006C134.909 26.6039 136.061 26.9849 136.991 27.7436Z" fill="black"></path><path d="M146.601 27.1589C147.186 27.5301 147.619 28.0326 147.899 28.6665V26.7385H151.147V37.3966H147.899V35.4686C147.619 36.1058 147.186 36.6083 146.601 36.9761C146.017 37.3473 145.314 37.5312 144.499 37.5312C143.619 37.5312 142.834 37.3112 142.141 36.871C141.448 36.4309 140.899 35.797 140.499 34.9693C140.098 34.1417 139.898 33.1728 139.898 32.0659C139.898 30.9459 140.098 29.9737 140.499 29.1526C140.899 28.3315 141.448 27.7009 142.141 27.2608C142.834 26.8206 143.622 26.6006 144.499 26.6006C145.314 26.6039 146.013 26.7911 146.601 27.1589ZM143.859 30.1576C143.432 30.6175 143.218 31.2546 143.218 32.0692C143.218 32.8837 143.432 33.5209 143.859 33.9807C144.286 34.4406 144.847 34.6672 145.55 34.6672C146.237 34.6672 146.802 34.4307 147.242 33.961C147.682 33.4913 147.902 32.8607 147.902 32.0692C147.902 31.2678 147.682 30.6339 147.242 30.1675C146.802 29.7044 146.24 29.4712 145.55 29.4712C144.847 29.4712 144.286 29.7011 143.859 30.1576Z" fill="black"></path><path d="M156.668 23.2637V37.3999H153.4V23.2637H156.668Z" fill="black"></path><path d="M79.0074 40.9926C79.5526 41.413 79.9204 41.9779 80.1109 42.6972H78.9581C78.8004 42.2899 78.5475 41.968 78.2027 41.7316C77.8578 41.4951 77.4341 41.3736 76.9316 41.3736C76.5309 41.3736 76.1762 41.4721 75.8609 41.6692C75.5456 41.8662 75.2992 42.1454 75.1186 42.51C74.9379 42.8746 74.846 43.3015 74.846 43.7909C74.846 44.2737 74.9379 44.6974 75.1186 45.062C75.2992 45.4266 75.5456 45.709 75.8609 45.9028C76.1762 46.0999 76.5309 46.1984 76.9316 46.1984C77.4341 46.1984 77.8578 46.0802 78.2027 45.8404C78.5475 45.6039 78.8004 45.282 78.9581 44.8846H80.1109C79.9204 45.6006 79.5526 46.1688 79.0074 46.5827C78.4621 46.9998 77.7757 47.2067 76.9513 47.2067C76.3174 47.2067 75.7558 47.0622 75.2664 46.7732C74.777 46.4842 74.3993 46.0802 74.1333 45.5645C73.8672 45.0489 73.7325 44.4544 73.7325 43.7909C73.7325 43.1242 73.8672 42.533 74.1333 42.0173C74.3993 41.5017 74.777 41.0944 75.2664 40.8021C75.7558 40.5098 76.3174 40.3652 76.9513 40.3652C77.7757 40.3652 78.4621 40.5722 79.0074 40.9926Z" fill="#2AA5F7"></path><path d="M82.2819 40.106V47.1511H81.1981V40.106H82.2819Z" fill="#2AA5F7"></path><path d="M83.6318 39.9253C83.7599 39.8037 83.9274 39.7446 84.1376 39.7446C84.3479 39.7446 84.5154 39.8037 84.6467 39.9253C84.7781 40.0468 84.8405 40.1979 84.8405 40.3818C84.8405 40.5657 84.7748 40.7135 84.6467 40.8285C84.5154 40.9435 84.3479 40.9993 84.1376 40.9993C83.9274 40.9993 83.7599 40.9435 83.6318 40.8285C83.5038 40.7135 83.4413 40.5657 83.4413 40.3818C83.4413 40.1979 83.507 40.0468 83.6318 39.9253ZM84.6796 41.9058V47.1511H83.5957V41.9058H84.6796Z" fill="#2AA5F7"></path><path d="M90.3912 42.4115C90.7591 42.8056 90.943 43.3673 90.943 44.0964V47.151H89.8591V44.2081C89.8591 43.7384 89.7376 43.3739 89.4979 43.1177C89.2581 42.8615 88.9264 42.7334 88.5092 42.7334C88.079 42.7334 87.7308 42.8713 87.4714 43.1472C87.2119 43.4231 87.0805 43.8271 87.0805 44.3625V47.151H85.9966V41.9057H87.0805V43.0585C87.2185 42.6644 87.4549 42.359 87.7834 42.1455C88.1118 41.9287 88.4928 41.8203 88.9264 41.8203C89.534 41.8203 90.0234 42.0174 90.3912 42.4115Z" fill="#2AA5F7"></path><path d="M92.247 39.9253C92.3751 39.8037 92.5426 39.7446 92.7528 39.7446C92.963 39.7446 93.1305 39.8037 93.2618 39.9253C93.3932 40.0468 93.4556 40.1979 93.4556 40.3818C93.4556 40.5657 93.3899 40.7135 93.2618 40.8285C93.1305 40.9435 92.963 40.9993 92.7528 40.9993C92.5426 40.9993 92.3751 40.9435 92.247 40.8285C92.1189 40.7135 92.0565 40.5657 92.0565 40.3818C92.0565 40.1979 92.1189 40.0468 92.247 39.9253ZM93.2947 41.9058V47.1511H92.2108V41.9058H93.2947Z" fill="#2AA5F7"></path><path d="M98.6253 42.3788C99.0687 42.7369 99.3446 43.2229 99.453 43.8404H98.3002C98.2378 43.512 98.0834 43.2525 97.8371 43.0653C97.594 42.8781 97.2853 42.7861 96.9174 42.7861C96.497 42.7861 96.1489 42.9339 95.8697 43.2295C95.5905 43.5251 95.4493 43.9587 95.4493 44.5302C95.4493 45.1017 95.5872 45.5352 95.8697 45.8341C96.1489 46.133 96.497 46.2808 96.9174 46.2808C97.2853 46.2808 97.5907 46.1855 97.8371 45.995C98.0801 45.8045 98.2345 45.545 98.3002 45.2133H99.453C99.3446 45.8275 99.0687 46.3169 98.6253 46.6782C98.1819 47.0395 97.6203 47.2201 96.9404 47.2201C96.4313 47.2201 95.9846 47.1117 95.5938 46.895C95.2029 46.6782 94.8975 46.3694 94.6741 45.9622C94.4508 45.5549 94.3424 45.0754 94.3424 44.5236C94.3424 43.9784 94.4541 43.5021 94.6741 43.0949C94.8975 42.6876 95.2029 42.3788 95.5938 42.1621C95.9846 41.9453 96.4313 41.8369 96.9404 41.8369C97.6203 41.8402 98.1819 42.0176 98.6253 42.3788Z" fill="#2AA5F7"></path><path d="M107.782 40.9926C108.328 41.413 108.695 41.9779 108.886 42.6972H107.733C107.575 42.2899 107.323 41.968 106.978 41.7316C106.633 41.4951 106.209 41.3736 105.707 41.3736C105.306 41.3736 104.951 41.4721 104.636 41.6692C104.321 41.8662 104.074 42.1454 103.894 42.51C103.713 42.8746 103.621 43.3015 103.621 43.7909C103.621 44.2737 103.713 44.6974 103.894 45.062C104.074 45.4266 104.321 45.709 104.636 45.9028C104.951 46.0999 105.306 46.1984 105.707 46.1984C106.209 46.1984 106.633 46.0802 106.978 45.8404C107.323 45.6039 107.575 45.282 107.733 44.8846H108.886C108.695 45.6006 108.328 46.1688 107.782 46.5827C107.237 46.9998 106.551 47.2067 105.726 47.2067C105.092 47.2067 104.531 47.0622 104.041 46.7732C103.552 46.4842 103.174 46.0802 102.908 45.5645C102.642 45.0489 102.508 44.4544 102.508 43.7909C102.508 43.1242 102.642 42.533 102.908 42.0173C103.174 41.5017 103.552 41.0944 104.041 40.8021C104.531 40.5098 105.092 40.3652 105.726 40.3652C106.551 40.3652 107.237 40.5722 107.782 40.9926Z" fill="#2AA5F7"></path><path d="M114.804 44.7436H110.768C110.788 45.2823 110.935 45.683 111.215 45.9425C111.494 46.2019 111.839 46.3333 112.252 46.3333C112.614 46.3333 112.919 46.2414 113.172 46.0574C113.422 45.8735 113.576 45.6304 113.635 45.325H114.798C114.729 45.6928 114.581 46.0213 114.361 46.307C114.138 46.5928 113.849 46.8161 113.494 46.9771C113.139 47.138 112.742 47.2201 112.305 47.2201C111.796 47.2201 111.349 47.1117 110.958 46.895C110.568 46.6782 110.262 46.3694 110.039 45.9622C109.815 45.5549 109.707 45.0754 109.707 44.5236C109.707 43.9784 109.819 43.5021 110.039 43.0949C110.262 42.6876 110.568 42.3788 110.958 42.1621C111.349 41.9453 111.796 41.8369 112.305 41.8369C112.821 41.8369 113.267 41.942 113.652 42.1555C114.036 42.369 114.332 42.6613 114.538 43.0324C114.745 43.4036 114.847 43.8174 114.847 44.274C114.844 44.4546 114.831 44.609 114.804 44.7436ZM113.573 43.3872C113.441 43.154 113.264 42.9832 113.041 42.8715C112.814 42.7598 112.571 42.704 112.302 42.704C111.878 42.704 111.52 42.8354 111.234 43.0949C110.949 43.3543 110.794 43.7386 110.768 44.2477H113.747C113.763 43.9061 113.704 43.6171 113.573 43.3872Z" fill="#2AA5F7"></path><path d="M120.29 42.4115C120.657 42.8056 120.841 43.3673 120.841 44.0964V47.151H119.757V44.2081C119.757 43.7384 119.636 43.3739 119.396 43.1177C119.156 42.8615 118.825 42.7334 118.408 42.7334C117.977 42.7334 117.629 42.8713 117.37 43.1472C117.11 43.4231 116.979 43.8271 116.979 44.3625V47.151H115.895V41.9057H116.979V43.0585C117.117 42.6644 117.353 42.359 117.682 42.1455C118.01 41.9287 118.391 41.8203 118.825 41.8203C119.432 41.8203 119.922 42.0174 120.29 42.4115Z" fill="#2AA5F7"></path><path d="M124.743 46.2086V47.1512H124.077C123.518 47.1512 123.094 47.0166 122.805 46.7472C122.516 46.4779 122.372 46.028 122.372 45.4006V42.8289H121.623V41.906H122.375V40.6021H123.469V41.906H124.733V42.8289H123.469V45.417C123.469 45.7159 123.525 45.9229 123.636 46.0345C123.748 46.1495 123.942 46.2053 124.221 46.2053H124.743V46.2086Z" fill="#2AA5F7"></path><path d="M130.596 44.7436H126.56C126.579 45.2823 126.727 45.683 127.006 45.9425C127.285 46.2019 127.63 46.3333 128.044 46.3333C128.405 46.3333 128.711 46.2414 128.964 46.0574C129.213 45.8735 129.368 45.6304 129.427 45.325H130.59C130.521 45.6928 130.373 46.0213 130.153 46.307C129.929 46.5928 129.64 46.8161 129.286 46.9771C128.931 47.138 128.533 47.2201 128.097 47.2201C127.588 47.2201 127.141 47.1117 126.75 46.895C126.359 46.6782 126.054 46.3694 125.83 45.9622C125.607 45.5549 125.499 45.0754 125.499 44.5236C125.499 43.9784 125.61 43.5021 125.83 43.0949C126.054 42.6876 126.359 42.3788 126.75 42.1621C127.141 41.9453 127.588 41.8369 128.097 41.8369C128.609 41.8369 129.059 41.942 129.443 42.1555C129.828 42.369 130.123 42.6613 130.33 43.0324C130.537 43.4036 130.639 43.8174 130.639 44.274C130.636 44.4546 130.622 44.609 130.596 44.7436ZM129.364 43.3872C129.233 43.154 129.056 42.9832 128.832 42.8715C128.606 42.7598 128.363 42.704 128.093 42.704C127.67 42.704 127.312 42.8354 127.026 43.0949C126.74 43.3543 126.586 43.7386 126.56 44.2477H129.539C129.555 43.9061 129.496 43.6171 129.364 43.3872Z" fill="#2AA5F7"></path><path d="M133.529 42.1192C133.858 41.9188 134.239 41.8203 134.672 41.8203V42.9994H134.347C133.871 42.9994 133.49 43.1144 133.201 43.3476C132.912 43.5808 132.767 43.9618 132.767 44.4938V47.151H131.683V41.9057H132.767V42.9337C132.945 42.5922 133.197 42.3195 133.529 42.1192Z" fill="#2AA5F7"></path></g><defs><clipPath id="clip0_1_2109"><rect width="156.668" height="58" fill="white"></rect></clipPath></defs></svg>