<svg xmlns="http://www.w3.org/2000/svg" width="118" height="45" viewBox="0 0 118 45" fill="none"><g clip-path="url(#clip0_1_2070)"><path fill-rule="evenodd" clip-rule="evenodd" d="M30.7081 43.0197C30.6706 43.2846 30.5833 43.5368 30.4711 43.7764C30.0844 44.508 29.3236 45.0124 28.463 45.0124H16.065C14.8177 45.0124 13.7949 43.9782 13.7949 42.717V31.0887H2.27005C1.02277 31.0887 0 30.0545 0 28.7933V16.2568C0 14.9956 1.02277 13.9614 2.27005 13.9614H11.6371C16.4267 14.0623 20.3307 14.2893 22.9999 14.5037C26.8664 14.819 30.3962 16.0298 24.2596 18.6784C18.572 21.1377 13.5081 23.2565 14.7928 31.0382C15.8779 37.5839 27.2032 41.1027 30.6457 41.5567L30.7081 43.0197Z" fill="#2ABAE8"></path><path fill-rule="evenodd" clip-rule="evenodd" d="M31.3192 19.1704C27.9141 23.1306 17.0254 25.363 32.2796 29.3988C36.2834 30.4582 40.6364 31.0636 42.2329 31.0636C43.4802 31.0636 44.503 30.0294 44.503 28.7682V16.2318C44.503 14.9706 43.4802 13.9364 42.2329 13.9364H30.733V2.2954C30.733 1.03419 29.7102 0 28.4629 0H16.065C14.8177 0 13.7949 1.03419 13.7949 2.2954V13.1544C19.1458 13.0157 24.7336 13.0661 28.4006 13.722C31.0074 14.2012 33.8138 16.2822 31.3192 19.1704Z" fill="#0F4C9A"></path><path d="M53.1467 35.213C53.1467 35.3265 53.1217 35.4274 53.0718 35.5283C53.022 35.6292 52.9471 35.7048 52.8473 35.7679C52.76 35.831 52.6602 35.8688 52.5605 35.8814C52.4607 35.9066 52.336 35.9066 52.1863 35.9066H51.625V33.4851H52.1863C52.2985 33.4851 52.3983 33.4851 52.4856 33.4977C52.5729 33.5103 52.6602 33.5482 52.7351 33.6112C52.8099 33.6617 52.8723 33.7373 52.9346 33.8256C52.9845 33.9139 53.0095 34.0148 53.0095 34.1283C53.0095 34.2292 52.9845 34.3175 52.9346 34.4058C52.8848 34.4815 52.8224 34.5571 52.7351 34.6202C52.8598 34.6706 52.9596 34.7463 53.022 34.8598C53.1093 34.9607 53.1467 35.0742 53.1467 35.213ZM52.785 34.1031C52.785 34.04 52.7725 33.977 52.7351 33.9139C52.6977 33.8509 52.6602 33.8004 52.5979 33.7752C52.548 33.7373 52.4856 33.7247 52.4233 33.7121C52.3609 33.7121 52.2861 33.6995 52.2112 33.6995H51.8745V34.5193H52.1988C52.2985 34.5193 52.3858 34.5067 52.4482 34.4941C52.4981 34.4815 52.548 34.4562 52.6104 34.431C52.6602 34.4058 52.7101 34.3553 52.7476 34.2923C52.76 34.2292 52.785 34.1662 52.785 34.1031ZM52.8972 35.2256C52.8972 35.1121 52.8723 35.0238 52.8224 34.9607C52.7725 34.885 52.6977 34.8346 52.6228 34.8094C52.548 34.7715 52.4482 34.7715 52.3609 34.7589C52.2611 34.7463 52.1987 34.7463 52.1738 34.7463H51.862V35.6922H52.2237C52.336 35.6922 52.4357 35.6796 52.4981 35.6796C52.5605 35.667 52.6228 35.6418 52.6852 35.6165C52.7476 35.5913 52.7974 35.5409 52.8349 35.4652C52.8848 35.3769 52.8972 35.3012 52.8972 35.2256ZM55.8533 35.9066H54.5436V33.4851H55.8533V33.6995H54.7806V34.5697H55.8159V34.7841H54.7806V35.6796H55.8533V35.9066ZM60.6553 35.2634C60.5555 35.4652 60.4059 35.6292 60.1938 35.7553C59.9943 35.8688 59.7822 35.9445 59.5577 35.9445C59.2085 35.9445 58.9091 35.8183 58.6597 35.5787C58.4227 35.3391 58.298 35.0364 58.298 34.6833C58.298 34.3301 58.4227 34.04 58.6597 33.813C58.9091 33.5608 59.196 33.4473 59.5328 33.4473C59.7573 33.4473 59.9943 33.5103 60.2063 33.6238C60.4183 33.75 60.568 33.9139 60.6428 34.1031H60.3684C60.2811 33.9644 60.1689 33.8635 60.0067 33.7878C59.8571 33.7121 59.6949 33.6743 59.5328 33.6743C59.2584 33.6743 59.0339 33.7752 58.8343 33.977C58.6347 34.1788 58.5349 34.4184 58.5349 34.6833C58.5349 34.9733 58.6472 35.213 58.8343 35.4148C59.0339 35.6165 59.2833 35.7174 59.5452 35.7174C59.7074 35.7174 59.8695 35.6796 60.0192 35.6039C60.1689 35.5283 60.2936 35.4148 60.3809 35.276H60.6553V35.2634ZM63.7361 34.2671C63.7361 34.4688 63.6613 34.6328 63.5241 34.7841C63.3869 34.9229 63.2122 34.9986 63.0252 34.9986L63.6987 35.9066H63.3993L62.5886 34.8094H62.7133C62.8381 34.8094 62.9129 34.8094 62.9877 34.7968C63.0501 34.7841 63.1125 34.7589 63.1998 34.7211C63.2871 34.6832 63.3619 34.6202 63.4118 34.5319C63.4742 34.4436 63.4991 34.3427 63.4991 34.2292C63.4991 34.1535 63.4866 34.0653 63.4368 33.9896C63.3993 33.9139 63.337 33.8509 63.2746 33.8004C63.1998 33.7626 63.1249 33.7247 63.0376 33.7121C62.9503 33.6995 62.8505 33.6869 62.7258 33.6869H62.3516V35.894H62.1146V33.4725H62.6884C62.8505 33.4725 62.9877 33.4725 63.075 33.4851C63.1748 33.4977 63.2746 33.5355 63.3869 33.5986C63.4991 33.6617 63.5864 33.75 63.6488 33.8635C63.6987 34.0022 63.7361 34.1283 63.7361 34.2671ZM66.4427 35.9066H65.1331V33.4851H66.4427V33.6995H65.37V34.5697H66.4053V34.7841H65.37V35.6796H66.4427V35.9066ZM70.0473 35.9066H69.7854L69.4362 35.0868H68.3136L67.9769 35.9066H67.7149L68.7502 33.4851H69.0246L69.7355 35.1625L70.0473 35.9066ZM69.3489 34.8724L68.8874 33.75L68.4259 34.8724H69.3489ZM72.2301 33.6995H71.6813V35.9066H71.4443V33.6995H70.8955V33.4851H72.2301V33.6995V33.6995ZM73.8017 35.9066H73.5647V33.4851H73.8017V35.9066ZM77.3814 33.4851L76.3835 35.9066H76.159L75.1737 33.4851H75.4356L76.2713 35.6165L77.1194 33.4851H77.3814ZM80.2252 35.9066H78.9155V33.4851H80.2252V33.6995H79.1525V34.5697H80.1877V34.7841H79.1525V35.6796H80.2252V35.9066ZM83.5055 35.0238H82.6324V34.8094H83.5055V35.0238ZM87.4843 35.213C87.4843 35.3265 87.4594 35.4274 87.4095 35.5283C87.3596 35.6292 87.2848 35.7048 87.1975 35.7679C87.0977 35.831 87.0104 35.8688 86.9106 35.8814C86.8108 35.9066 86.6861 35.9066 86.5364 35.9066H85.9751V33.4851H86.5364C86.6487 33.4851 86.7484 33.4851 86.8358 33.4977C86.9231 33.5103 87.0104 33.5482 87.0852 33.6112C87.1725 33.6617 87.2349 33.7373 87.2848 33.8256C87.3222 33.9139 87.3596 34.0148 87.3596 34.1283C87.3596 34.2292 87.3347 34.3175 87.2973 34.4058C87.2474 34.4815 87.1725 34.5571 87.0977 34.6202C87.2224 34.6706 87.3222 34.7463 87.397 34.8598C87.4469 34.9607 87.4843 35.0742 87.4843 35.213ZM87.1102 34.1031C87.1102 34.04 87.0977 33.977 87.0603 33.9139C87.0228 33.8509 86.9854 33.8004 86.9355 33.7752C86.8856 33.7373 86.8233 33.7247 86.7609 33.7121C86.6861 33.7121 86.6237 33.6995 86.5489 33.6995H86.2121V34.5193H86.5239C86.6362 34.5193 86.7235 34.5067 86.7734 34.4941C86.8358 34.4815 86.8856 34.4562 86.9355 34.431C86.973 34.4058 87.0228 34.3553 87.0603 34.2923C87.0977 34.2292 87.1102 34.1662 87.1102 34.1031ZM87.2349 35.2256C87.2349 35.1121 87.2099 35.0238 87.16 34.9607C87.1102 34.885 87.0353 34.8346 86.9605 34.8094C86.8856 34.7715 86.7983 34.7715 86.6985 34.7589C86.6112 34.7463 86.5489 34.7463 86.5239 34.7463H86.2121V35.6922H86.5614C86.6861 35.6922 86.7734 35.6796 86.8358 35.6796C86.8981 35.667 86.9605 35.6418 87.0228 35.6165C87.0727 35.5913 87.1351 35.5409 87.1725 35.4652C87.2099 35.3769 87.2349 35.3012 87.2349 35.2256ZM90.1909 35.9066H88.8813V33.4851H90.1909V33.6995H89.1183V34.5697H90.1535V34.7841H89.1183V35.6796H90.1909V35.9066ZM94.2571 35.213C94.2571 35.3265 94.2321 35.4274 94.1822 35.5283C94.1323 35.6292 94.0575 35.7048 93.9702 35.7679C93.8704 35.831 93.7831 35.8688 93.6833 35.8814C93.5835 35.9066 93.4588 35.9066 93.3091 35.9066H92.7479V33.4851H93.3091C93.4339 33.4851 93.5337 33.4851 93.6085 33.4977C93.6958 33.5103 93.7831 33.5482 93.8579 33.6112C93.9328 33.6617 94.0076 33.7373 94.0575 33.8256C94.1074 33.9139 94.1324 34.0148 94.1324 34.1283C94.1324 34.2292 94.1074 34.3175 94.0575 34.4058C94.0076 34.4815 93.9453 34.5571 93.8579 34.6202C93.9827 34.6706 94.0825 34.7463 94.1573 34.8598C94.2197 34.9607 94.2571 35.0742 94.2571 35.213ZM93.8829 34.1031C93.8829 34.04 93.8704 33.977 93.833 33.9139C93.7956 33.8509 93.7582 33.8004 93.7083 33.7752C93.6584 33.7373 93.596 33.7247 93.5212 33.7121C93.4588 33.7121 93.384 33.6995 93.3091 33.6995H92.9724V34.5193H93.2967C93.4089 34.5193 93.4838 34.5067 93.5461 34.4941C93.596 34.4815 93.6584 34.4562 93.7083 34.431C93.7582 34.4058 93.8081 34.3553 93.8455 34.2923C93.8704 34.2292 93.8829 34.1662 93.8829 34.1031ZM94.0076 35.2256C94.0076 35.1121 93.9827 35.0238 93.9328 34.9607C93.8829 34.885 93.8081 34.8346 93.7332 34.8094C93.6584 34.7715 93.5711 34.7715 93.4713 34.7589C93.384 34.7463 93.3091 34.7463 93.2842 34.7463H92.9724V35.6922H93.3341C93.4463 35.6922 93.5461 35.6796 93.6085 35.6796C93.6709 35.667 93.7332 35.6418 93.7956 35.6165C93.8579 35.5913 93.9078 35.5409 93.9453 35.4652C93.9952 35.3769 94.0076 35.3012 94.0076 35.2256ZM96.9637 35.9066H95.654V33.4851H96.9637V33.6995H95.891V34.5697H96.9263V34.7841H95.891V35.6796H96.9637V35.9066ZM100.568 35.9066H100.306L99.9572 35.0868H98.8346L98.4854 35.9066H98.2359L99.2587 33.4851H99.5206L100.232 35.1625L100.568 35.9066ZM99.8698 34.8724L99.4083 33.75L98.9469 34.8724H99.8698ZM103.537 34.9481C103.537 35.0868 103.524 35.2256 103.499 35.3265C103.474 35.4274 103.425 35.5409 103.35 35.6292C103.275 35.7301 103.188 35.7931 103.075 35.8562C102.963 35.9066 102.851 35.9318 102.726 35.9318C102.464 35.9318 102.277 35.8562 102.165 35.7174C102.04 35.5661 101.965 35.44 101.94 35.3265C101.915 35.2003 101.903 35.0742 101.903 34.9355V33.4599H102.14V34.9355C102.14 35.0364 102.152 35.1247 102.165 35.213C102.177 35.2886 102.215 35.3769 102.265 35.4526C102.315 35.5283 102.377 35.5787 102.452 35.6165C102.527 35.667 102.626 35.6922 102.726 35.6922C102.813 35.6922 102.888 35.6796 102.976 35.6292C103.05 35.5913 103.113 35.5409 103.175 35.4652C103.225 35.4021 103.275 35.3265 103.287 35.2382C103.3 35.1499 103.312 35.049 103.312 34.9355V33.4599H103.549V34.9481H103.537ZM106.206 33.6995H105.657V35.9066H105.42V33.6995H104.871V33.4851H106.206V33.6995V33.6995ZM107.765 35.9066H107.528V33.4851H107.765V35.9066ZM110.472 33.6995H109.499V34.5697H110.447V34.7968H109.499V35.9066H109.262V33.4851H110.472V33.6995ZM113.59 34.9481C113.59 35.0868 113.577 35.2256 113.553 35.3265C113.528 35.4274 113.49 35.5409 113.415 35.6292C113.34 35.7301 113.253 35.7931 113.141 35.8562C113.029 35.9066 112.904 35.9318 112.779 35.9318C112.517 35.9318 112.33 35.8562 112.218 35.7174C112.106 35.5661 112.031 35.44 112.006 35.3265C111.968 35.2003 111.956 35.0742 111.956 34.9355V33.4599H112.205V34.9355C112.205 35.0364 112.218 35.1247 112.23 35.213C112.255 35.2886 112.28 35.3769 112.33 35.4526C112.38 35.5283 112.442 35.5787 112.53 35.6165C112.617 35.667 112.704 35.6922 112.804 35.6922C112.891 35.6922 112.979 35.6796 113.054 35.6292C113.128 35.5913 113.203 35.5409 113.253 35.4652C113.316 35.4021 113.34 35.3265 113.365 35.2382C113.39 35.1499 113.39 35.049 113.39 34.9355V33.4599H113.64V34.9481H113.59ZM116.359 35.9066H115.124V33.4851H115.374V35.6922H116.359V35.9066Z" fill="#6E6C66"></path><path d="M51.625 31.0512V11.3637C51.625 10.7205 51.8495 10.1781 52.2861 9.73672C52.7226 9.29529 53.2714 9.06828 53.9075 9.06828H62.2019C64.5593 9.06828 66.318 9.58537 67.453 10.607C68.6379 11.6664 69.2241 13.2303 69.2241 15.2734C69.2241 16.6355 68.9248 17.758 68.3386 18.6535C67.8272 19.4985 67.0289 20.1165 65.9188 20.5075C66.8917 20.848 67.5653 21.3651 67.9519 22.0461C68.3261 22.6894 68.5631 23.774 68.6504 25.3127L68.7751 27.936C68.7751 28.1882 68.7751 28.4657 68.7751 28.7684C68.7751 29.0711 68.8001 29.3359 68.8375 29.6008C68.9622 30.3701 69.2117 30.862 69.5983 31.0764H64.6591C64.4471 30.6476 64.3223 30.2062 64.2724 29.7395C64.1976 29.0459 64.1477 28.5792 64.1477 28.327L64.0853 25.9559C63.998 24.6821 63.7486 23.7614 63.3245 23.2064C62.863 22.7398 62.0398 22.5002 60.8674 22.5002H56.1277V31.0764H51.625V31.0512ZM56.1277 18.6535H61.3787C62.5138 18.6535 63.3619 18.4138 63.9107 17.9472C64.4595 17.4806 64.7339 16.7491 64.7339 15.7653C64.7339 14.7816 64.4595 14.0627 63.9107 13.5834C63.4118 13.0663 62.651 12.8141 61.6407 12.8141H56.1277V18.6535ZM70.8581 14.0501H73.1406C73.7268 14.0501 74.2382 14.2645 74.6623 14.6933C75.0864 15.1221 75.2984 15.6266 75.2984 16.232V31.0638H70.8581V14.0501ZM70.8581 9.05566H73.1406C73.7268 9.05566 74.2382 9.27007 74.6623 9.69888C75.0864 10.1277 75.2984 10.6322 75.2984 11.2249V12.5618H70.8581V9.05566ZM104.223 25.8172H107.378C106.917 27.6081 106.031 28.9702 104.722 29.9035C103.412 30.8872 101.766 31.3791 99.795 31.3791C97.4002 31.3791 95.5168 30.5845 94.1573 29.008C92.7978 27.4693 92.1242 25.2874 92.1242 22.4245C92.1242 19.7003 92.7728 17.5688 94.0825 16.0428C95.442 14.4663 97.3129 13.6717 99.7077 13.6717C102.24 13.6717 104.198 14.441 105.582 15.9671C106.929 17.5436 107.603 19.7255 107.603 22.538C107.603 22.702 107.603 22.8533 107.603 22.9794C107.603 23.1056 107.603 23.1938 107.603 23.2317C107.603 23.4461 107.578 23.5974 107.541 23.6731H96.602C96.6394 24.9974 96.9637 25.9937 97.5499 26.6369C98.0987 27.318 98.9219 27.6711 100.02 27.6711C100.743 27.6711 101.342 27.5198 101.853 27.2171C101.978 27.1793 102.102 27.1036 102.202 26.9901C102.315 26.8892 102.427 26.7631 102.551 26.6369C102.589 26.5108 102.751 26.3343 103.025 26.1198C103.325 25.9181 103.711 25.8172 104.223 25.8172ZM96.6394 20.8101H103.088C103.001 19.6624 102.714 18.8174 102.202 18.2625C101.653 17.6697 100.88 17.367 99.8698 17.367C98.9469 17.367 98.186 17.6571 97.5998 18.2625C96.9886 18.8553 96.6768 19.7003 96.6394 20.8101ZM108.326 31.0512V22.8029C108.326 21.1381 108.563 19.7381 109.05 18.6156C109.536 17.4806 110.197 16.5725 111.045 15.8914C111.844 15.2482 112.792 14.7816 113.864 14.4789C114.937 14.1762 116.047 14.0374 117.182 14.0374C117.269 14.0374 117.369 14.0374 117.506 14.0374C117.631 14.0374 117.743 14.0374 117.818 14.0374V18.5904H116.359C115.137 18.5904 114.226 18.8931 113.64 19.4859C113.054 20.0786 112.754 21.0246 112.754 22.2984V31.0512H108.326Z" fill="#0F4C9A"></path><path d="M86.7983 31.1265H82.3081L76.4334 14.1128H81.1107L84.4659 26.0691L87.4344 15.6515C87.7712 14.6299 88.4447 14.1128 89.455 14.1128H92.7354L86.7983 31.1265Z" fill="#0F4C9A"></path></g><defs><clipPath id="clip0_1_2070"><rect width="117.818" height="45" fill="white"></rect></clipPath></defs></svg>