<svg xmlns="http://www.w3.org/2000/svg" width="159" height="50" viewBox="0 0 159 50" fill="none"><g clip-path="url(#clip0_1_2236)"><path d="M69.752 22.6213C69.849 22.6213 69.8975 22.6213 69.9946 22.6699C70.0916 22.7184 70.1401 22.767 70.1886 22.8155L71.4497 24.1262C70.9162 24.8544 70.1886 25.3883 69.364 25.7767C68.5394 26.165 67.5692 26.3107 66.4051 26.3107C65.3864 26.3107 64.4163 26.1165 63.6402 25.7767C62.8156 25.4369 62.1365 24.9514 61.5545 24.3204C60.9724 23.6893 60.5358 22.9611 60.2448 22.0874C59.9537 21.2136 59.8082 20.2912 59.8082 19.3204C59.8082 18.301 60.0023 17.3786 60.3418 16.5048C60.6813 15.631 61.1664 14.9029 61.797 14.3204C62.4276 13.6893 63.1552 13.2039 64.0283 12.8641C64.9014 12.5243 65.8715 12.3301 66.9387 12.3301C67.4722 12.3301 67.9573 12.3786 68.3938 12.4757C68.8304 12.5728 69.267 12.6699 69.655 12.8641C70.0431 13.0097 70.4311 13.2039 70.7221 13.4466C71.0617 13.6893 71.3527 13.932 71.5953 14.1747L70.5281 15.631C70.4796 15.7281 70.3826 15.7767 70.2856 15.8738C70.1886 15.9223 70.0431 15.9709 69.8975 15.9709C69.8005 15.9709 69.655 15.9223 69.558 15.8738C69.461 15.8252 69.364 15.7767 69.2185 15.6796C69.1214 15.631 68.9759 15.534 68.8304 15.4369C68.6849 15.3398 68.5394 15.2912 68.3453 15.1942C68.1513 15.1456 67.9573 15.0485 67.7148 15C67.4722 14.9514 67.1812 14.9029 66.8416 14.9029C66.2596 14.9029 65.726 15 65.2894 15.1942C64.8044 15.3883 64.4163 15.6796 64.0768 16.0679C63.7372 16.4563 63.4462 16.8932 63.3007 17.4272C63.1067 17.9611 63.0096 18.5922 63.0096 19.2233C63.0096 19.9029 63.1067 20.534 63.3007 21.0679C63.4947 21.6019 63.7372 22.0874 64.0768 22.4272C64.4163 22.8155 64.8044 23.0582 65.2409 23.2524C65.6775 23.4466 66.1626 23.5437 66.6476 23.5437C66.9387 23.5437 67.1812 23.5437 67.4237 23.4951C67.6662 23.4466 67.8603 23.398 68.1028 23.3495C68.2968 23.301 68.4909 23.2039 68.6849 23.0582C68.8789 22.9611 69.0729 22.8155 69.2185 22.6699C69.3155 22.6213 69.364 22.5728 69.461 22.5243C69.558 22.6213 69.655 22.6213 69.752 22.6213Z" fill="#004A63"></path><path d="M75.9123 12.0874V26.1165H73.002V12.0874H75.9123Z" fill="#004A63"></path><path d="M81.5876 13.7378C81.5876 13.9805 81.5391 14.1747 81.4421 14.3689C81.3451 14.563 81.1995 14.7572 81.054 14.9029C80.9085 15.0485 80.7145 15.1941 80.4719 15.2912C80.2779 15.3883 80.0354 15.4368 79.7929 15.4368C79.5503 15.4368 79.3563 15.3883 79.1138 15.2912C78.9198 15.1941 78.7257 15.097 78.5802 14.9029C78.4347 14.7572 78.2892 14.563 78.1922 14.3689C78.0951 14.1747 78.0466 13.932 78.0466 13.7378C78.0466 13.4951 78.0951 13.3009 78.1922 13.0582C78.2892 12.864 78.3862 12.6698 78.5802 12.5242C78.7257 12.3786 78.9198 12.233 79.1138 12.1359C79.3078 12.0388 79.5503 11.9902 79.7929 11.9902C80.0354 11.9902 80.2779 12.0388 80.4719 12.1359C80.666 12.233 80.86 12.33 81.054 12.5242C81.1995 12.6698 81.3451 12.864 81.4421 13.0582C81.5391 13.3009 81.5876 13.5436 81.5876 13.7378ZM81.2481 16.4077V26.1164H78.3377V16.4077H81.2481Z" fill="#004A63"></path><path d="M90.5613 18.7378C90.4643 18.8349 90.3673 18.9319 90.3188 18.9805C90.2217 19.029 90.1247 19.0776 89.9792 19.0776C89.8337 19.0776 89.6882 19.029 89.5912 18.9805C89.4942 18.9319 89.3486 18.8349 89.2031 18.7378C89.0576 18.6407 88.9121 18.5921 88.7181 18.4951C88.524 18.4465 88.2815 18.398 87.9905 18.398C87.6509 18.398 87.3114 18.4465 87.0688 18.5921C86.8263 18.7378 86.5838 18.9319 86.4383 19.1747C86.2927 19.4174 86.1472 19.7086 86.0502 20.0485C85.9532 20.3883 85.9047 20.7766 85.9047 21.262C85.9047 22.1844 86.0987 22.9125 86.4383 23.398C86.7778 23.8834 87.3114 24.1261 87.942 24.1261C88.2815 24.1261 88.524 24.0776 88.7666 23.9805C88.9606 23.8834 89.1546 23.7863 89.2516 23.6892C89.3971 23.5921 89.4942 23.4951 89.6397 23.398C89.7367 23.3009 89.8822 23.2523 90.0762 23.2523C90.3188 23.2523 90.4643 23.3494 90.6098 23.4951L91.4344 24.5145C91.1434 24.8543 90.8038 25.1455 90.4643 25.3397C90.1247 25.5339 89.7852 25.7281 89.4456 25.8252C89.1061 25.9708 88.7666 26.0193 88.3785 26.0679C88.039 26.1164 87.6994 26.1164 87.3599 26.1164C86.7778 26.1164 86.1957 26.0193 85.6622 25.7766C85.1286 25.5339 84.6435 25.2426 84.2555 24.8057C83.8674 24.3688 83.5279 23.8349 83.2853 23.2038C83.0428 22.5727 82.9458 21.8446 82.9458 21.0679C82.9458 20.3883 83.0428 19.7086 83.2368 19.1261C83.4309 18.4951 83.7704 18.0096 84.1585 17.5242C84.5465 17.0873 85.0801 16.7475 85.6622 16.4562C86.2442 16.2135 86.9718 16.0679 87.7479 16.0679C88.524 16.0679 89.1546 16.2135 89.7367 16.4562C90.3188 16.6989 90.8523 17.0387 91.2889 17.5242L90.5613 18.7378Z" fill="#004A63"></path><path d="M95.6059 12.0874V19.9515H96.0425C96.2365 19.9515 96.382 19.9029 96.479 19.8544C96.5761 19.8058 96.6731 19.7088 96.7701 19.5631L98.6133 16.8447C98.7103 16.6991 98.8559 16.5534 99.0014 16.5049C99.1469 16.4078 99.3409 16.4078 99.5835 16.4078H102.251L99.729 19.8544C99.632 20 99.4864 20.1457 99.3409 20.2913C99.1954 20.4369 99.0499 20.534 98.9044 20.6311C99.1954 20.8253 99.4379 21.1165 99.632 21.4563L102.348 26.1165H99.729C99.4864 26.1165 99.3409 26.068 99.1469 26.0194C99.0014 25.9709 98.8559 25.8253 98.7588 25.6311L96.9156 22.1845C96.8186 22.0389 96.7216 21.9418 96.6246 21.8932C96.5276 21.8447 96.382 21.8447 96.188 21.8447H95.6059V26.1651H92.6956V12.0874H95.6059Z" fill="#004A63"></path><path d="M114.426 20.6311C114.523 20.8738 114.669 21.1651 114.766 21.4078C114.863 21.1166 114.96 20.8738 115.105 20.5826C115.202 20.3399 115.348 20.0486 115.494 19.8059L118.986 12.9127C119.034 12.8156 119.131 12.7185 119.18 12.6214C119.229 12.5729 119.326 12.5243 119.423 12.4758C119.52 12.4272 119.617 12.4272 119.714 12.4272C119.811 12.4272 119.956 12.4272 120.053 12.4272H122.478V26.068H119.665V18.301C119.665 17.9127 119.665 17.5243 119.714 17.0874L116.076 24.1263C115.979 24.369 115.833 24.5146 115.639 24.6117C115.445 24.7088 115.251 24.7573 115.008 24.7573H114.572C114.329 24.7573 114.087 24.7088 113.941 24.6117C113.747 24.5146 113.602 24.3204 113.505 24.1263L109.867 17.0874C109.915 17.3302 109.915 17.5243 109.915 17.7185C109.915 17.9127 109.915 18.1554 109.915 18.301V26.1651H107.102V12.4758H109.527C109.673 12.4758 109.77 12.4758 109.867 12.4758C109.964 12.4758 110.061 12.4758 110.158 12.5243C110.255 12.5729 110.303 12.6214 110.4 12.67C110.449 12.7185 110.546 12.8156 110.594 12.9612L114.087 19.903C114.184 20.1457 114.329 20.3884 114.426 20.6311Z" fill="#004A63"></path><path d="M128.833 16.2622C129.463 16.2622 130.045 16.3593 130.579 16.5535C131.113 16.7476 131.549 17.0389 131.937 17.4273C132.325 17.8156 132.616 18.2525 132.859 18.835C133.053 19.369 133.198 20.0001 133.198 20.7282C133.198 20.9709 133.198 21.1166 133.15 21.2622C133.15 21.4078 133.101 21.5049 133.053 21.602C133.004 21.6991 132.956 21.7476 132.859 21.7476C132.762 21.7962 132.665 21.7962 132.519 21.7962H126.893C126.99 22.6214 127.232 23.204 127.62 23.5438C128.008 23.9321 128.542 24.0777 129.172 24.0777C129.512 24.0777 129.803 24.0292 130.045 23.9321C130.288 23.835 130.53 23.7379 130.676 23.6408C130.87 23.5438 131.064 23.4467 131.21 23.3496C131.355 23.2525 131.549 23.204 131.695 23.204C131.937 23.204 132.083 23.301 132.228 23.4467L133.053 24.4661C132.762 24.8059 132.422 25.0972 132.083 25.2913C131.743 25.4855 131.404 25.6797 131.016 25.7768C130.628 25.9224 130.288 25.9709 129.9 26.0195C129.512 26.068 129.172 26.068 128.833 26.068C128.154 26.068 127.523 25.9709 126.893 25.7282C126.31 25.4855 125.777 25.1942 125.34 24.7574C124.904 24.3205 124.564 23.7865 124.273 23.1069C124.031 22.4758 123.885 21.6991 123.885 20.8253C123.885 20.1942 123.982 19.5632 124.225 18.9807C124.467 18.3981 124.758 17.9127 125.195 17.4758C125.631 17.0389 126.116 16.6991 126.699 16.4564C127.426 16.4078 128.105 16.2622 128.833 16.2622ZM128.93 18.301C128.396 18.301 127.96 18.4467 127.62 18.7865C127.329 19.1263 127.087 19.5632 126.99 20.1457H130.628C130.628 19.903 130.579 19.7088 130.531 19.4661C130.482 19.2234 130.385 19.0292 130.239 18.8836C130.094 18.6894 129.948 18.5923 129.706 18.4467C129.463 18.3496 129.221 18.301 128.93 18.301Z" fill="#004A63"></path><path d="M141.687 26.1651C141.493 26.1651 141.347 26.1165 141.25 26.0194C141.105 25.9224 141.056 25.8253 141.008 25.6311L140.765 24.9029C140.571 25.0971 140.377 25.2913 140.135 25.4855C139.941 25.6311 139.698 25.7767 139.456 25.9224C139.213 26.068 138.922 26.1165 138.679 26.2136C138.388 26.2622 138.097 26.3107 137.758 26.3107C137.273 26.3107 136.788 26.2136 136.351 25.9709C135.915 25.7282 135.527 25.4369 135.236 25C134.945 24.5631 134.702 24.0777 134.508 23.4466C134.314 22.8156 134.217 22.1359 134.217 21.3592C134.217 20.6311 134.314 19.9515 134.508 19.3204C134.702 18.6893 134.993 18.1554 135.333 17.7185C135.672 17.2816 136.157 16.8932 136.642 16.6505C137.176 16.4078 137.709 16.2622 138.34 16.2622C138.825 16.2622 139.262 16.3592 139.601 16.5049C139.941 16.6505 140.28 16.8447 140.523 17.0874V12.0874H143.433V26.1165H141.687V26.1651ZM138.777 24.0777C138.971 24.0777 139.165 24.0777 139.359 24.0292C139.553 23.9806 139.698 23.9321 139.844 23.835C139.989 23.7379 140.135 23.6893 140.232 23.5437C140.377 23.4466 140.474 23.301 140.62 23.1554V19.0292C140.377 18.7864 140.135 18.5923 139.892 18.4952C139.65 18.3981 139.359 18.3495 139.068 18.3495C138.777 18.3495 138.534 18.3981 138.34 18.4952C138.097 18.5923 137.903 18.7864 137.758 19.0292C137.612 19.2719 137.467 19.5631 137.37 19.9515C137.273 20.3398 137.224 20.7767 137.224 21.3107C137.224 21.8447 137.273 22.233 137.321 22.6214C137.418 22.9612 137.515 23.2525 137.612 23.4466C137.758 23.6408 137.903 23.835 138.097 23.9321C138.34 24.0292 138.534 24.0777 138.777 24.0777Z" fill="#004A63"></path><path d="M149.108 13.7378C149.108 13.9805 149.06 14.1747 148.963 14.3689C148.866 14.563 148.72 14.7572 148.575 14.9029C148.429 15.0485 148.235 15.1941 147.993 15.2912C147.799 15.3883 147.556 15.4368 147.314 15.4368C147.071 15.4368 146.877 15.3883 146.635 15.2912C146.44 15.1941 146.246 15.097 146.101 14.9029C145.955 14.7572 145.81 14.563 145.713 14.3689C145.616 14.1747 145.567 13.932 145.567 13.7378C145.567 13.4951 145.616 13.3009 145.713 13.0582C145.81 12.864 145.907 12.6698 146.101 12.5242C146.246 12.3786 146.44 12.233 146.635 12.1359C146.829 12.0388 147.071 11.9902 147.314 11.9902C147.556 11.9902 147.799 12.0388 147.993 12.1359C148.187 12.233 148.381 12.33 148.575 12.5242C148.72 12.6698 148.866 12.864 148.963 13.0582C149.06 13.3009 149.108 13.5436 149.108 13.7378ZM148.769 16.4077V26.1164H145.858V16.4077H148.769Z" fill="#004A63"></path><path d="M158.082 18.7378C157.985 18.8349 157.888 18.9319 157.84 18.9805C157.742 19.029 157.645 19.0776 157.5 19.0776C157.354 19.0776 157.209 19.029 157.112 18.9805C157.015 18.9319 156.869 18.8349 156.724 18.7378C156.578 18.6407 156.433 18.5921 156.239 18.4951C156.045 18.4465 155.802 18.398 155.511 18.398C155.172 18.398 154.832 18.4465 154.59 18.5921C154.347 18.7378 154.105 18.9319 153.959 19.1747C153.813 19.4174 153.668 19.7086 153.571 20.0485C153.474 20.3883 153.425 20.7766 153.425 21.262C153.425 22.1844 153.619 22.9125 153.959 23.398C154.299 23.8834 154.832 24.1261 155.463 24.1261C155.802 24.1261 156.045 24.0776 156.287 23.9805C156.481 23.8834 156.675 23.7863 156.772 23.6892C156.918 23.5921 157.015 23.4951 157.16 23.398C157.257 23.3009 157.403 23.2523 157.597 23.2523C157.84 23.2523 157.985 23.3494 158.131 23.4951L158.955 24.5145C158.664 24.8543 158.325 25.1455 157.985 25.3397C157.645 25.5339 157.306 25.7281 156.966 25.8252C156.627 25.9708 156.287 26.0193 155.899 26.0679C155.56 26.1164 155.22 26.1164 154.881 26.1164C154.299 26.1164 153.716 26.0193 153.183 25.7766C152.649 25.5339 152.164 25.2426 151.776 24.8057C151.388 24.3688 151.049 23.8349 150.806 23.2038C150.564 22.5727 150.467 21.8446 150.467 21.0679C150.467 20.3883 150.564 19.7086 150.758 19.1261C150.952 18.4951 151.291 18.0096 151.679 17.5242C152.067 17.0873 152.601 16.7475 153.183 16.4562C153.765 16.2135 154.493 16.0679 155.269 16.0679C156.045 16.0679 156.675 16.2135 157.257 16.4562C157.84 16.6989 158.373 17.0387 158.81 17.5242L158.082 18.7378Z" fill="#004A63"></path><path d="M76.0094 32.0871C75.9609 32.1357 75.9124 32.1842 75.9124 32.2328C75.8639 32.2813 75.8154 32.2813 75.7669 32.2813C75.7184 32.2813 75.6699 32.2813 75.5728 32.2328C75.5243 32.1842 75.4273 32.1357 75.3788 32.1357C75.2818 32.0871 75.1848 32.0386 75.0878 32.0386C74.9908 31.99 74.8452 31.99 74.7482 31.99C74.5057 31.99 74.3602 32.0386 74.2632 32.1357C74.1662 32.2328 74.1177 32.3784 74.1177 32.524C74.1177 32.6211 74.1662 32.7182 74.2147 32.7667C74.2632 32.8153 74.3602 32.9124 74.4572 32.9609C74.5542 33.0095 74.6997 33.058 74.8452 33.1065C74.9908 33.1551 75.1363 33.2036 75.2818 33.2522C75.4273 33.3007 75.5728 33.3493 75.7184 33.4464C75.8639 33.4949 75.9609 33.592 76.1064 33.6891C76.2034 33.7862 76.3004 33.9318 76.3489 34.0774C76.3974 34.223 76.446 34.4172 76.446 34.6114C76.446 34.8541 76.3974 35.0968 76.3004 35.291C76.2034 35.4852 76.1064 35.6794 75.9124 35.825C75.7669 35.9706 75.5728 36.1163 75.3303 36.2133C75.0878 36.3104 74.8452 36.359 74.5542 36.359C74.4087 36.359 74.2147 36.359 74.0691 36.3104C73.9236 36.2619 73.7296 36.2133 73.5841 36.1648C73.4386 36.1163 73.293 36.0192 73.1475 35.9706C73.002 35.8735 72.905 35.7764 72.808 35.6794L73.1475 35.0968C73.196 35.0483 73.196 34.9997 73.2445 34.9997C73.293 34.9512 73.3416 34.9512 73.3901 34.9512C73.4386 34.9512 73.5356 34.9512 73.5841 34.9997C73.6811 35.0483 73.7296 35.0968 73.8266 35.1454C73.9236 35.1939 74.0206 35.2425 74.1662 35.291C74.2632 35.3396 74.4087 35.3396 74.6027 35.3396C74.8452 35.3396 74.9908 35.291 75.1363 35.1939C75.2818 35.0968 75.3303 34.9512 75.3303 34.757C75.3303 34.6114 75.2818 34.5143 75.2333 34.4658C75.1848 34.3687 75.0878 34.3201 74.9908 34.2716C74.8938 34.223 74.7482 34.1745 74.6027 34.126C74.4572 34.0774 74.3117 34.0289 74.1662 33.9803C74.0206 33.9318 73.8751 33.8832 73.7296 33.7862C73.5841 33.7376 73.4871 33.6405 73.3415 33.4949C73.2445 33.3978 73.1475 33.2522 73.099 33.058C73.0505 32.9124 73.002 32.6697 73.002 32.4269C73.002 32.2328 73.0505 32.0386 73.099 31.8444C73.196 31.6502 73.293 31.5046 73.4386 31.359C73.5841 31.2133 73.7781 31.1163 74.0206 31.0192C74.2632 30.9221 74.5057 30.8735 74.7967 30.8735C74.9423 30.8735 75.1363 30.8735 75.2818 30.9221C75.4273 30.9706 75.5728 30.9706 75.7184 31.0192C75.8639 31.0677 75.9609 31.1163 76.1064 31.2133C76.2034 31.2619 76.3489 31.359 76.446 31.4561L76.0094 32.0871Z" fill="#009F9A"></path><path d="M80.7145 35.2912H82.6547V36.262H79.5018V31.0679H80.7145V35.2912Z" fill="#009F9A"></path><path d="M90.6098 33.6406C90.6098 34.029 90.5613 34.3688 90.4158 34.7086C90.2703 35.0484 90.1248 35.3396 89.8822 35.5338C89.6397 35.7765 89.3487 35.9707 89.0091 36.1163C88.6696 36.262 88.33 36.3105 87.8935 36.3105C87.5054 36.3105 87.1174 36.262 86.7778 36.1163C86.4383 35.9707 86.1473 35.7765 85.9047 35.5338C85.6622 35.2911 85.4682 34.9998 85.3711 34.7086C85.2256 34.3688 85.1771 34.029 85.1771 33.6406C85.1771 33.2523 85.2256 32.9125 85.3711 32.5726C85.5167 32.2328 85.6622 31.9416 85.9047 31.7474C86.1473 31.5047 86.4383 31.3105 86.7778 31.1649C87.1174 31.0192 87.5054 30.9707 87.8935 30.9707C88.2815 30.9707 88.6696 31.0192 89.0091 31.1649C89.3487 31.3105 89.6397 31.5047 89.8822 31.7474C90.1248 31.9901 90.3188 32.2814 90.4158 32.5726C90.5128 32.9125 90.6098 33.3008 90.6098 33.6406ZM89.3487 33.6406C89.3487 33.3979 89.3002 33.1552 89.2517 32.961C89.2031 32.7668 89.1061 32.5726 88.9606 32.427C88.8151 32.2814 88.6696 32.1843 88.5241 32.0872C88.33 31.9901 88.136 31.9901 87.8935 31.9901C87.6509 31.9901 87.4569 32.0387 87.2629 32.0872C87.0689 32.1843 86.9233 32.2814 86.7778 32.427C86.6323 32.5726 86.5353 32.7668 86.4868 32.961C86.4383 33.1552 86.3898 33.3979 86.3898 33.6406C86.3898 33.8833 86.4383 34.126 86.4868 34.3202C86.5353 34.5144 86.6323 34.7086 86.7778 34.8542C86.9233 34.9998 87.0689 35.0969 87.2629 35.194C87.4569 35.2911 87.6509 35.2911 87.8935 35.2911C88.136 35.2911 88.33 35.2425 88.5241 35.194C88.7181 35.0969 88.8636 34.9998 88.9606 34.8542C89.1061 34.7086 89.2031 34.5144 89.2517 34.3202C89.3002 34.126 89.3487 33.9319 89.3487 33.6406Z" fill="#009F9A"></path><path d="M96.1395 35.3883C96.2851 35.3883 96.4791 35.3883 96.5761 35.3397C96.6731 35.2912 96.8186 35.2912 96.9641 35.2426V34.4659H96.4306C96.3336 34.4659 96.2851 34.4659 96.2366 34.4174C96.188 34.3688 96.188 34.3203 96.188 34.2718V33.5921H98.0313V35.7766C97.8858 35.8737 97.7402 35.9708 97.5947 36.0193C97.4492 36.0679 97.3037 36.165 97.1097 36.2135C96.9641 36.262 96.7701 36.3106 96.5761 36.3106C96.3821 36.3106 96.188 36.3591 95.994 36.3591C95.606 36.3591 95.2664 36.3106 94.9269 36.165C94.5873 36.0193 94.3448 35.8252 94.1023 35.5824C93.8597 35.3397 93.6657 35.0485 93.5202 34.7572C93.3747 34.4174 93.3262 34.0776 93.3262 33.6892C93.3262 33.3009 93.3747 32.9611 93.5202 32.6213C93.6657 32.2815 93.8112 31.9902 94.0538 31.796C94.2963 31.5533 94.5873 31.3591 94.9269 31.262C95.2664 31.1164 95.6545 31.0679 96.091 31.0679C96.2851 31.0679 96.5276 31.0679 96.7216 31.1164C96.9156 31.165 97.1097 31.2135 97.2552 31.262C97.4007 31.3106 97.5462 31.4077 97.6917 31.5048C97.8373 31.6019 97.9343 31.6989 98.0313 31.796L97.6917 32.33C97.6432 32.3786 97.5947 32.4271 97.5947 32.4271C97.5462 32.4756 97.4977 32.4756 97.4492 32.4756C97.4007 32.4756 97.3037 32.4756 97.2067 32.4271C97.1097 32.3786 97.0127 32.33 96.9156 32.2815C96.8186 32.2329 96.7216 32.1844 96.6731 32.1844C96.5761 32.1358 96.4791 32.1358 96.3821 32.1358C96.2851 32.1358 96.188 32.1358 96.0425 32.1358C95.8 32.1358 95.606 32.1844 95.4119 32.2329C95.2179 32.33 95.0724 32.4271 94.9269 32.5727C94.7814 32.7184 94.6844 32.9125 94.6358 33.1067C94.5873 33.3009 94.5388 33.5436 94.5388 33.7863C94.5388 34.0776 94.5873 34.3203 94.6358 34.5145C94.7329 34.7086 94.8299 34.9028 94.9754 35.0485C95.1209 35.1941 95.2664 35.2912 95.4605 35.3883C95.703 35.3397 95.897 35.3883 96.1395 35.3883Z" fill="#009F9A"></path><path d="M106.132 36.2618H105.21C105.113 36.2618 105.016 36.2618 104.968 36.1647C104.919 36.1161 104.871 36.0676 104.822 35.9705L104.531 35.0482H102.542L102.251 35.9705C102.251 36.019 102.203 36.1161 102.106 36.1647C102.057 36.2132 101.96 36.2618 101.863 36.2618H100.893L102.93 31.019H104.192L106.132 36.2618ZM102.785 34.2715H104.192L103.707 32.8637C103.658 32.7666 103.658 32.6695 103.61 32.5239C103.561 32.3783 103.513 32.2812 103.464 32.1355C103.416 32.2812 103.367 32.4268 103.367 32.5239C103.319 32.6695 103.27 32.7666 103.27 32.8637L102.785 34.2715Z" fill="#009F9A"></path><path d="M109.867 31.0679C109.915 31.0679 109.915 31.0679 109.964 31.1164C110.012 31.1164 110.012 31.165 110.061 31.165C110.109 31.165 110.109 31.2135 110.158 31.262L112.632 34.4174C112.632 34.3203 112.632 34.2232 112.632 34.1261C112.632 34.029 112.632 33.9319 112.632 33.8349V31.0679H113.699V36.3106H113.02C112.923 36.3106 112.826 36.3106 112.777 36.262C112.729 36.2135 112.632 36.165 112.583 36.1164L110.109 33.0096C110.109 33.1067 110.109 33.2038 110.109 33.2523C110.109 33.3494 110.109 33.398 110.109 33.4951V36.3106H109.042V31.0679H109.673C109.77 31.0679 109.818 31.0679 109.867 31.0679Z" fill="#009F9A"></path><path d="M125.437 36.262H124.225V34.0776H122.09V36.262H120.878V31.0679H122.09V33.2523H124.225V31.0679H125.437V36.262Z" fill="#009F9A"></path><path d="M132.18 31.0679V31.9902H130.045V33.2038H131.695V34.0776H130.045V35.3397H132.18V36.262H128.833V31.0679H132.18Z" fill="#009F9A"></path><path d="M136.594 34.3203V36.262H135.381V31.0679H137.079C137.467 31.0679 137.758 31.1164 138.049 31.165C138.291 31.262 138.534 31.3591 138.68 31.5048C138.825 31.6504 138.971 31.796 139.068 31.9902C139.165 32.1844 139.165 32.3785 139.165 32.6213C139.165 32.7669 139.165 32.9611 139.116 33.1067C139.068 33.2523 139.019 33.398 138.922 33.5436C138.825 33.6892 138.728 33.7863 138.583 33.8834C138.437 33.9805 138.291 34.0776 138.146 34.1261C138.243 34.1747 138.291 34.2232 138.388 34.2718C138.437 34.3203 138.534 34.4174 138.583 34.5145L139.698 36.3106H138.583C138.388 36.3106 138.243 36.2135 138.146 36.0679L137.273 34.563C137.224 34.5145 137.176 34.4659 137.127 34.4174C137.079 34.3688 136.982 34.3688 136.933 34.3688H136.594V34.3203ZM136.594 33.4951H137.079C137.224 33.4951 137.37 33.4951 137.515 33.4465C137.612 33.398 137.709 33.3494 137.806 33.2523C137.903 33.1552 137.952 33.1067 137.952 33.0096C138 32.9125 138 32.8154 138 32.6698C138 32.4271 137.903 32.2815 137.758 32.1358C137.612 31.9902 137.37 31.9417 137.079 31.9417H136.594V33.4951Z" fill="#009F9A"></path><path d="M146.004 31.0679V31.9902H143.87V33.2038H145.519V34.0776H143.87V35.3397H146.004V36.262H142.657V31.0679H146.004Z" fill="#009F9A"></path><path d="M40.0176 24.9997C40.0176 25.9706 39.2415 26.7958 38.2714 26.7958C37.3013 26.7958 36.5252 25.9706 36.5252 24.9997V21.9415H29.7828C28.8127 21.9415 27.9881 21.1162 27.9881 20.1939V13.4949H21.9248V20.1939C21.9248 21.1648 21.1487 21.9415 20.1786 21.9415H13.4847V28.058H20.1786C21.1487 28.058 21.9248 28.8347 21.9248 29.8055V36.5046H24.9807C25.9508 36.5046 26.7269 37.3298 26.7269 38.3007C26.7269 39.2716 25.9508 40.0483 24.9807 40.0483H20.1786C19.2084 40.0483 18.4323 39.223 18.4323 38.3007V31.6017H11.69C10.7198 31.6017 9.94373 30.825 9.94373 29.8541V20.1939C9.94373 19.223 10.7683 18.3978 11.69 18.3978H18.3838V11.6987C18.3838 10.7279 19.1599 9.95117 20.1301 9.95117H29.7828C30.7529 9.95117 31.529 10.7279 31.529 11.6987V18.3978H38.2229C39.193 18.3978 39.9691 19.223 39.9691 20.1939V24.9997H40.0176Z" fill="#004A63"></path><path d="M28.2791 28.932L28.3277 28.8834C28.4247 28.7378 28.5702 28.5922 28.7157 28.4951C29.0067 28.3495 29.2978 28.2524 29.6373 28.2524H38.0774C39.0476 28.2524 39.8237 29.0291 39.8237 29.9999C39.8237 30.9708 39.0476 31.7475 38.0774 31.7475H33.9059L42.4915 40.3397C43.1706 41.0194 43.1706 42.1359 42.4915 42.864C38.2715 47.0873 32.8872 49.5145 27.2605 50.097C21.6823 50.631 15.8615 49.3203 10.9139 45.9708C6.16027 42.4757 2.71632 37.6698 1.0671 32.233C-0.582113 26.8446 -0.388088 20.9223 1.89171 15.4368C4.17151 9.90285 8.24604 5.58247 13.1937 2.96111C18.1413 0.291203 24.0106 -0.679671 29.8314 0.485378C35.6521 1.65043 40.6968 4.80577 44.2862 9.12615C47.8757 13.4951 49.9615 19.0291 49.9615 24.9999C49.9615 25.9708 49.1369 26.7475 48.1667 26.7475C47.1966 26.7475 46.4205 25.9708 46.4205 24.9999C46.4205 19.9029 44.6258 15.097 41.5699 11.3592C38.514 7.6213 34.1969 4.9514 29.2008 3.93198C24.1561 2.91256 19.1115 3.78635 14.8429 6.0679C10.6228 8.34946 7.08189 12.0388 5.14163 16.7961C3.20138 21.5048 3.05586 26.6019 4.41404 31.2621C5.82072 35.8737 8.77961 40.0485 13.0482 42.9126C17.2682 45.7281 22.2644 46.8931 27.0665 46.4077C31.2865 46.0194 35.4096 44.3203 38.805 41.4077L31.5291 34.1262V38.3009C31.5291 39.2718 30.7045 40.0485 29.7828 40.0485C28.8127 40.0485 27.9881 39.2232 27.9881 38.3009V29.8058C28.0366 29.466 28.1336 29.1747 28.2791 28.932Z" fill="#009F9A"></path></g><defs><clipPath id="clip0_1_2236"><rect width="158.955" height="50" fill="white"></rect></clipPath></defs></svg>