<svg xmlns="http://www.w3.org/2000/svg" width="145" height="48" viewBox="0 0 145 48" fill="none"><g clip-path="url(#clip0_1_2078)"><path d="M32.8946 20.5041V28.2442V30.2015V32.9019V36.1518V39.1034H34.8828L33.2138 41.9974L31.5447 44.8914L29.8756 41.9921L28.2013 39.1034H30.1896V35.911V32.9071V30.2067V28.0087V20.5041H32.8946ZM15.0948 27.4959V21.2263V17.7985V15.0981V13.3188V8.89664H13.1066L14.7756 6.00262L16.4447 3.10859L18.1137 6.00262L19.7828 8.89664H17.7946V13.5595V15.0929V17.7933V21.4618V27.4854H15.0948V27.4959ZM23.9947 2.70039C23.2465 2.70039 22.6448 2.09333 22.6448 1.3502C22.6448 0.601832 23.2517 0 23.9947 0C26.4433 0 28.667 0.999564 30.2785 2.61143C31.89 4.22329 32.8894 6.45268 32.8894 8.89664V12.3925H30.1896V8.89664C30.1896 7.19581 29.4937 5.64675 28.3688 4.52159C27.2491 3.40166 25.6951 2.70039 23.9947 2.70039ZM17.7998 35.6023V39.0981C17.7998 40.799 18.4957 42.348 19.6206 43.4732C20.7455 44.5983 22.2942 45.2944 23.9947 45.2944C24.7377 45.2944 25.3446 45.9014 25.3446 46.6446C25.3446 47.3929 24.7377 47.9948 23.9947 47.9948C21.546 47.9948 19.3224 46.9952 17.7109 45.3833C16.0994 43.7715 15.0948 41.5421 15.0948 39.0981V35.6023H17.7998Z" fill="#9FC13B"></path><path d="M32.8946 15.0981H35.1496H39.0895C41.5381 15.0981 43.7618 16.0977 45.3733 17.7096C46.9848 19.3214 47.9894 21.5456 47.9894 23.9948C47.9894 26.444 46.99 28.6681 45.3733 30.28C43.7618 31.8919 41.5381 32.8914 39.0895 32.8914H35.5944V30.191H39.0895C40.7951 30.191 42.3439 29.495 43.4635 28.3698C44.5885 27.2447 45.2843 25.6956 45.2843 23.9948C45.2843 22.2887 44.5885 20.7397 43.4635 19.6197C42.3386 18.4946 40.7899 17.7985 39.0895 17.7985H34.909H32.8946H30.1948H27.0084H20.4996V15.0981H27.2491H30.1948H32.8946ZM27.4898 32.9019H20.2328H17.7946H15.0948H12.327H8.89467C6.44602 32.9019 4.22235 31.9023 2.61085 30.2905C0.999343 28.6734 0 26.4492 0 24C0 21.5508 0.999343 19.3267 2.61085 17.7148C4.22235 16.1029 6.44602 15.1034 8.89467 15.1034H12.3898V17.8038H8.89467C7.19422 17.8038 5.64027 18.4998 4.52059 19.625C3.39567 20.7501 2.69979 22.2992 2.69979 24C2.69979 25.7061 3.39567 27.2551 4.52059 28.3751C5.6455 29.5002 7.19422 30.1963 8.89467 30.1963H12.5676H15.0895H17.7893H20.4682H27.4793V32.9019H27.4898Z" fill="#17A8BB"></path><path d="M141.446 29.2803V10.3096H144.8V29.2856H141.446V29.2803ZM129.292 25.4234C129.967 26.109 130.825 26.4491 131.866 26.4491C132.907 26.4491 133.765 26.109 134.451 25.4234C135.136 24.7378 135.476 23.8586 135.476 22.7858C135.476 21.713 135.136 20.8338 134.451 20.1482C133.765 19.4626 132.907 19.1225 131.866 19.1225C130.825 19.1225 129.972 19.4626 129.292 20.1482C128.617 20.8338 128.277 21.713 128.277 22.7858C128.282 23.8586 128.617 24.7378 129.292 25.4234ZM135.482 16.286H138.835V29.2803H135.482V27.747C134.477 29.0134 133.064 29.6414 131.243 29.6414C129.512 29.6414 128.026 28.9768 126.786 27.6528C125.546 26.3288 124.928 24.7012 124.928 22.7806C124.928 20.8547 125.546 19.2324 126.786 17.9083C128.026 16.5843 129.512 15.9197 131.243 15.9197C133.064 15.9197 134.477 16.5529 135.482 17.8194V16.286ZM118.597 29.6467C116.641 29.6467 115.008 28.9873 113.7 27.6737C112.392 26.3549 111.738 24.7274 111.738 22.7858C111.738 20.8442 112.392 19.2167 113.7 17.8979C115.008 16.5791 116.641 15.9197 118.597 15.9197C119.864 15.9197 121.015 16.2232 122.051 16.8303C123.092 17.4373 123.877 18.2485 124.416 19.2742L121.527 20.9646C121.266 20.4256 120.873 20.0017 120.345 19.6929C119.816 19.3789 119.225 19.2271 118.566 19.2271C117.561 19.2271 116.729 19.5621 116.07 20.2267C115.411 20.8966 115.081 21.7496 115.081 22.7858C115.081 23.8063 115.411 24.6541 116.07 25.3187C116.729 25.9834 117.561 26.3183 118.566 26.3183C119.241 26.3183 119.843 26.1665 120.371 25.863C120.9 25.5595 121.292 25.1408 121.554 24.6018L124.463 26.266C123.892 27.2865 123.087 28.1081 122.045 28.7204C121.015 29.3379 119.864 29.6467 118.597 29.6467ZM106.417 29.2803V16.286H109.771V29.2803H106.417ZM108.081 14.7265C107.526 14.7265 107.045 14.5224 106.637 14.1142C106.229 13.706 106.024 13.2245 106.024 12.6698C106.024 12.1151 106.229 11.6284 106.637 11.2149C107.045 10.7963 107.526 10.5922 108.081 10.5922C108.651 10.5922 109.143 10.8015 109.551 11.2149C109.959 11.6284 110.163 12.1151 110.163 12.6698C110.163 13.2245 109.959 13.706 109.551 14.1142C109.143 14.5224 108.651 14.7265 108.081 14.7265ZM94.2521 25.4234C94.9375 26.109 95.8009 26.4491 96.8368 26.4491C97.878 26.4491 98.7361 26.109 99.411 25.4234C100.086 24.7378 100.426 23.8586 100.426 22.7858C100.426 21.713 100.086 20.8338 99.411 20.1482C98.7361 19.4626 97.878 19.1225 96.8368 19.1225C95.7956 19.1225 94.9375 19.4626 94.2521 20.1482C93.5667 20.8338 93.2266 21.713 93.2266 22.7858C93.2266 23.8586 93.5667 24.7378 94.2521 25.4234ZM100.426 11.0893H103.78V29.2856H100.426V27.7522C99.4372 29.0187 98.035 29.6467 96.2142 29.6467C94.4667 29.6467 92.9703 28.982 91.7302 27.658C90.4902 26.334 89.8728 24.7064 89.8728 22.7858C89.8728 20.8599 90.4902 19.2376 91.7302 17.9136C92.9703 16.5896 94.4614 15.9249 96.2142 15.9249C98.035 15.9249 99.4372 16.5582 100.426 17.8246V11.0893ZM78.7859 21.5612H85.415C85.2267 20.6768 84.829 20.0174 84.2326 19.583C83.6361 19.1486 82.9559 18.9341 82.192 18.9341C81.2921 18.9341 80.5491 19.1643 79.9579 19.6249C79.3666 20.0854 78.9742 20.7291 78.7859 21.5612ZM78.8382 24.1622C79.2882 25.7897 80.5125 26.6061 82.5007 26.6061C83.7826 26.6061 84.7558 26.1718 85.4098 25.3083L88.1148 26.8678C86.8329 28.7204 84.9441 29.6467 82.4484 29.6467C80.298 29.6467 78.5766 28.9977 77.279 27.6999C75.9814 26.402 75.3327 24.764 75.3327 22.7858C75.3327 20.8285 75.971 19.1957 77.2528 17.8874C78.5347 16.5791 80.1829 15.9249 82.192 15.9249C84.0965 15.9249 85.6714 16.5843 86.9062 17.9031C88.1462 19.2219 88.7636 20.8495 88.7636 22.791C88.7636 23.2254 88.7217 23.6859 88.6328 24.1674H78.8382V24.1622ZM73.2084 11.0893V29.2856H69.6505V17.4844L64.523 25.9258L64.1044 25.9415L58.9978 17.5263V29.2856H55.4138V11.0893H59.1025L64.319 19.6824L69.5145 11.0893H73.2084Z" fill="black"></path><path d="M111.304 37.6068H113.894C113.82 37.2614 113.663 37.005 113.433 36.8323C113.198 36.6648 112.936 36.5758 112.638 36.5758C112.287 36.5758 111.994 36.6648 111.764 36.8427C111.534 37.0259 111.377 37.2771 111.304 37.6068ZM111.325 38.6168C111.503 39.2553 111.979 39.5693 112.758 39.5693C113.261 39.5693 113.637 39.4018 113.894 39.0617L114.951 39.6687C114.448 40.3909 113.71 40.7572 112.737 40.7572C111.9 40.7572 111.225 40.506 110.718 39.9932C110.21 39.4855 109.954 38.8471 109.954 38.0726C109.954 37.3085 110.205 36.67 110.707 36.1572C111.21 35.6443 111.853 35.3931 112.638 35.3931C113.381 35.3931 113.998 35.6495 114.48 36.1624C114.961 36.6753 115.207 37.3137 115.207 38.0726C115.207 38.24 115.191 38.4232 115.155 38.6116H111.325V38.6168ZM107.788 36.4136C107.908 36.0891 108.112 35.8432 108.389 35.6809C108.672 35.5187 108.986 35.435 109.326 35.435V36.8951C108.928 36.848 108.573 36.9317 108.253 37.141C107.939 37.3504 107.782 37.701 107.782 38.1877V40.6159H106.474V35.5396H107.782V36.4136H107.788ZM101.347 37.6068H103.937C103.864 37.2614 103.707 37.005 103.476 36.8323C103.241 36.6648 102.979 36.5758 102.681 36.5758C102.331 36.5758 102.038 36.6648 101.807 36.8427C101.572 37.0259 101.42 37.2771 101.347 37.6068ZM101.368 38.6168C101.546 39.2553 102.022 39.5693 102.801 39.5693C103.304 39.5693 103.68 39.4018 103.937 39.0617L104.994 39.6687C104.491 40.3909 103.754 40.7572 102.781 40.7572C101.938 40.7572 101.268 40.506 100.761 39.9932C100.253 39.4855 100.002 38.8471 100.002 38.0726C100.002 37.3085 100.253 36.67 100.756 36.1572C101.258 35.6443 101.902 35.3931 102.681 35.3931C103.424 35.3931 104.041 35.6495 104.523 36.1624C105.004 36.6753 105.25 37.3137 105.25 38.0726C105.25 38.24 105.234 38.4232 105.198 38.6116H101.368V38.6168ZM97.292 33.5143H98.6837V40.6212H97.292V37.6748H94.6497V40.6212H93.2475V33.5143H94.6497V36.3351H97.2868V33.5143H97.292ZM87.2986 35.3983C87.8532 35.3983 88.3136 35.5867 88.6746 35.9583C89.0356 36.3299 89.2188 36.8427 89.2188 37.5021V40.6212H87.9107V37.6644C87.9107 37.3242 87.8218 37.0678 87.6386 36.8898C87.4555 36.7119 87.2148 36.6229 86.9061 36.6229C86.5661 36.6229 86.2992 36.7276 86.0952 36.9369C85.8911 37.1463 85.7917 37.4603 85.7917 37.8789V40.6212H84.4837V35.5449H85.7917V36.1101C86.1004 35.6391 86.6079 35.3983 87.2986 35.3983ZM79.241 39.114C79.5026 39.3809 79.8427 39.5169 80.2456 39.5169C80.6537 39.5169 80.9886 39.3861 81.2554 39.114C81.5223 38.8471 81.6531 38.5017 81.6531 38.083C81.6531 37.6644 81.5223 37.319 81.2554 37.0521C80.9886 36.7852 80.6485 36.6491 80.2456 36.6491C79.8375 36.6491 79.5026 36.7799 79.241 37.0521C78.9794 37.319 78.8434 37.6644 78.8434 38.083C78.8434 38.5017 78.9794 38.8419 79.241 39.114ZM81.6583 35.5449H82.9663V40.6212H81.6583V40.0246C81.2659 40.5165 80.7165 40.7677 80.0049 40.7677C79.33 40.7677 78.7492 40.5113 78.2626 39.9879C77.7813 39.4698 77.5354 38.8366 77.5354 38.083C77.5354 37.3347 77.776 36.6962 78.2626 36.1781C78.744 35.66 79.3247 35.4036 80.0049 35.4036C80.7165 35.4036 81.2659 35.6495 81.6583 36.1467V35.5449ZM72.57 38.9989C72.8369 39.2605 73.177 39.3913 73.5903 39.3913C74.0036 39.3913 74.3437 39.2605 74.6106 38.9989C74.8774 38.7372 75.0134 38.4075 75.0134 37.9993C75.0134 37.6016 74.8774 37.2719 74.6106 37.0102C74.3437 36.7485 74.0036 36.6177 73.5903 36.6177C73.177 36.6177 72.8369 36.7485 72.57 37.0102C72.3032 37.2719 72.1672 37.6016 72.1672 37.9993C72.1724 38.4075 72.3032 38.7372 72.57 38.9989ZM75.0134 35.5449H76.2901V40.3804C76.2901 41.1654 76.0337 41.762 75.5157 42.1755C74.9978 42.5889 74.3751 42.793 73.6426 42.793C73.0932 42.793 72.6119 42.6883 72.1985 42.479C71.78 42.2697 71.4608 41.9609 71.2411 41.5527L72.3555 40.9142C72.6119 41.3852 73.0566 41.626 73.6845 41.626C74.0978 41.626 74.4222 41.5161 74.6577 41.3015C74.8931 41.0869 75.0134 40.7782 75.0134 40.3752V39.8257C74.6263 40.3386 74.0874 40.6002 73.3862 40.6002C72.6694 40.6002 72.0677 40.349 71.5864 39.8414C71.105 39.339 70.8591 38.7215 70.8591 37.9993C70.8591 37.2823 71.105 36.67 71.5916 36.1624C72.0782 35.6548 72.6799 35.4036 73.3862 35.4036C74.0821 35.4036 74.6263 35.66 75.0134 36.1729V35.5449ZM66.213 39.0878C66.4746 39.3495 66.799 39.4855 67.1914 39.4855C67.5838 39.4855 67.9134 39.3547 68.175 39.0878C68.4366 38.8262 68.5727 38.4912 68.5727 38.083C68.5727 37.6801 68.4419 37.3399 68.175 37.0782C67.9082 36.8113 67.5838 36.6805 67.1914 36.6805C66.799 36.6805 66.4746 36.8113 66.213 37.0782C65.9514 37.3399 65.8205 37.6748 65.8205 38.083C65.8205 38.486 65.9514 38.8209 66.213 39.0878ZM69.1011 39.9827C68.5779 40.5008 67.9448 40.7625 67.1914 40.7625C66.4379 40.7625 65.8049 40.506 65.2869 39.9827C64.7689 39.4646 64.5125 38.8314 64.5125 38.0778C64.5125 37.3294 64.7741 36.691 65.2869 36.1729C65.8049 35.6548 66.4379 35.3983 67.1914 35.3983C67.9448 35.3983 68.5779 35.6548 69.1011 36.1729C69.6243 36.691 69.8807 37.3242 69.8807 38.0778C69.8807 38.8314 69.6191 39.4646 69.1011 39.9827ZM61.9487 40.6212V33.2056H63.2568V40.6159H61.9487V40.6212ZM58.1973 40.7625C57.491 40.7625 56.8997 40.6055 56.4184 40.2915C55.937 39.9775 55.5969 39.5483 55.4033 39.0093L56.6015 38.3081C56.8788 39.0302 57.4229 39.3966 58.2339 39.3966C58.6263 39.3966 58.9141 39.3233 59.0972 39.182C59.2803 39.0407 59.3693 38.8628 59.3693 38.643C59.3693 38.3918 59.2594 38.1982 59.0344 38.0569C58.8095 37.9208 58.4118 37.769 57.8363 37.6068C57.5171 37.5126 57.2503 37.4184 57.0305 37.3242C56.8108 37.23 56.591 37.1044 56.3713 36.9422C56.1515 36.7852 55.9841 36.5811 55.869 36.3403C55.7539 36.0944 55.6963 35.8118 55.6963 35.4873C55.6963 34.8436 55.9265 34.3307 56.3817 33.9487C56.8369 33.5667 57.3863 33.373 58.0299 33.373C58.6054 33.373 59.1129 33.5143 59.5472 33.7917C59.9867 34.0743 60.3215 34.4616 60.5675 34.964L59.3902 35.6443C59.1077 35.032 58.6525 34.7285 58.0299 34.7285C57.7369 34.7285 57.5119 34.7965 57.3444 34.9273C57.177 35.0582 57.0933 35.2309 57.0933 35.4402C57.0933 35.6652 57.1875 35.8432 57.3706 35.9845C57.559 36.1205 57.9148 36.2723 58.4432 36.4345C58.6577 36.5026 58.8252 36.5549 58.935 36.5915C59.0449 36.6282 59.2019 36.6857 59.3902 36.7642C59.5838 36.8427 59.7303 36.916 59.835 36.984C59.9396 37.0521 60.0599 37.141 60.196 37.2562C60.332 37.3713 60.4314 37.4917 60.5047 37.612C60.5779 37.7324 60.6355 37.8789 60.6878 38.0516C60.7401 38.2243 60.7663 38.4127 60.7663 38.6168C60.7663 39.271 60.5256 39.7943 60.0495 40.1816C59.5838 40.5688 58.9612 40.7625 58.1973 40.7625Z" fill="black"></path></g><defs><clipPath id="clip0_1_2078"><rect width="144.8" height="48" fill="white"></rect></clipPath></defs></svg>