<svg xmlns="http://www.w3.org/2000/svg" xmlns:xlink="http://www.w3.org/1999/xlink" id="Camada_1" x="0px" y="0px" viewBox="0 0 120 40.8" style="enable-background:new 0 0 120 40.8;" xml:space="preserve">
<style type="text/css">
	.st0{clip-path:url(#SVGID_2_);fill:url(#SVGID_3_);}
	.st1{clip-path:url(#SVGID_5_);fill:url(#SVGID_6_);}
	.st2{fill-rule:evenodd;clip-rule:evenodd;fill:#FFFFFF;}
	.st3{fill:#21262F;}
</style>
<g>
	<g>
		<defs>
			<path id="SVGID_1_" d="M13.2,0h14.3C28.9,0,30,1.1,30,2.5v8.3h8.3c1.4,0,2.5,1.1,2.5,2.5v14.3c0,1.4-1.1,2.5-2.5,2.5H30v8.3     c0,1.4-1.1,2.5-2.5,2.5H13.2c-1.4,0-2.5-1.1-2.5-2.5V30H2.5C1.1,30,0,28.9,0,27.5V13.2c0-1.4,1.1-2.5,2.5-2.5h8.3V2.5     C10.8,1.1,11.9,0,13.2,0"></path>
		</defs>
		<clipPath id="SVGID_2_">
			<use xlink:href="#SVGID_1_" style="overflow:visible;"></use>
		</clipPath>
		
			<linearGradient id="SVGID_3_" gradientUnits="userSpaceOnUse" x1="20.3899" y1="3.0111" x2="20.3899" y2="49.3752" gradientTransform="matrix(1 0 0 -1 0 42.3797)">
			<stop offset="0" style="stop-color:#3FA025"></stop>
			<stop offset="1" style="stop-color:#95D311"></stop>
		</linearGradient>
		<rect class="st0" width="40.8" height="40.8"></rect>
	</g>
</g>
<g>
	<g>
		<defs>
			<path id="SVGID_4_" d="M13.2,0.9c-0.8,0-1.5,0.7-1.5,1.5v3.7h17.4V2.5c0-0.8-0.7-1.5-1.5-1.5H13.2z"></path>
		</defs>
		<clipPath id="SVGID_5_">
			<use xlink:href="#SVGID_4_" style="overflow:visible;"></use>
		</clipPath>
		
			<linearGradient id="SVGID_6_" gradientUnits="userSpaceOnUse" x1="20.3899" y1="36.2109" x2="20.3899" y2="46.2114" gradientTransform="matrix(1 0 0 -1 0 42.3797)">
			<stop offset="0" style="stop-color:#7DC517"></stop>
			<stop offset="1" style="stop-color:#FFFFFF"></stop>
		</linearGradient>
		<rect x="11.7" y="0.9" class="st1" width="17.4" height="5.3"></rect>
	</g>
</g>
<path class="st2" d="M4.5,10.8C6.3,8.6,8.9,7.2,11.9,7c6.4-0.2,11.7,2.8,16.7,7.5c0.4,0.4-0.1,0.7-0.4,0.6c-0.3-0.1-1.8-1.2-2.1-1.4  c-0.3-0.2-0.6,0.3-0.4,0.5c0.2,0.2,2.3,2.2,2.7,2.6c0.4,0.4,0,0.8-0.4,0.6c-0.4-0.3-2.1-1.8-2.5-2c-0.4-0.3-0.7,0.2-0.5,0.5  c0.2,0.3,2.5,2.7,2.7,3.1c0.3,0.4-0.3,0.8-0.6,0.5c-0.3-0.3-2.6-2.8-2.8-3c-0.3-0.3-0.7,0-0.6,0.3c0.1,0.3,2,3.1,2.2,3.6  c0.2,0.5-0.5,0.6-0.8,0.3c-0.3-0.4-2.4-3.6-2.6-4.1c-0.3-0.4-0.7-0.2-0.8,0.1c0,0.3,0.1,0.8,0,1.2c0,0.4,0,0.9-0.4,0.9  c-0.4,0.1-0.7-0.3-0.9-1.3c-0.9-4.6-5.2-6.8-9.6-6.7L4.5,10.8L4.5,10.8z M36.3,30c-1.8,2.2-4.4,3.6-7.4,3.8  c-6.4,0.2-11.7-2.8-16.7-7.5c-0.4-0.4,0.1-0.7,0.4-0.6c0.3,0.1,1.8,1.2,2.1,1.4c0.3,0.2,0.6-0.3,0.4-0.5c-0.2-0.2-2.3-2.2-2.7-2.6  c-0.4-0.4,0-0.8,0.4-0.6c0.4,0.3,2.1,1.7,2.5,2c0.4,0.3,0.7-0.1,0.5-0.5c-0.2-0.3-2.5-2.7-2.7-3.1c-0.3-0.4,0.3-0.8,0.6-0.5  s2.6,2.8,2.8,3c0.3,0.3,0.7,0,0.6-0.3c-0.1-0.3-2-3.1-2.2-3.6c-0.2-0.5,0.5-0.6,0.8-0.3c0.3,0.4,2.4,3.6,2.6,4.1  c0.3,0.4,0.7,0.2,0.8-0.1c0-0.3-0.1-0.8,0-1.2c0-0.4,0-0.9,0.4-0.9c0.4-0.1,0.7,0.3,0.9,1.3c0.9,4.5,5.2,6.8,9.6,6.7H36.3z"></path>
<path class="st3" d="M102,37.6h2.3V37h-1.6v-0.8h1.4v-0.6h-1.4v-0.8h1.6v-0.6H102V37.6z M98.1,35.6v-0.8H99c0.3,0,0.4,0.2,0.4,0.4  s-0.1,0.4-0.4,0.4L98.1,35.6L98.1,35.6z M97.5,37.6h0.7v-1.4h0.6l0.9,1.4h0.7l-0.9-1.5c0.4-0.1,0.7-0.4,0.7-0.9  c0-0.6-0.4-0.9-1.1-0.9h-1.5L97.5,37.6L97.5,37.6z M93.6,37.6h2.3V37h-1.6v-0.8h1.4v-0.6h-1.4v-0.8h1.6v-0.6h-2.3V37.6z M88.9,37.6  h0.7v-1.4h1.5v1.4h0.7v-3.3h-0.7v1.3h-1.5v-1.3h-0.7V37.6z M83,37.6h0.7v-2.4l1.6,2.4H86v-3.3h-0.7v2.4l-1.6-2.4H83V37.6z   M79.3,36.2l0.4-1.1l0.4,1.1H79.3z M80.7,37.6h0.7l-1.4-3.3h-0.7L78,37.6h0.7l0.3-0.8h1.3L80.7,37.6z M75.3,37.7  c1,0,1.6-0.7,1.6-1.7v-0.2h-1.8v0.6h1.1c-0.1,0.5-0.5,0.8-0.9,0.8c-0.7,0-1.1-0.4-1.1-1.1c0-0.7,0.4-1.1,1.1-1.1  c0.3,0,0.7,0.2,0.8,0.5l0.6-0.1c-0.3-0.6-0.8-0.9-1.4-0.9c-1,0-1.7,0.7-1.7,1.7C73.6,37,74.3,37.7,75.3,37.7z M70.4,37.1  c-0.7,0-1.1-0.4-1.1-1.1c0-0.7,0.4-1.1,1.1-1.1c0.7,0,1.1,0.4,1.1,1.1C71.5,36.6,71,37.1,70.4,37.1z M70.4,37.7c1,0,1.7-0.7,1.7-1.7  c0-1-0.7-1.7-1.7-1.7c-1,0-1.7,0.7-1.7,1.7C68.7,37,69.3,37.7,70.4,37.7z M65.2,37.6h2.3V37h-1.6v-2.7h-0.7V37.6z M62.2,37.7  c0.9,0,1.5-0.4,1.5-1c0-1.2-2.2-0.9-2.2-1.5c0-0.2,0.3-0.4,0.7-0.4c0.4,0,0.7,0.2,0.8,0.5l0.6-0.1c-0.1-0.6-0.7-1-1.4-1  c-0.8,0-1.3,0.4-1.3,1c0,1.2,2.2,0.8,2.2,1.5c0,0.3-0.4,0.4-0.8,0.4c-0.5,0-0.9-0.3-0.9-0.6h-0.6C60.7,37.2,61.3,37.7,62.2,37.7z"></path>
<path class="st3" d="M116.9,12.7h1.6c0.4,0,0.8,0.1,1.1,0.4c0.3,0.3,0.4,0.6,0.4,1.1v14h-3.1V12.7z M113.1,27.6  c-0.6,0.3-1.3,0.5-2,0.6c-0.7,0.1-1.3,0.1-1.9,0.1c-1.1,0-2-0.3-2.8-0.9c-0.8-0.6-1.2-1.5-1.2-2.9c0-1.3,0.4-2.2,1.1-2.7  s1.7-0.9,2.8-1.1c0.1,0,0.3,0,0.5,0c0.2,0,0.4-0.1,0.7-0.1c1.3-0.2,2-0.6,2-1.1c0-0.4-0.2-0.8-0.7-0.9c-0.5-0.1-0.9-0.2-1.3-0.2  s-0.8,0-1.1,0.2c-0.3,0.1-0.6,0.4-0.7,0.7h-3c0.1-0.9,0.5-1.7,1.3-2.3c0.8-0.7,1.9-1,3.4-1c1.7,0,3,0.3,3.8,0.8  c0.9,0.6,1.3,1.5,1.3,2.5v4.1c0,1.2-0.2,2.1-0.7,2.8C114.2,26.8,113.7,27.3,113.1,27.6z M112.4,22.1c-0.4,0.2-1,0.4-1.8,0.6  c-0.7,0.1-1.1,0.2-1.1,0.2c-0.5,0.1-0.9,0.4-1.2,0.6c-0.2,0.3-0.3,0.7-0.3,1c0,0.4,0.1,0.8,0.4,1.1c0.3,0.2,0.7,0.4,1.2,0.4  c0.8,0,1.5-0.3,2-0.7c0.5-0.5,0.7-1.1,0.7-2L112.4,22.1L112.4,22.1z M104.2,28.1c-1,0-2.1,0-3.2,0c-1.1-0.1-1.7-0.8-1.7-2.2V12.6  h1.6c0.4,0,0.8,0.1,1.1,0.4c0.3,0.3,0.4,0.7,0.4,1.1v2h1.9v0.6c0,0.4-0.1,0.8-0.4,1.1c-0.3,0.3-0.7,0.4-1.1,0.4h-0.4V25  c0,0.5,0.3,0.8,0.9,0.8h0.9V28.1z M94.6,12.7h1.6c0.4,0,0.8,0.1,1.1,0.4c0.3,0.3,0.4,0.7,0.4,1.1v0.9h-3.1L94.6,12.7L94.6,12.7z   M94.6,16.2h1.6c0.4,0,0.8,0.1,1.1,0.4s0.4,0.7,0.4,1.1v10.4h-3.1L94.6,16.2L94.6,16.2z M89.7,22.2c0-1.2-0.2-2.1-0.7-2.7  s-1.1-0.9-1.9-0.9c-0.8,0-1.5,0.3-1.9,0.9c-0.4,0.6-0.6,1.5-0.6,2.7c0,1.1,0.2,2,0.7,2.6c0.4,0.6,1.1,0.9,1.9,0.9  c0.8,0,1.4-0.3,1.9-0.9C89.5,24.1,89.7,23.3,89.7,22.2z M84.6,31c0,0.4-0.1,0.8-0.4,1.1c-0.3,0.3-0.7,0.4-1.1,0.4h-1.5V21.3  c0-2.1,0.6-3.5,1.9-4.3c1.2-0.8,2.6-1.1,4-1.1c0.8,0,1.5,0.1,2.3,0.4c0.8,0.3,1.4,0.7,1.8,1.2c0.9,1.1,1.4,2.6,1.4,4.5  c0,1.9-0.4,3.4-1.4,4.6c-0.9,1.1-2.1,1.7-3.4,1.7c-0.8,0-1.4-0.1-2-0.4c-0.6-0.3-1.1-0.8-1.5-1.4L84.6,31L84.6,31z M69.5,24.2h3  c0,0.6,0.3,1.1,0.7,1.4c0.4,0.3,1.1,0.4,1.8,0.4c0.5,0,1-0.1,1.4-0.3c0.4-0.2,0.5-0.5,0.5-0.8c0-0.5-0.6-0.9-1.9-1.2  c-0.5-0.1-0.9-0.2-1.2-0.3c-1.6-0.4-2.6-0.8-3.2-1.4c-0.6-0.5-0.9-1.3-0.9-2.2c0-1.1,0.4-2.1,1.3-2.8c0.9-0.7,2.1-1,3.5-1  c1.5,0,2.8,0.4,3.8,1c0.9,0.8,1.3,1.7,1.4,2.9h-1.9c-0.6,0-1-0.3-1.3-0.8c-0.1-0.1-0.2-0.2-0.4-0.4c-0.4-0.3-0.8-0.4-1.5-0.4  c-0.6,0-1.1,0.1-1.4,0.3c-0.3,0.2-0.4,0.4-0.4,0.8c0,0.5,0.8,0.9,2.3,1.2c0.2,0,0.4,0.1,0.5,0.1c0.1,0,0.3,0,0.4,0  c1.5,0.4,2.6,0.8,3.2,1.4c0.6,0.5,0.8,1.3,0.8,2.2c0,1.3-0.5,2.3-1.5,3c-0.9,0.7-2.3,1-4.1,1c-1.7,0-3-0.4-3.8-1  c-0.9-0.7-1.3-1.7-1.3-3L69.5,24.2L69.5,24.2z M61.2,19.2c-0.6,0.7-0.9,1.7-0.8,3.1c0,1.4,0.3,2.3,0.8,2.9c0.2,0.3,0.5,0.4,0.9,0.6  c0.4,0.2,0.9,0.2,1.4,0c0.4-0.1,0.9-0.5,1.2-1c0.4-0.5,0.6-1.4,0.6-2.6c0-1.1-0.2-1.9-0.5-2.4c-0.4-0.5-0.8-0.9-1.2-1  c-0.4-0.1-0.9-0.2-1.4,0C61.7,18.8,61.4,18.9,61.2,19.2z M59,27.1c-0.6-0.5-1.1-1.3-1.4-2.2C57.4,24,57.2,23,57.2,22  c0-0.8,0.1-1.6,0.4-2.4c0.2-0.8,0.6-1.5,1.1-2c0.8-0.9,1.8-1.4,3-1.6c1.2-0.2,2.3-0.1,3.3,0.3c1.1,0.4,2,1.2,2.5,2.3  c0.5,1,0.8,2.2,0.8,3.4c0,1-0.1,1.8-0.3,2.5c-0.2,0.7-0.5,1.3-0.8,1.8c-0.7,1-1.6,1.6-2.7,1.9c-1,0.3-2,0.3-3,0.1  C60.4,28,59.6,27.6,59,27.1z M52.4,19.6c-0.4-0.6-1.1-0.9-1.9-0.9c-0.8,0-1.5,0.3-1.9,0.9c-0.4,0.6-0.7,1.4-0.7,2.5v6.2h-3V12.7h1.5  c0.4,0,0.8,0.1,1.1,0.4c0.3,0.3,0.4,0.7,0.4,1.1v3.5c0.5-0.9,1.3-1.5,2.3-1.7c1-0.2,1.9-0.2,2.8,0.2c0.8,0.4,1.5,0.9,2.1,1.7  s0.8,1.9,0.8,3.2v7h-3v-6.1c0-0.4,0-0.9-0.1-1.2C52.8,20.3,52.7,19.9,52.4,19.6z"></path>
</svg>