<?xml version="1.0" encoding="UTF-8"?>
<!DOCTYPE svg PUBLIC "-//W3C//DTD SVG 1.1//EN" "http://www.w3.org/Graphics/SVG/1.1/DTD/svg11.dtd">
<svg xmlns="http://www.w3.org/2000/svg" version="1.1" width="451px" height="553px" style="shape-rendering:geometricPrecision; text-rendering:geometricPrecision; image-rendering:optimizeQuality; fill-rule:evenodd; clip-rule:evenodd" xmlns:xlink="http://www.w3.org/1999/xlink">
<g><path style="opacity:1" fill="#030303" d="M 128.5,21.5 C 128.821,23.0481 129.821,23.7148 131.5,23.5C 135.791,26.1231 139.457,29.4564 142.5,33.5C 142.738,35.4044 143.738,36.7377 145.5,37.5C 155.27,48.7082 161.603,61.7082 164.5,76.5C 164.294,79.4951 164.96,82.1617 166.5,84.5C 168.322,91.2508 169.322,98.2508 169.5,105.5C 169.5,146.833 169.5,188.167 169.5,229.5C 180.167,229.5 190.833,229.5 201.5,229.5C 206.5,233.833 211.167,238.5 215.5,243.5C 215.833,245.833 217.167,247.167 219.5,247.5C 219.5,249.5 220.5,250.5 222.5,250.5C 223.08,252.749 224.413,254.415 226.5,255.5C 234.5,262.833 242.167,270.5 249.5,278.5C 249.414,279.496 249.748,280.329 250.5,281C 223.502,281.5 196.502,281.667 169.5,281.5C 169.168,333.336 169.501,385.003 170.5,436.5C 171.992,443.98 174.659,450.98 178.5,457.5C 178.427,459.027 179.094,460.027 180.5,460.5C 182.5,461.833 184.167,463.5 185.5,465.5C 186.035,467.446 187.368,468.446 189.5,468.5C 206.921,477.561 225.254,479.894 244.5,475.5C 246.698,475.88 248.365,475.213 249.5,473.5C 255.974,471.094 262.308,468.427 268.5,465.5C 270.027,465.573 271.027,464.906 271.5,463.5C 271.842,462.662 272.508,462.328 273.5,462.5C 275.027,462.573 276.027,461.906 276.5,460.5C 277.899,459.11 279.566,458.11 281.5,457.5C 283.749,456.92 285.415,455.587 286.5,453.5C 297.082,444.256 307.416,434.589 317.5,424.5C 319.587,423.415 320.92,421.749 321.5,419.5C 325.147,413.86 329.147,408.527 333.5,403.5C 334.906,403.027 335.573,402.027 335.5,400.5C 345.494,383.518 351.494,365.185 353.5,345.5C 348.317,345.535 343.15,345.868 338,346.5C 332.83,346.033 327.663,345.533 322.5,345C 319.543,344.721 316.877,343.887 314.5,342.5C 312.485,341.076 310.152,340.41 307.5,340.5C 303.569,339.868 300.235,338.201 297.5,335.5C 296.738,333.738 295.404,332.738 293.5,332.5C 292.508,332.672 291.842,332.338 291.5,331.5C 291.5,329.5 290.5,328.5 288.5,328.5C 288.5,326.5 287.5,325.5 285.5,325.5C 275.585,312.637 270.418,297.97 270,281.5C 267.951,264.952 271.118,249.618 279.5,235.5C 280.906,235.027 281.573,234.027 281.5,232.5C 282.906,232.027 283.573,231.027 283.5,229.5C 290.015,219.653 299.015,213.32 310.5,210.5C 314.162,210.277 317.495,209.277 320.5,207.5C 338.122,204.175 355.455,205.341 372.5,211C 377.904,213.264 382.904,216.098 387.5,219.5C 387.973,220.906 388.973,221.573 390.5,221.5C 393.784,223.117 396.451,225.45 398.5,228.5C 398.833,229.5 399.5,230.167 400.5,230.5C 401.167,230.5 401.5,230.833 401.5,231.5C 401.833,232.5 402.5,233.167 403.5,233.5C 404.5,233.833 405.167,234.5 405.5,235.5C 406.08,237.749 407.413,239.415 409.5,240.5C 410.5,240.833 411.167,241.5 411.5,242.5C 411.427,244.027 412.094,245.027 413.5,245.5C 413.427,247.027 414.094,248.027 415.5,248.5C 417.326,250.147 418.66,252.147 419.5,254.5C 419.427,256.027 420.094,257.027 421.5,257.5C 421.427,259.027 422.094,260.027 423.5,260.5C 439.066,292.272 443.232,325.606 436,360.5C 427.82,397.866 410.986,430.533 385.5,458.5C 384.5,458.833 383.833,459.5 383.5,460.5C 381.906,463.764 379.573,466.431 376.5,468.5C 375.5,468.833 374.833,469.5 374.5,470.5C 331.787,518.994 277.787,541.494 212.5,538C 196.297,535.218 181.63,529.052 168.5,519.5C 168.027,518.094 167.027,517.427 165.5,517.5C 162.437,515.975 159.77,513.975 157.5,511.5C 157.027,510.094 156.027,509.427 154.5,509.5C 153.5,509.167 152.833,508.5 152.5,507.5C 151.738,505.738 150.404,504.738 148.5,504.5C 146.167,502.833 144.167,500.833 142.5,498.5C 142.167,497.5 141.5,496.833 140.5,496.5C 140.167,495.5 139.5,494.833 138.5,494.5C 127.715,484.525 119.882,472.525 115,458.5C 114.5,399.834 114.333,341.168 114.5,282.5C 96.2946,281.808 77.9613,281.142 59.5,280.5C 56.1667,276.833 52.8333,273.167 49.5,269.5C 49.5,267.5 48.5,266.5 46.5,266.5C 46.5,264.5 45.5,263.5 43.5,263.5C 41.8173,262.147 40.4839,260.48 39.5,258.5C 39.1667,257.5 38.5,256.833 37.5,256.5C 36.8333,256.5 36.5,256.167 36.5,255.5C 36.1667,254.5 35.5,253.833 34.5,253.5C 30.5,250.167 26.8333,246.5 23.5,242.5C 23.5,240.5 22.5,239.5 20.5,239.5C 20.5,237.5 19.5,236.5 17.5,236.5C 15.8173,235.147 14.4839,233.48 13.5,231.5C 13.3893,230.883 13.056,230.383 12.5,230C 46.8317,229.5 81.165,229.333 115.5,229.5C 115.832,192.663 115.498,155.996 114.5,119.5C 113.458,114.722 111.792,110.055 109.5,105.5C 109.715,103.821 109.048,102.821 107.5,102.5C 107.5,100.5 106.5,99.5 104.5,99.5C 89.641,87.8569 73.3077,85.1902 55.5,91.5C 54.5,91.5 53.5,91.5 52.5,91.5C 45.6439,80.4896 39.8106,68.823 35,56.5C 32.0042,43.1654 36.5042,33.4987 48.5,27.5C 50.0269,27.573 51.0269,26.9063 51.5,25.5C 56.7896,22.3585 62.4563,20.0251 68.5,18.5C 71.1522,18.5905 73.4855,17.9238 75.5,16.5C 78.1522,16.5905 80.4855,15.9238 82.5,14.5C 96.1311,12.3454 109.464,13.5121 122.5,18C 124.618,19.0821 126.618,20.2488 128.5,21.5 Z"/></g>
<g><path style="opacity:0.945" fill="#696969" d="M 82.5,14.5 C 80.4855,15.9238 78.1522,16.5905 75.5,16.5C 77.5145,15.0762 79.8478,14.4095 82.5,14.5 Z"/></g>
<g><path style="opacity:0.973" fill="#575757" d="M 75.5,16.5 C 73.4855,17.9238 71.1522,18.5905 68.5,18.5C 70.5145,17.0762 72.8478,16.4095 75.5,16.5 Z"/></g>
<g><path style="opacity:0.937" fill="#7d7d7d" d="M 128.5,21.5 C 129.71,21.9321 130.71,22.5987 131.5,23.5C 129.821,23.7148 128.821,23.0481 128.5,21.5 Z"/></g>
<g><path style="opacity:0.82" fill="#7b7b7b" d="M 51.5,25.5 C 51.0269,26.9063 50.0269,27.573 48.5,27.5C 48.9731,26.0937 49.9731,25.427 51.5,25.5 Z"/></g>
<g><path style="opacity:0.816" fill="#838383" d="M 142.5,33.5 C 144.262,34.2623 145.262,35.5956 145.5,37.5C 143.738,36.7377 142.738,35.4044 142.5,33.5 Z"/></g>
<g><path style="opacity:0.969" fill="#5f5f5f" d="M 164.5,76.5 C 165.768,78.9052 166.435,81.5718 166.5,84.5C 164.96,82.1617 164.294,79.4951 164.5,76.5 Z"/></g>
<g><path style="opacity:0.522" fill="#9b9b9b" d="M 52.5,91.5 C 53.5,91.5 54.5,91.5 55.5,91.5C 53.9567,93.5567 52.9567,93.5567 52.5,91.5 Z"/></g>
<g><path style="opacity:0.718" fill="#9d9d9d" d="M 104.5,99.5 C 106.5,99.5 107.5,100.5 107.5,102.5C 106.167,101.833 105.167,100.833 104.5,99.5 Z"/></g>
<g><path style="opacity:0.965" fill="#767676" d="M 107.5,102.5 C 109.048,102.821 109.715,103.821 109.5,105.5C 108.599,104.71 107.932,103.71 107.5,102.5 Z"/></g>
<g><path style="opacity:0.49" fill="#888888" d="M 169.5,105.5 C 170.499,146.33 170.832,187.33 170.5,228.5C 181.014,228.172 191.347,228.506 201.5,229.5C 190.833,229.5 180.167,229.5 169.5,229.5C 169.5,188.167 169.5,146.833 169.5,105.5 Z"/></g>
<g><path style="opacity:0.894" fill="#6d6d6d" d="M 320.5,207.5 C 317.495,209.277 314.162,210.277 310.5,210.5C 313.505,208.723 316.838,207.723 320.5,207.5 Z"/></g>
<g><path style="opacity:0.004" fill="#c9c9c9" d="M 387.5,219.5 C 389.027,219.427 390.027,220.094 390.5,221.5C 388.973,221.573 387.973,220.906 387.5,219.5 Z"/></g>
<g><path style="opacity:0.376" fill="#838383" d="M 114.5,119.5 C 115.498,155.996 115.832,192.663 115.5,229.5C 81.165,229.333 46.8317,229.5 12.5,230C 13.056,230.383 13.3893,230.883 13.5,231.5C 11.9519,231.179 11.2852,230.179 11.5,228.5C 45.8333,228.5 80.1667,228.5 114.5,228.5C 114.5,192.167 114.5,155.833 114.5,119.5 Z"/></g>
<g><path style="opacity:0.004" fill="#c4c4c4" d="M 398.5,228.5 C 399.833,228.5 400.5,229.167 400.5,230.5C 399.5,230.167 398.833,229.5 398.5,228.5 Z"/></g>
<g><path style="opacity:0.404" fill="#a2a2a2" d="M 283.5,229.5 C 283.573,231.027 282.906,232.027 281.5,232.5C 281.427,230.973 282.094,229.973 283.5,229.5 Z"/></g>
<g><path style="opacity:0.008" fill="#c2c2c2" d="M 401.5,231.5 C 402.833,231.5 403.5,232.167 403.5,233.5C 402.5,233.167 401.833,232.5 401.5,231.5 Z"/></g>
<g><path style="opacity:0.451" fill="#9d9d9d" d="M 281.5,232.5 C 281.573,234.027 280.906,235.027 279.5,235.5C 279.427,233.973 280.094,232.973 281.5,232.5 Z"/></g>
<g><path style="opacity:0.757" fill="#9a9a9a" d="M 17.5,236.5 C 19.5,236.5 20.5,237.5 20.5,239.5C 19.1667,238.833 18.1667,237.833 17.5,236.5 Z"/></g>
<g><path style="opacity:0.843" fill="#858585" d="M 405.5,235.5 C 407.587,236.585 408.92,238.251 409.5,240.5C 407.413,239.415 406.08,237.749 405.5,235.5 Z"/></g>
<g><path style="opacity:0.839" fill="#898989" d="M 20.5,239.5 C 22.5,239.5 23.5,240.5 23.5,242.5C 22.1667,241.833 21.1667,240.833 20.5,239.5 Z"/></g>
<g><path style="opacity:0.816" fill="#939393" d="M 215.5,243.5 C 217.167,244.5 218.5,245.833 219.5,247.5C 217.167,247.167 215.833,245.833 215.5,243.5 Z"/></g>
<g><path style="opacity:0.337" fill="#acacac" d="M 411.5,242.5 C 412.906,242.973 413.573,243.973 413.5,245.5C 412.094,245.027 411.427,244.027 411.5,242.5 Z"/></g>
<g><path style="opacity:0.624" fill="#787878" d="M 413.5,245.5 C 414.906,245.973 415.573,246.973 415.5,248.5C 414.094,248.027 413.427,247.027 413.5,245.5 Z"/></g>
<g><path style="opacity:0.671" fill="#a4a4a4" d="M 219.5,247.5 C 220.833,248.167 221.833,249.167 222.5,250.5C 220.5,250.5 219.5,249.5 219.5,247.5 Z"/></g>
<g><path style="opacity:0.62" fill="#a5a5a5" d="M 222.5,250.5 C 224.587,251.585 225.92,253.251 226.5,255.5C 224.413,254.415 223.08,252.749 222.5,250.5 Z"/></g>
<g><path style="opacity:0.004" fill="#c9c9c9" d="M 34.5,253.5 C 35.5,253.833 36.1667,254.5 36.5,255.5C 35.1667,255.5 34.5,254.833 34.5,253.5 Z"/></g>
<g><path style="opacity:0.447" fill="#929292" d="M 419.5,254.5 C 420.906,254.973 421.573,255.973 421.5,257.5C 420.094,257.027 419.427,256.027 419.5,254.5 Z"/></g>
<g><path style="opacity:0.02" fill="#b7b7b7" d="M 37.5,256.5 C 38.5,256.833 39.1667,257.5 39.5,258.5C 38.1667,258.5 37.5,257.833 37.5,256.5 Z"/></g>
<g><path style="opacity:0.29" fill="#afafaf" d="M 421.5,257.5 C 422.906,257.973 423.573,258.973 423.5,260.5C 422.094,260.027 421.427,259.027 421.5,257.5 Z"/></g>
<g><path style="opacity:0.761" fill="#999999" d="M 43.5,263.5 C 45.5,263.5 46.5,264.5 46.5,266.5C 45.1667,265.833 44.1667,264.833 43.5,263.5 Z"/></g>
<g><path style="opacity:0.851" fill="#878787" d="M 46.5,266.5 C 48.5,266.5 49.5,267.5 49.5,269.5C 48.1667,268.833 47.1667,267.833 46.5,266.5 Z"/></g>
<g><path style="opacity:0.533" fill="#7a7a7a" d="M 59.5,280.5 C 77.9613,281.142 96.2946,281.808 114.5,282.5C 96.4969,282.667 78.4969,282.5 60.5,282C 59.944,281.617 59.6107,281.117 59.5,280.5 Z"/></g>
<g><path style="opacity:0.49" fill="#7e7e7e" d="M 249.5,278.5 C 250.812,279.145 251.812,280.145 252.5,281.5C 225.175,282.5 197.841,282.833 170.5,282.5C 170.5,333.833 170.5,385.167 170.5,436.5C 169.501,385.003 169.168,333.336 169.5,281.5C 196.502,281.667 223.502,281.5 250.5,281C 249.748,280.329 249.414,279.496 249.5,278.5 Z"/></g>
<g><path style="opacity:0.78" fill="#939393" d="M 285.5,325.5 C 287.5,325.5 288.5,326.5 288.5,328.5C 287.167,327.833 286.167,326.833 285.5,325.5 Z"/></g>
<g><path style="opacity:0.635" fill="#8f8f8f" d="M 288.5,328.5 C 290.5,328.5 291.5,329.5 291.5,331.5C 290.167,330.833 289.167,329.833 288.5,328.5 Z"/></g>
<g><path style="opacity:0.875" fill="#7d7d7d" d="M 293.5,332.5 C 295.404,332.738 296.738,333.738 297.5,335.5C 295.596,335.262 294.262,334.262 293.5,332.5 Z"/></g>
<g><path style="opacity:0.973" fill="#595959" d="M 307.5,340.5 C 310.152,340.41 312.485,341.076 314.5,342.5C 311.848,342.59 309.515,341.924 307.5,340.5 Z"/></g>
<g><path style="opacity:0.529" fill="#888888" d="M 335.5,400.5 C 335.573,402.027 334.906,403.027 333.5,403.5C 333.427,401.973 334.094,400.973 335.5,400.5 Z"/></g>
<g><path style="opacity:0.706" fill="#888888" d="M 321.5,419.5 C 320.92,421.749 319.587,423.415 317.5,424.5C 318.08,422.251 319.413,420.585 321.5,419.5 Z"/></g>
<g><path style="opacity:0.965" fill="#555555" d="M 286.5,453.5 C 285.415,455.587 283.749,456.92 281.5,457.5C 282.585,455.413 284.251,454.08 286.5,453.5 Z"/></g>
<g><path style="opacity:0.459" fill="#929292" d="M 178.5,457.5 C 179.906,457.973 180.573,458.973 180.5,460.5C 179.094,460.027 178.427,459.027 178.5,457.5 Z"/></g>
<g><path style="opacity:0.008" fill="#c3c3c3" d="M 385.5,458.5 C 385.5,459.833 384.833,460.5 383.5,460.5C 383.833,459.5 384.5,458.833 385.5,458.5 Z"/></g>
<g><path style="opacity:0.784" fill="#828282" d="M 276.5,460.5 C 276.027,461.906 275.027,462.573 273.5,462.5C 273.973,461.094 274.973,460.427 276.5,460.5 Z"/></g>
<g><path style="opacity:0.698" fill="#939393" d="M 271.5,463.5 C 271.027,464.906 270.027,465.573 268.5,465.5C 268.973,464.094 269.973,463.427 271.5,463.5 Z"/></g>
<g><path style="opacity:0.631" fill="#8f8f8f" d="M 185.5,465.5 C 187.23,466.026 188.564,467.026 189.5,468.5C 187.368,468.446 186.035,467.446 185.5,465.5 Z"/></g>
<g><path style="opacity:0.004" fill="#bebebe" d="M 376.5,468.5 C 376.5,469.833 375.833,470.5 374.5,470.5C 374.833,469.5 375.5,468.833 376.5,468.5 Z"/></g>
<g><path style="opacity:0.894" fill="#757575" d="M 249.5,473.5 C 248.365,475.213 246.698,475.88 244.5,475.5C 245.93,474.463 247.597,473.796 249.5,473.5 Z"/></g>
<g><path style="opacity:0.004" fill="#c8c8c8" d="M 138.5,494.5 C 139.5,494.833 140.167,495.5 140.5,496.5C 139.167,496.5 138.5,495.833 138.5,494.5 Z"/></g>
<g><path style="opacity:0.004" fill="#c5c5c5" d="M 140.5,496.5 C 141.5,496.833 142.167,497.5 142.5,498.5C 141.167,498.5 140.5,497.833 140.5,496.5 Z"/></g>
<g><path style="opacity:0.698" fill="#9a9a9a" d="M 148.5,504.5 C 150.404,504.738 151.738,505.738 152.5,507.5C 150.596,507.262 149.262,506.262 148.5,504.5 Z"/></g>
<g><path style="opacity:0.596" fill="#7f7f7f" d="M 154.5,509.5 C 156.027,509.427 157.027,510.094 157.5,511.5C 155.973,511.573 154.973,510.906 154.5,509.5 Z"/></g>
<g><path style="opacity:0.478" fill="#9a9a9a" d="M 165.5,517.5 C 167.027,517.427 168.027,518.094 168.5,519.5C 166.973,519.573 165.973,518.906 165.5,517.5 Z"/></g>
</svg>
