<svg width="128" height="24" viewBox="0 0 128 24" fill="none" xmlns="http://www.w3.org/2000/svg">
    <path d="M102.141 13.046v5.101h-1.532V5.53h4.056c1.035 0 1.914.36 2.637 1.095.737.735 1.091 1.62 1.091 2.655 0 1.066-.368 1.966-1.091 2.671-.709.72-1.588 1.08-2.637 1.08h-2.524v.015zm0-5.956v4.41h2.566c.61 0 1.12-.21 1.517-.644a2.16 2.16 0 0 0 .61-1.546 2.15 2.15 0 0 0-.61-1.53c-.397-.45-.907-.675-1.517-.675h-2.566V7.09zM113.206 8.441c1.223 0 2.186.332 2.89 1.012.704.68 1.055 1.597 1.055 2.782v5.612h-1.575v-1.265h-.076c-.688 1.043-1.591 1.565-2.723 1.565-.963 0-1.773-.3-2.431-.885-.658-.6-.979-1.344-.979-2.229 0-.933.337-1.691 1.04-2.245.689-.553 1.606-.837 2.753-.837.978 0 1.789.19 2.431.553v-.395c0-.601-.229-1.091-.688-1.518a2.33 2.33 0 0 0-1.606-.616c-.917 0-1.651.395-2.186 1.201l-1.453-.948c.795-1.186 1.988-1.787 3.548-1.787zm-2.141 6.608c0 .443.183.822.55 1.106.367.3.795.443 1.285.443.688 0 1.315-.269 1.865-.79.551-.538.811-1.154.811-1.881-.52-.427-1.239-.633-2.156-.633-.673 0-1.223.174-1.682.506-.444.348-.673.759-.673 1.249zM125.905 9.412l-5.482 12.617h-1.706l2.041-4.414-3.61-8.203h1.782l2.605 6.285h.03l2.543-6.285h1.797zM43.481 18.147c-3.858 0-7.098-3.264-7.098-7.28 0-4.014 3.24-7.279 7.098-7.279 2.135 0 3.652.874 4.786 2.008l-1.355 1.41c-.825-.797-1.929-1.425-3.446-1.425-2.813 0-5.022 2.36-5.022 5.287s2.195 5.287 5.022 5.287c1.826 0 2.872-.767 3.535-1.456.544-.567.898-1.38 1.045-2.498h-4.624v-1.992h6.48c.073.352.103.781.103 1.241 0 1.487-.398 3.34-1.65 4.659-1.237 1.333-2.798 2.038-4.874 2.038zM60.706 13.294c0 2.791-2.186 4.853-4.864 4.853-2.679 0-4.865-2.062-4.865-4.853 0-2.807 2.186-4.853 4.865-4.853 2.678 0 4.864 2.046 4.864 4.853zm-2.123 0c0-1.744-1.268-2.934-2.726-2.934-1.457 0-2.725 1.19-2.725 2.934 0 1.729 1.268 2.934 2.725 2.934 1.458 0 2.726-1.205 2.726-2.934zM70.429 13.294c0 2.791-1.968 4.853-4.378 4.853-2.411 0-4.38-2.062-4.38-4.853 0-2.807 1.969-4.853 4.38-4.853 2.41 0 4.378 2.046 4.378 4.853zm-1.926 0c0-1.744-1.14-2.934-2.452-2.934-1.313 0-2.454 1.19-2.454 2.934 0 1.729 1.141 2.934 2.454 2.934 1.312 0 2.452-1.205 2.452-2.934zM80.179 8.753v9.011c0 3.71-1.984 5.236-4.341 5.236-2.209 0-3.536-1.641-4.044-2.97l1.746-.805c.313.82 1.074 1.789 2.298 1.789 1.506 0 2.431-1.034 2.431-2.954v-.723h-.074c-.448.608-1.313 1.15-2.402 1.15-2.283 0-4.371-2.184-4.371-5.007 0-2.84 2.088-5.039 4.37-5.039 1.09 0 1.955.526 2.403 1.116h.074v-.82h1.91v.016zm-1.76 4.727c0-1.772-1.075-3.069-2.432-3.069-1.388 0-2.536 1.297-2.536 3.07 0 1.755 1.163 3.02 2.536 3.02 1.357 0 2.431-1.265 2.431-3.02zM84.055 4.559v13.588H82.11V4.559h1.946zM92.274 14.88l1.435 1.11c-.47.793-1.587 2.157-3.52 2.157-2.4 0-4.181-2.125-4.181-4.853 0-2.886 1.808-4.853 3.975-4.853 2.194 0 3.257 1.999 3.615 3.093l.194.555-5.645 2.68c.428.967 1.104 1.475 2.042 1.475.94-.032 1.602-.555 2.085-1.364zm-4.43-1.744 3.767-1.808c-.207-.603-.828-1.031-1.573-1.031-.939 0-2.25.967-2.195 2.839z" fill="#5F6368"/>
    <path d="M25.32 5.209c-2.535-1.34-5.776-.544-7.24 1.776l-3.693 5.854c-1.069 1.69.307 2.28 1.84 3.122l3.553 1.877c1.204.635 2.74.258 3.434-.842l3.796-6.015c1.275-2.022.519-4.605-1.69-5.772z" fill="#EA4335"/>
    <path d="m20.537 7.373-3.543-2.004c-1.955-1.064-3.063-1.135-3.866.116l-5.225 8.87c-1.459 2.475-.59 5.641 1.936 7.068 2.202 1.247 5.017.507 6.288-1.652l5.325-9.04a2.428 2.428 0 0 0-.915-3.358z" fill="#FBBC04"/>
    <path d="M21.916 3.204 19.487 1.77c-2.686-1.585-6.121-.645-7.672 2.101l-4.624 8.187c-.683 1.208-.277 2.754.904 3.45l2.72 1.606c1.343.793 3.06.323 3.836-1.05l5.283-9.353c1.095-1.938 3.517-2.601 5.412-1.482l-3.43-2.025z" fill="#34A853"/>
    <path d="M11.523 5.752 8.99 4.239c-1.13-.674-2.573-.274-3.224.894l-3.04 5.443c-1.495 2.679-.608 6.107 1.984 7.653l1.928 1.15 2.339 1.397 1.014.606c-1.801-1.25-2.374-3.756-1.272-5.729l.787-1.409 2.881-5.16c.65-1.166.264-2.658-.864-3.332z" fill="#4285F4"/>
</svg>
