<svg width="41" height="24" viewBox="0 0 41 24" fill="none" xmlns="http://www.w3.org/2000/svg">
    <path d="M25 21H15V3h10v18z" fill="#FF5F00"/>
    <path d="M15.515 11.5c0-3.668 1.754-6.935 4.485-9.041A11.851 11.851 0 0 0 12.743 0C6.257 0 1 5.149 1 11.5S6.257 23 12.743 23c2.633.004 5.19-.863 7.257-2.459-2.731-2.105-4.485-5.373-4.485-9.041z" fill="#EB001B"/>
    <path d="M39 11.5C39 17.851 33.743 23 27.258 23A11.854 11.854 0 0 1 20 20.541c2.732-2.105 4.486-5.373 4.486-9.041S22.732 4.565 20 2.459A11.854 11.854 0 0 1 27.258 0C33.743 0 39 5.149 39 11.5" fill="#F79E1B"/>
</svg>
