<svg width="62" height="24" viewBox="0 0 62 24" fill="none" xmlns="http://www.w3.org/2000/svg">
    <path d="M59.4 8.31c-.53-1.491-1.98-2.561-3.68-2.561h-.036a3.922 3.922 0 0 0-2.813 1.176 3.926 3.926 0 0 0-2.812-1.176h-.035c-.973 0-1.861.349-2.544.926v-.293a.57.57 0 0 0-.572-.523h-2.61a.571.571 0 0 0-.577.567v13.9c0 .314.258.566.577.566h2.61c.291 0 .53-.213.569-.489l-.002-9.978c0-.035.002-.067.005-.1.042-.445.375-.81.9-.857h.481c.22.02.406.095.552.21.227.177.353.449.353.747l.01 9.93c0 .314.259.568.577.568h2.61c.307 0 .558-.241.573-.54l-.001-9.97a.934.934 0 0 1 .424-.8c.134-.084.295-.14.48-.158h.481c.565.048.906.468.905.957l.01 9.916c0 .314.259.567.577.567h2.61a.572.572 0 0 0 .576-.567V9.664c0-.728-.083-1.037-.197-1.355zM41.734 5.894h-1.492V3.516a.521.521 0 0 0-.627-.505c-1.654.445-1.323 2.693-4.344 2.884h-.293a.61.61 0 0 0-.127.015h-.002l.002.001a.568.568 0 0 0-.452.55v2.56c0 .312.26.566.578.566h1.575L36.55 20.44c0 .31.255.56.57.56H39.7c.314 0 .57-.25.57-.56V9.587h1.463a.572.572 0 0 0 .577-.566V6.46a.572.572 0 0 0-.577-.566z" fill="#54C1F0"/>
    <path d="M32.93 5.7h-2.578a.573.573 0 0 0-.57.576v5.382a.606.606 0 0 1-.603.6h-1.08a.606.606 0 0 1-.605-.61l-.01-5.372a.574.574 0 0 0-.57-.575h-2.579a.573.573 0 0 0-.57.575v5.899c0 2.24 1.583 3.837 3.804 3.837 0 0 1.666 0 1.718.01.3.035.534.29.534.603 0 .31-.229.563-.526.6l-.044.01-3.771.013a.573.573 0 0 0-.57.575v2.602c0 .318.255.575.57.575h4.216c2.222 0 3.804-1.596 3.804-3.838V6.276a.572.572 0 0 0-.57-.575zm-24.734 0H2.559C2.25 5.7 2 5.953 2 6.265v2.55l.001.014L2 8.865v11.542c0 .313.233.57.522.576h2.627c.314 0 .57-.257.57-.575l.01-3.955h2.467c2.065 0 3.503-1.446 3.503-3.538V9.242C11.7 7.151 10.26 5.7 8.196 5.7zm-.227 6.376c0 .336-.27.61-.604.61l-1.636.002V9.469h1.636c.334 0 .604.272.604.61v1.997zm10.29-6.361h-3.578c-.317 0-.573.242-.573.54v1.012l.001.02v1.409c0 .314.271.571.606.571h3.407c.27.043.483.241.513.551v.336c-.03.295-.241.51-.498.535h-1.688c-2.244 0-3.842 1.504-3.842 3.617v3.027c0 2.1 1.374 3.595 3.602 3.595h4.676c.84 0 1.52-.641 1.52-1.431V9.622c0-2.395-1.223-3.907-4.146-3.907zm.41 11.272a.612.612 0 0 1-.034.18.603.603 0 0 1-.574.393h-1.073c-.335 0-.608-.258-.608-.573v-.491l-.001-.019.001-1.306v-.409l.001-.004c.002-.314.272-.569.607-.569h1.073c.336 0 .608.256.608.573v2.225z" fill="#233266"/>
</svg>
