<svg width="97" height="24" viewBox="0 0 97 24" fill="none" xmlns="http://www.w3.org/2000/svg">
    <path d="M60.293 16.572v-4.115c0-1.013-.383-1.519-1.34-1.519-.384 0-.83.063-1.086.127v6.014c0 .19-.191.38-.383.38h-1.468c-.192 0-.383-.19-.383-.38v-7.027c0-.254.191-.443.383-.507.957-.316 1.915-.506 2.936-.506 2.298 0 3.575 1.203 3.575 3.419v4.684c0 .19-.192.38-.383.38h-.894a.936.936 0 0 1-.957-.95zm5.745-2.469-.064.57c0 .76.51 1.203 1.34 1.203.639 0 1.213-.19 1.852-.506.064 0 .127-.064.191-.064.128 0 .192.064.256.127s.191.253.191.253c.128.19.256.443.256.633 0 .316-.192.633-.447.76-.702.38-1.532.57-2.425.57-1.022 0-1.852-.254-2.49-.76a2.955 2.955 0 0 1-1.021-2.28v-2.468c0-1.963 1.277-3.165 3.447-3.165 2.106 0 3.32 1.14 3.32 3.165v1.519c0 .19-.192.38-.384.38H66.04l-.001.063zm-.064-1.392H68.4v-.633c0-.76-.447-1.266-1.213-1.266s-1.213.443-1.213 1.266v.633zm16.278 1.392-.064.57c0 .76.51 1.203 1.34 1.203.639 0 1.213-.19 1.852-.506.064 0 .128-.064.192-.064.127 0 .191.064.255.127s.192.253.192.253c.127.19.255.443.255.633 0 .316-.192.633-.447.76-.702.38-1.531.57-2.425.57-1.022 0-1.852-.254-2.49-.76a2.955 2.955 0 0 1-1.021-2.28v-2.468c0-1.963 1.277-3.165 3.447-3.165 2.107 0 3.32 1.14 3.32 3.165v1.519c0 .19-.192.38-.384.38h-4.021v.063zm-.064-1.392h2.426v-.633c0-.76-.447-1.266-1.213-1.266s-1.213.443-1.213 1.266v.633zm-37.535 4.81h.894c.191 0 .383-.19.383-.38v-4.684c0-2.152-1.15-3.418-3.064-3.418-.575 0-1.213.126-1.596.253V6.95c0-.507-.447-.95-.958-.95h-.893c-.192 0-.384.19-.384.38v10.762c0 .19.192.38.384.38h1.468c.191 0 .383-.19.383-.38v-5.95a3.27 3.27 0 0 1 1.085-.19c.958 0 1.34.442 1.34 1.518v4.115c.064.444.447.887.958.887zm9.64-5.317v2.342c0 1.963-1.341 3.166-3.575 3.166-2.171 0-3.575-1.203-3.575-3.166v-2.342c0-1.963 1.34-3.165 3.575-3.165 2.234 0 3.574 1.203 3.574 3.165zm-2.235 0c0-.76-.447-1.266-1.276-1.266-.83 0-1.277.443-1.277 1.266v2.342c0 .76.446 1.203 1.276 1.203.83 0 1.277-.443 1.277-1.203v-2.342zm-14.235-1.076c0 2.026-1.532 3.419-3.575 3.419-.51 0-.957-.064-1.404-.254v2.85c0 .189-.192.379-.383.379h-1.469c-.191 0-.383-.19-.383-.38V7.077c0-.254.192-.443.383-.507.958-.316 1.915-.506 2.937-.506 2.298 0 3.894 1.392 3.894 3.545v1.52zm-2.298-1.646c0-1.013-.702-1.52-1.66-1.52-.575 0-.958.19-.958.19v4.179c.384.19.575.253 1.022.253.957 0 1.66-.57 1.66-1.519V9.482h-.064zm43.536 1.646c0 2.026-1.532 3.419-3.575 3.419-.511 0-.958-.064-1.405-.254v2.85c0 .189-.191.379-.383.379H72.23c-.192 0-.383-.19-.383-.38V7.077c0-.254.191-.443.383-.507.958-.316 1.915-.506 2.936-.506 2.298 0 3.894 1.392 3.894 3.545v1.52zm-2.299-1.646c0-1.013-.702-1.52-1.66-1.52-.574 0-.957.19-.957.19v4.179c.383.19.575.253 1.021.253.958 0 1.66-.57 1.66-1.519V9.482h-.064zM14.293 22.75c6.237 0 11.294-4.869 11.294-10.875S20.53 1 14.293 1 3 5.869 3 11.875 8.056 22.75 14.293 22.75z" fill="#5F259F"/>
    <path d="M19.734 8.84a.85.85 0 0 0-.831-.837h-1.535l-3.519-4.058c-.32-.387-.831-.516-1.343-.387l-1.215.387c-.192.064-.256.322-.128.45l3.838 3.672H9.179c-.192 0-.32.129-.32.322v.644c0 .45.384.837.832.837h.895v3.092c0 2.32 1.216 3.672 3.263 3.672.64 0 1.152-.064 1.791-.322v2.061c0 .58.448 1.031 1.024 1.031h.895c.192 0 .384-.193.384-.387v-9.21h1.472c.192 0 .32-.13.32-.323V8.84zm-4.094 5.54c-.384.193-.895.257-1.28.257-1.023 0-1.534-.515-1.534-1.675V9.87h2.814v4.51z" fill="#fff"/>
</svg>
