<svg width="76" height="24" viewBox="0 0 76 24" fill="none" xmlns="http://www.w3.org/2000/svg">
    <path d="M70.197 4 74 11.994 66 20l4.197-16z" fill="#018C45"/>
    <path d="M67.197 4 71 11.994 63 20l4.197-16z" fill="#F47920"/>
    <path d="M8.594 9.973h1.966c.695 0 1.199-.091 1.51-.285.312-.194.552-.526.684-1.005.144-.491.108-.823-.096-1.017-.204-.194-.695-.285-1.463-.285H9.337l-.743 2.592zM2 17.888 6.052 4h6.474c2.026 0 3.369.308 4.064.937.683.628.815 1.644.408 3.072-.252.845-.624 1.553-1.151 2.113-.516.56-1.199 1.005-2.026 1.325.707.16 1.163.48 1.366.97.204.48.18 1.188-.071 2.114l-.492 1.941v.057c-.144.548-.096.834.132.857l-.144.514h-4.376c.012-.331.048-.617.072-.868a5.52 5.52 0 0 1 .108-.583l.408-1.382c.203-.72.215-1.222.024-1.519-.192-.297-.624-.445-1.307-.445H7.707L6.28 17.888H2zM28.986 7.643l-2.985 10.245h-3.62l.443-1.496c-.635.594-1.295 1.05-1.954 1.336a4.913 4.913 0 0 1-2.062.446c-.6 0-1.115-.103-1.523-.308a2.073 2.073 0 0 1-.947-.926c-.192-.354-.263-.8-.24-1.336.037-.525.228-1.405.588-2.638l1.547-5.323H22.2l-1.547 5.288c-.227.777-.276 1.325-.168 1.61.12.298.42.458.912.458.503 0 .923-.172 1.27-.526.348-.354.624-.868.828-1.564l1.534-5.277h3.956v.011zm5.12 2.605h1.402c.9 0 1.535-.103 1.906-.309.36-.206.612-.582.767-1.108.156-.537.12-.902-.12-1.108-.227-.205-.803-.308-1.738-.308h-1.39l-.828 2.833zm-6.558 7.64L31.588 4h5.563c1.222 0 2.181.069 2.853.217.671.148 1.21.377 1.594.708.492.434.791.97.923 1.622.12.64.048 1.393-.203 2.284-.456 1.553-1.247 2.741-2.374 3.575-1.14.822-2.542 1.234-4.208 1.234h-2.602l-1.247 4.248h-4.34zm20.392-4.58c-.42.16-.97.32-1.642.48-1.067.274-1.667.64-1.799 1.085-.095.286-.047.514.096.685.144.16.396.24.756.24.66 0 1.187-.16 1.582-.468.396-.32.696-.811.9-1.496.035-.149.071-.252.083-.332l.024-.194zm-.959 4.58.036-.97c-.635.456-1.283.799-1.942 1.016a6.504 6.504 0 0 1-2.074.331c-1.127 0-1.906-.285-2.362-.856-.443-.56-.515-1.37-.216-2.41.288-1.017.816-1.77 1.559-2.25s1.99-.834 3.74-1.051c.216-.034.516-.057.887-.103 1.295-.137 2.015-.468 2.17-1.005.084-.297.036-.514-.155-.64-.18-.137-.528-.205-1.02-.205-.407 0-.743.08-1.018.251-.276.171-.48.423-.612.777h-3.86c.348-1.154 1.067-2.022 2.134-2.604 1.067-.594 2.47-.88 4.22-.88.815 0 1.558.069 2.206.229.647.148 1.127.365 1.426.628.384.331.6.697.672 1.108.072.411-.012 1.005-.228 1.77l-1.666 5.71c-.048.183-.06.355-.036.503.035.149.095.274.215.354l-.084.286h-3.992v.011zm4.016 4.043.876-3.038h1.138c.384 0 .672-.068.888-.205.215-.137.36-.366.443-.674.048-.137.072-.274.084-.434a4.345 4.345 0 0 0 0-.56l-.611-9.388h4.016l-.06 6.213 3.5-6.213H65l-6.198 10.2c-.707 1.141-1.21 1.918-1.535 2.352-.323.423-.623.754-.923.97a3.42 3.42 0 0 1-1.27.652c-.468.125-1.163.194-2.11.194-.276 0-.588 0-.924-.023-.323 0-.683-.023-1.043-.046z" fill="#29387E"/>
</svg>
