<svg width="63" height="24" viewBox="0 0 63 24" fill="none" xmlns="http://www.w3.org/2000/svg">
    <path d="M1 19.107c.807.9 1.79 1.637 2.894 2.171a9.752 9.752 0 0 0 7.18.506 9.51 9.51 0 0 0 3.192-1.741 9.107 9.107 0 0 0 2.257-2.785 8.727 8.727 0 0 0 .526-6.907 8.965 8.965 0 0 0-1.81-3.07L1 19.107z" fill="#00D1C1"/>
    <path d="M17.53 5.135a8.932 8.932 0 0 0-2.742-2.17 8.784 8.784 0 0 0-6.802-.506 8.876 8.876 0 0 0-3.024 1.74 9.03 9.03 0 0 0-2.137 2.785 9.179 9.179 0 0 0-.498 6.907 9.086 9.086 0 0 0 1.714 3.07l13.49-11.826z" fill="#00D1C1"/>
    <path fill-rule="evenodd" clip-rule="evenodd" d="M5.012 5.299a8 8 0 0 1 10.784-.623l-.921 1.128a6.543 6.543 0 0 0-8.818.51 6.522 6.522 0 0 0-.259 8.816l-1.103.951A7.976 7.976 0 0 1 5.012 5.3zM13.683 18.224a7.466 7.466 0 0 1-10.066.582l.86-1.053a6.106 6.106 0 0 0 8.23-.476 6.087 6.087 0 0 0 .242-8.228l1.03-.888a7.444 7.444 0 0 1-.296 10.063z" fill="#fff"/>
    <path d="M25.628 8.785c0-.763.696-1.16 1.438-1.16.758 0 1.391.351 1.855.977l1.917-1.023c-.773-1.357-2.226-2.059-3.772-2.059-1.902 0-3.742 1.22-3.742 3.265 0 3.783 5.226 2.96 5.226 5.156 0 .763-.665 1.236-1.53 1.236-.913 0-1.686-.428-2.134-1.206l-1.917 1.13c.773 1.418 2.365 2.18 3.989 2.18 2.164 0 3.989-1.25 3.989-3.538 0-3.6-5.319-3.082-5.319-4.958zM31.86 9.303v7.826h2.212V9.303H31.86zm-.107-2.074c0 .67.54 1.174 1.221 1.174.665 0 1.221-.503 1.221-1.174 0-.656-.556-1.175-1.221-1.175-.68 0-1.221.519-1.221 1.175zM45.999 9.456c-.402-.198-.85-.275-1.33-.275-1.082 0-1.932.382-2.582 1.205-.495-.778-1.314-1.205-2.273-1.205-.865 0-2.118.235-2.52 1.312v-1.19H35.47v7.826h2.226v-4.073c0-.961.387-2.044 1.546-2.044.866 0 1.13.58 1.13 1.693v4.424h2.21v-4.073c0-.961.371-2.044 1.546-2.044.866 0 1.129.58 1.129 1.693v4.424h2.226v-4.576c0-1.48-.263-2.487-1.484-3.097zM53.3 17.282c2.226 0 3.572-1.694 3.572-4.12 0-2.272-1.346-3.98-3.526-3.98-.912 0-2.11.121-2.643 1.117v-.996h-1.825V21l2.227-2.141v-2.477c.572.625 1.391.9 2.195.9zm-.464-6.27c1.129 0 1.794 1.007 1.794 2.212 0 1.358-.773 2.227-1.794 2.227-1.051 0-1.778-.976-1.778-2.227 0-1.388.804-2.212 1.778-2.212zM61.37 15.283a2.186 2.186 0 0 1-.588.107c-.556 0-.587-.442-.587-1.205V5.688h-2.227v8.726c0 1.083.14 1.846.634 2.334.34.335.85.534 1.562.534.479 0 1.02-.076 1.5-.244l-.294-1.755z" fill="#00D1C1"/>
</svg>
