<svg width="49" height="24" viewBox="0 0 49 24" fill="none" xmlns="http://www.w3.org/2000/svg">
    <path d="M21.375 18.75H17.54l2.397-14.491h3.835L21.375 18.75zM14.313 4.259l-3.656 9.967-.432-2.146-1.29-6.516s-.156-1.305-1.82-1.305H1.071L1 4.504s1.848.379 4.012 1.657l3.332 12.59h3.995l6.102-14.492h-4.127zM44.478 18.75H48L44.93 4.259h-3.083c-1.424 0-1.77 1.08-1.77 1.08l-5.72 13.411h3.998l.799-2.152h4.875l.45 2.152zm-4.22-5.126 2.016-5.423 1.133 5.423H40.26zm-5.602-5.88.548-3.112S33.515 4 31.754 4c-1.903 0-6.422.818-6.422 4.797 0 3.744 5.304 3.79 5.304 5.757 0 1.966-4.758 1.614-6.328.374l-.57 3.254S25.45 19 28.067 19s6.565-1.333 6.565-4.961c0-3.768-5.352-4.119-5.352-5.757s3.735-1.428 5.377-.538z" fill="url(#ru0t8brcza)"/>
    <defs>
        <linearGradient id="ru0t8brcza" x1="7" y1="8.5" x2="46.5" y2="15.5" gradientUnits="userSpaceOnUse">
            <stop stop-color="#0F1961"/>
            <stop offset="1" stop-color="#002897"/>
        </linearGradient>
    </defs>
</svg>
